<svg width="24" height="24" viewBox="0 0 24 24" fill="none" xmlns="http://www.w3.org/2000/svg">
<path d="M20.2311 16.0865C18.9661 15.103 18.7721 14.7885 17.9256 10.301C17.2066 6.4895 15.6306 5.3045 13.6736 4.685C13.7821 4.45 13.8471 4.19 13.8471 3.9135C13.8471 3.42364 13.6525 2.95385 13.3061 2.60747C12.9597 2.26109 12.4899 2.0665 12.0001 2.0665C11.5102 2.0665 11.0404 2.26109 10.694 2.60747C10.3476 2.95385 10.1531 3.42364 10.1531 3.9135C10.1531 4.19 10.2181 4.4495 10.3266 4.685C8.37005 5.305 6.79355 6.49 6.07455 10.301C5.22805 14.7885 5.03455 15.103 3.76955 16.086C2.46255 17.102 2.50455 19.441 4.24355 19.441H9.47555C9.49555 20.821 10.6161 21.9335 12.0001 21.9335C13.3841 21.9335 14.5051 20.8205 14.5246 19.4415H19.7561C21.4956 19.4415 21.5376 17.1015 20.2311 16.0865Z" stroke="black" stroke-linecap="round" stroke-linejoin="round"/>
</svg>
