<svg width="24" height="24" viewBox="0 0 24 24" fill="none" xmlns="http://www.w3.org/2000/svg">
<path d="M12.391 4.262C12.2951 4.16429 12.1801 4.08732 12.0533 4.03586C11.9264 3.9844 11.7903 3.95953 11.6534 3.96282C11.5165 3.9661 11.3818 3.99745 11.2575 4.05494C11.1333 4.11242 11.0221 4.19481 10.931 4.297L4.754 11.216C4.5904 11.3993 4.49999 11.6363 4.5 11.882V19.5C4.5 19.7652 4.60536 20.0196 4.79289 20.2071C4.98043 20.3946 5.23478 20.5 5.5 20.5H8.5C8.76522 20.5 9.01957 20.3946 9.20711 20.2071C9.39464 20.0196 9.5 19.7652 9.5 19.5V16C9.5 15.7348 9.60536 15.4804 9.79289 15.2929C9.98043 15.1054 10.2348 15 10.5 15H13.5C13.7652 15 14.0196 15.1054 14.2071 15.2929C14.3946 15.4804 14.5 15.7348 14.5 16V19.5C14.5 19.7652 14.6054 20.0196 14.7929 20.2071C14.9804 20.3946 15.2348 20.5 15.5 20.5H18.5C18.7652 20.5 19.0196 20.3946 19.2071 20.2071C19.3946 20.0196 19.5 19.7652 19.5 19.5V11.909C19.4997 11.6471 19.3966 11.3957 19.213 11.209L12.391 4.262Z" stroke="black"/>
</svg>
