<svg width="24" height="24" viewBox="0 0 24 24" fill="none" xmlns="http://www.w3.org/2000/svg">
<path d="M16.543 13.525C16.2141 12.6591 15.8057 11.8256 15.323 11.035C15.081 10.598 15.07 10.572 14.914 10.306C14.8338 10.1702 14.7414 10.042 14.638 9.923C14.038 9.141 13.471 9.673 13.838 10.416L14.455 11.516C14.8907 12.2478 15.2708 13.0113 15.592 13.8C15.7918 14.4429 15.8511 15.1212 15.766 15.789C15.6985 16.3422 15.4752 16.8649 15.122 17.296C14.6404 17.818 14.0698 18.2504 13.437 18.573C12.437 19.073 13.071 19.806 13.775 19.503C14.5854 19.079 15.3181 18.5207 15.942 17.852C16.3385 17.2793 16.611 16.6301 16.742 15.946C16.8504 15.1341 16.7825 14.3083 16.543 13.525ZM13.01 3.292L12 2L10.99 3.292C9.52201 5.17 4.73401 11.549 4.73401 14.81C4.72614 15.7402 4.90642 16.6623 5.26401 17.521C5.56405 18.2747 5.99653 18.9686 6.54101 19.57C7.74328 20.9233 9.41003 21.7756 11.211 21.958C11.4559 21.9872 11.7024 22.0012 11.949 22H12.02C13.0528 22.0014 14.0741 21.7837 15.0165 21.3612C15.959 20.9387 16.801 20.321 17.487 19.549C18.6338 18.2397 19.266 16.5585 19.266 14.818C19.266 11.549 14.478 5.17 13.01 3.292ZM16.521 18.7C15.9555 19.3341 15.2621 19.8413 14.4865 20.1882C13.7109 20.5352 12.8707 20.714 12.021 20.713C11.7989 20.7168 11.5767 20.7058 11.356 20.68C9.87058 20.5311 8.49482 19.8311 7.50001 18.718C7.05427 18.2284 6.70059 17.6623 6.45601 17.047C6.16194 16.3409 6.01298 15.5829 6.01801 14.818C6.01701 12.275 9.94601 6.71 12 4.082C14.055 6.71 17.984 12.275 17.984 14.818C17.9824 16.2464 17.4625 17.6258 16.521 18.7Z" fill="#ADADAD"/>
</svg>
