<svg width="38" height="38" viewBox="0 0 38 38" fill="none" xmlns="http://www.w3.org/2000/svg">
<path d="M26.1931 21.4146C25.6723 20.0436 25.0257 18.7238 24.2614 17.4721C23.8783 16.7802 23.8608 16.739 23.6138 16.3178C23.4869 16.1028 23.3406 15.8999 23.1768 15.7114C22.2268 14.4732 21.3291 15.3156 21.9102 16.492L22.8871 18.2337C23.5769 19.3923 24.1787 20.6012 24.6873 21.85C25.0037 22.8679 25.0976 23.9419 24.9628 24.9992C24.856 25.8752 24.5024 26.7027 23.9432 27.3853C23.1806 28.2119 22.2772 28.8965 21.2753 29.4072C19.6919 30.1989 20.6958 31.3595 21.8104 30.8797C23.0935 30.2083 24.2536 29.3245 25.2415 28.2657C25.8693 27.3589 26.3008 26.331 26.5082 25.2478C26.6798 23.9623 26.5723 22.6548 26.1931 21.4146ZM20.5992 5.21232L19 3.16666L17.4008 5.21232C15.0765 8.18582 7.49551 18.2859 7.49551 23.4492C7.48304 24.9219 7.76848 26.382 8.33467 27.7416C8.80973 28.9349 9.4945 30.0337 10.3566 30.9858C12.2602 33.1285 14.8992 34.478 17.7508 34.7668C18.1385 34.813 18.5288 34.8352 18.9193 34.8333H19.0317C20.6669 34.8356 22.284 34.4909 23.7762 33.8219C25.2683 33.1529 26.6016 32.1749 27.6878 30.9526C29.5036 28.8796 30.5045 26.2176 30.5045 23.4618C30.5045 18.2859 22.9235 8.18582 20.5992 5.21232ZM26.1583 29.6083C25.2628 30.6123 24.165 31.4154 22.937 31.9647C21.7089 32.514 20.3785 32.7972 19.0333 32.7956C18.6815 32.8016 18.3298 32.7841 17.9803 32.7433C15.6284 32.5076 13.4501 31.3993 11.875 29.6368C11.1692 28.8616 10.6093 27.9653 10.222 26.9911C9.75639 25.8731 9.52054 24.6729 9.52851 23.4618C9.52693 19.4354 15.7478 10.6242 19 6.46316C22.2538 10.6242 28.4747 19.4354 28.4747 23.4618C28.4721 25.7235 27.649 27.9075 26.1583 29.6083Z" fill="#6FC5D8"/>
</svg>
