<svg width="16" height="16" viewBox="0 0 16 16" fill="none" xmlns="http://www.w3.org/2000/svg">
<path d="M10.3998 3.1004C11.5802 3.1004 12.6672 3.55287 13.4545 4.41193H13.4554C13.7244 4.70498 13.9527 5.03966 14.14 5.41486C14.306 5.74675 14.0417 6.1004 13.6918 6.1004H13.6898C13.5906 6.09816 13.4935 6.06835 13.4095 6.01544C13.3258 5.96256 13.258 5.88799 13.2133 5.79962C13.0798 5.54193 12.9134 5.30237 12.7181 5.08771C12.1302 4.44739 11.3171 4.1004 10.3998 4.1004C9.48228 4.10045 8.66939 4.4481 8.08142 5.08868C7.49333 5.73113 7.10002 6.70302 7.09998 7.99982C7.09998 9.29692 7.49314 10.2694 8.08142 10.9119C8.66939 11.5525 9.48231 11.9002 10.3998 11.9002C11.3172 11.9002 12.1301 11.5524 12.7181 10.9119C12.9064 10.7077 13.0723 10.4699 13.2142 10.199C13.259 10.1113 13.3262 10.0368 13.4095 9.98419C13.4935 9.93128 13.5906 9.90245 13.6898 9.90021H13.6918C14.0417 9.90021 14.3059 10.2529 14.14 10.5848C13.9526 10.9601 13.7245 11.2946 13.4554 11.5877C12.6674 12.4472 11.5813 12.9002 10.3998 12.9002C9.21843 12.9002 8.13307 12.4469 7.34509 11.5877C6.55808 10.7293 6.09998 9.50019 6.09998 7.99982C6.10002 6.49956 6.55814 5.27127 7.34509 4.4129C8.1331 3.55348 9.21912 3.10045 10.3998 3.1004ZM3.59998 3.1004C4.15693 3.1004 4.6915 3.32083 5.08533 3.71466C5.47915 4.10849 5.69958 4.64306 5.69958 5.20001C5.69958 5.75697 5.47915 6.29154 5.08533 6.68536C4.6915 7.07919 4.15693 7.29962 3.59998 7.29962C3.04302 7.29962 2.50845 7.07919 2.11462 6.68536C1.7208 6.29154 1.50037 5.75697 1.50037 5.20001C1.50037 4.64306 1.7208 4.10849 2.11462 3.71466C2.50845 3.32083 3.04302 3.1004 3.59998 3.1004ZM3.59998 4.1004C3.30824 4.1004 3.02892 4.21638 2.82263 4.42267C2.61634 4.62896 2.50037 4.90827 2.50037 5.20001C2.50037 5.49175 2.61634 5.77107 2.82263 5.97736C3.02892 6.18365 3.30824 6.29962 3.59998 6.29962C3.89171 6.29962 4.17103 6.18365 4.37732 5.97736C4.58361 5.77107 4.69958 5.49175 4.69958 5.20001C4.69958 4.90827 4.58361 4.62896 4.37732 4.42267C4.17103 4.21638 3.89171 4.1004 3.59998 4.1004Z" fill="black" stroke="black" stroke-width="0.2"/>
</svg>
