<svg width="80" height="25" viewBox="0 0 80 25" fill="none" xmlns="http://www.w3.org/2000/svg">
<mask id="path-1-inside-1_121_111" fill="white">
<path d="M0 0H80V25H0V0Z"/>
</mask>
<path d="M80 25V24H0V25V26H80V25Z" fill="#FFC760" mask="url(#path-1-inside-1_121_111)"/>
<rect width="24" height="24" transform="translate(28)" fill="white"/>
<path d="M50.5 9.5625C50.5 16.125 40.7697 21.4369 40.3553 21.6562C40.2461 21.715 40.124 21.7458 40 21.7458C39.876 21.7458 39.7539 21.715 39.6447 21.6562C39.3306 21.4875 33.6869 18.4041 30.9559 14.0728C30.9207 14.0161 30.9013 13.951 30.8996 13.8842C30.898 13.8174 30.9142 13.7515 30.9466 13.6931C30.979 13.6347 31.0264 13.586 31.0839 13.552C31.1414 13.5181 31.207 13.5001 31.2737 13.5H34.75C34.8735 13.5001 34.9951 13.4697 35.104 13.4114C35.213 13.3532 35.3058 13.269 35.3744 13.1663L36.25 11.8538L38.6256 15.4163C38.7167 15.5528 38.8499 15.6557 39.005 15.7092C39.1602 15.7627 39.3285 15.7639 39.4844 15.7125C39.6497 15.6565 39.7911 15.5461 39.8856 15.3994L41.1512 13.5H43C43.1028 13.5002 43.2046 13.4793 43.299 13.4385C43.3934 13.3978 43.4784 13.3381 43.5487 13.2631C43.619 13.1881 43.6732 13.0994 43.7078 13.0026C43.7425 12.9058 43.7568 12.8029 43.75 12.7003C43.7332 12.5075 43.6442 12.3282 43.5007 12.1983C43.3573 12.0685 43.1701 11.9976 42.9766 12H40.75C40.6265 11.9999 40.5049 12.0303 40.396 12.0886C40.287 12.1468 40.1942 12.231 40.1256 12.3337L39.25 13.6462L36.8744 10.0837C36.7833 9.94704 36.6499 9.84401 36.4945 9.79048C36.3392 9.73696 36.1707 9.73592 36.0147 9.7875C35.8498 9.8438 35.7087 9.95414 35.6144 10.1006L34.3488 12H30.2059C30.1258 12.0002 30.0477 11.9748 29.9831 11.9274C29.9184 11.8799 29.8707 11.8131 29.8469 11.7366C29.6208 11.0339 29.5038 10.3007 29.5 9.5625C29.5017 8.02146 30.1147 6.54404 31.2044 5.45436C32.294 4.36468 33.7715 3.75174 35.3125 3.75C37.2484 3.75 38.9434 4.5825 40 5.98969C41.0566 4.5825 42.7516 3.75 44.6875 3.75C46.2285 3.75174 47.706 4.36468 48.7956 5.45436C49.8853 6.54404 50.4983 8.02146 50.5 9.5625Z" fill="#FFC760"/>
</svg>
