<svg width="24" height="24" viewBox="0 0 24 24" fill="none" xmlns="http://www.w3.org/2000/svg">
<path d="M12 3H6V12C5.16047 12.6296 4.54033 13.5075 4.22743 14.5092C3.91453 15.5108 3.92473 16.5856 4.25658 17.5811C4.58844 18.5767 5.22512 19.4426 6.07645 20.0562C6.92778 20.6698 7.95059 21 9 21C10.0494 21 11.0722 20.6698 11.9236 20.0562C12.7749 19.4426 13.4116 18.5767 13.7434 17.5811C14.0753 16.5856 14.0855 15.5108 13.7726 14.5092C13.4597 13.5075 12.8395 12.6296 12 12V3ZM12 3H14M12 6H14M12 9H14M19 7C19.5304 7 20.0391 6.78929 20.4142 6.41421C20.7893 6.03914 21 5.53043 21 5C21 4.46957 20.7893 3.96086 20.4142 3.58579C20.0391 3.21071 19.5304 3 19 3C18.4696 3 17.9609 3.21071 17.5858 3.58579C17.2107 3.96086 17 4.46957 17 5C17 5.53043 17.2107 6.03914 17.5858 6.41421C17.9609 6.78929 18.4696 7 19 7Z" stroke="#ADADAD" stroke-width="1.5" stroke-linecap="round" stroke-linejoin="round"/>
<path d="M9 14C8.46957 14 7.96086 14.2107 7.58579 14.5858C7.21071 14.9609 7 15.4696 7 16C7 16.5304 7.21071 17.0391 7.58579 17.4142C7.96086 17.7893 8.46957 18 9 18C9.53043 18 10.0391 17.7893 10.4142 17.4142C10.7893 17.0391 11 16.5304 11 16C11 15.4696 10.7893 14.9609 10.4142 14.5858C10.0391 14.2107 9.53043 14 9 14ZM9 14V11" stroke="#ADADAD" stroke-width="1.5" stroke-linecap="round" stroke-linejoin="round"/>
</svg>
