<svg width="32" height="32" viewBox="0 0 32 32" fill="none" xmlns="http://www.w3.org/2000/svg">
<g clip-path="url(#clip0_39_41)">
<path d="M30.4 14.7184H28.832C27.9472 14.7184 27.232 15.2928 27.232 16C27.232 16.7056 27.9472 17.2784 28.832 17.2784H30.4C31.2832 17.2784 32 16.7072 32 16C32 15.2944 31.2816 14.7184 30.4 14.7184ZM16 7.2C14.8434 7.19641 13.6974 7.42158 12.6281 7.86254C11.5589 8.30351 10.5873 8.95158 9.76945 9.76945C8.95158 10.5873 8.30351 11.5589 7.86254 12.6281C7.42158 13.6974 7.19641 14.8434 7.2 16C7.2 20.8816 11.1184 24.8 16 24.8C20.88 24.8 24.8 20.8816 24.8 16C24.8 11.1184 20.8784 7.2 16 7.2ZM16 22.4C12.4624 22.4 9.6 19.5344 9.6 16C9.6 12.4624 12.4624 9.6 16 9.6C17.6974 9.6 19.3253 10.2743 20.5255 11.4745C21.7257 12.6747 22.4 14.3026 22.4 16C22.4 17.6974 21.7257 19.3253 20.5255 20.5255C19.3253 21.7257 17.6974 22.4 16 22.4ZM4.8 16C4.8 15.2944 4.0816 14.7184 3.2 14.7184H1.6C0.7152 14.7184 0 15.2928 0 16C0 16.7056 0.7152 17.2784 1.6 17.2784H3.2C4.0816 17.2784 4.8 16.7056 4.8 16ZM16 4.8C16.7056 4.8 17.2784 4.0848 17.2784 3.2V1.6C17.2784 0.7152 16.7056 0 16 0C15.2944 0 14.7184 0.7152 14.7184 1.6V3.2C14.7184 4.0848 15.2928 4.8 16 4.8ZM16 27.2C15.2928 27.2 14.7184 27.9152 14.7184 28.8V30.4C14.7184 31.2848 15.2928 32 16 32C16.7056 32 17.2784 31.2848 17.2784 30.4V28.8C17.2784 27.9152 16.7056 27.2 16 27.2ZM27.784 6.0256C28.4096 5.4 28.5104 4.488 28.0112 3.9888C27.512 3.4896 26.5984 3.592 25.976 4.2176L24.856 5.336C24.2304 5.9616 24.1296 6.8736 24.6288 7.3728C25.128 7.872 26.0416 7.7696 26.6656 7.144L27.784 6.0256ZM5.3344 24.8528L4.2144 25.9744C3.5888 26.6 3.488 27.5088 3.9872 28.008C4.4864 28.5072 5.4 28.408 6.0224 27.7824L7.1424 26.664C7.768 26.0384 7.8688 25.1264 7.3696 24.6256C6.8704 24.1248 5.9568 24.2304 5.3344 24.8528ZM6.024 4.216C5.4 3.5904 4.4864 3.488 3.9872 3.9872C3.488 4.4864 3.5904 5.4 4.2128 6.0256L5.3328 7.144C5.9584 7.7696 6.8688 7.872 7.368 7.3728C7.8672 6.8736 7.7664 5.96 7.1424 5.336L6.024 4.216ZM24.8544 26.6656L25.9744 27.784C26.6 28.4096 27.5104 28.5088 28.0096 28.0128C28.5088 27.5136 28.408 26.6 27.7824 25.976L26.664 24.8576C26.0384 24.232 25.1264 24.1296 24.6256 24.6288C24.1248 25.128 24.2288 26.04 24.8544 26.6656Z" fill="#FBEB83"/>
</g>
<defs>
<clipPath id="clip0_39_41">
<rect width="32" height="32" fill="white"/>
</clipPath>
</defs>
</svg>
