<svg width="95" height="95" viewBox="0 0 95 95" fill="none" xmlns="http://www.w3.org/2000/svg">
<path d="M81.8191 47.6104C81.5163 48.6721 81.1538 49.655 80.6163 50.5681C80.209 51.26 79.6994 51.7464 78.818 51.7673C76.1563 51.8305 73.4994 51.8802 70.8852 51.2373C70.6488 51.1792 70.3951 51.1829 70.1488 51.1749C67.3833 51.0846 64.6135 51.183 61.8723 51.4708C58.775 51.796 55.6523 51.7509 52.5719 52.1874C49.5631 52.6138 46.5262 52.8013 43.5539 53.5608C40.8665 54.2475 38.1328 54.7708 35.4265 55.398C35.3061 55.4259 35.1847 55.4591 35.0622 55.468C32.7608 55.635 31.6096 54.964 31.6852 52.4367C31.69 52.2733 31.7026 52.1102 31.7133 51.9154C31.07 51.7875 30.514 52.1396 29.9167 52.2162C29.2216 52.3054 28.5336 52.421 27.8286 52.4186C25.1688 52.4095 22.5064 52.5001 19.8515 52.2836C17.9614 52.1294 16.1107 51.7093 14.2491 51.366C13.395 51.2086 12.5625 50.9918 11.7751 50.6135C11.2791 50.3752 10.9762 49.9948 10.7892 49.4836C10.1775 47.8119 10.2374 46.0758 10.313 44.3475C10.3959 42.4505 10.7693 40.5947 11.2358 38.7552C11.5347 37.5764 12.1484 36.5388 12.7516 35.5228C14.0803 33.2848 15.7622 31.3104 17.6584 29.524C17.7926 29.3975 17.934 29.2574 18.0992 29.1882C19.8619 28.4495 21.2329 27.0488 22.9895 26.301C23.1392 26.2373 23.281 26.1411 23.4062 26.036C25.7708 24.0513 28.5336 22.8778 31.4544 21.9821C33.2447 21.4331 34.9985 20.7626 36.8161 20.2997C37.5734 20.1068 38.3385 19.9368 39.1081 19.8027C39.9925 19.6487 40.781 19.9704 41.5027 20.4393C41.8425 20.66 42.0424 20.605 42.2702 20.3012C42.6161 19.8401 42.987 19.3973 43.359 18.9567C43.4626 18.834 43.4768 18.7213 43.4723 18.5661C43.4403 17.4707 43.9953 16.7215 45.0721 16.4774C45.6 16.3577 46.6662 15.1056 46.9138 14.8016C47.1614 14.4976 47.4668 14.3505 47.966 13.9406C48.1916 13.8168 50.86 12.4056 52.7961 12.1981C53.0791 12.1678 53.3704 12.0876 53.6277 11.9665C54.4651 11.5723 56.2387 11.2255 57.6103 11.2944C58.681 11.3482 59.3265 11.1982 60.4071 11.4028C61.7366 11.6546 62.7591 11.9307 63.917 13.2639C64.3893 14.1699 65.129 14.9709 65.8768 15.7166C66.5945 16.4324 67.2715 17.1784 67.5058 18.2174C67.5939 18.6079 68.0022 18.8105 68.1259 19.2007C68.3431 19.8859 68.2898 20.5859 68.3017 21.2842C68.3057 21.5227 68.2296 21.7699 68.3563 22.0058C70.581 20.4347 73.2233 19.8276 75.66 18.7656C76.9905 18.1857 78.4572 17.9287 79.9031 17.7C80.8317 17.5531 81.2988 17.9627 81.5214 18.8758C82.0326 20.9726 82.0456 23.1067 82.2021 25.2404C82.3251 26.9171 82.4955 28.5972 82.5742 30.28C82.6359 31.5978 82.6397 32.9187 82.647 34.2384C82.6556 35.8059 82.6945 37.3722 82.7328 38.9392C82.7948 41.4748 82.7344 44.0085 82.1392 46.4954C82.0531 46.855 81.9379 47.2077 81.8191 47.6104ZM36.0476 44.6012C36.0935 45.195 36.1719 45.7851 35.8468 46.3446C34.9482 47.8911 33.9054 49.3482 32.9028 50.8215C32.2291 51.8114 32.2534 52.7083 32.4983 53.729C32.6441 54.3364 33.0734 54.6252 33.6539 54.6717C34.1647 54.7125 34.683 54.7369 35.1932 54.6203C37.8209 54.0201 40.4716 53.5101 43.0879 52.8782C46.0855 52.1542 49.1313 51.8782 52.1659 51.4678C54.0051 51.2191 55.8572 51.0962 57.7067 51.0327C59.8873 50.9578 62.0379 50.4752 64.2296 50.5985C64.4324 50.6099 64.6395 50.5712 64.8428 50.5426C66.7514 50.2743 68.6879 50.2 70.5787 50.4478C73.1321 50.7823 75.6611 51.1309 78.252 51.0165C79.1841 50.9754 79.7151 50.6442 80.1047 49.8944C80.2282 49.6567 80.3609 49.4209 80.4543 49.1711C81.185 47.217 81.7262 45.2314 81.8509 43.1228C82.035 40.009 81.9907 36.8943 81.891 33.7872C81.8014 30.9943 81.7913 28.196 81.4813 25.4036C81.2504 23.3241 81.3381 21.2112 80.7887 19.1613C80.5994 18.4549 80.4936 18.3132 79.7794 18.4637C78.0089 18.8368 76.2303 19.1845 74.5816 19.9883C74.066 20.2398 73.4922 20.3695 72.9666 20.6034C71.4755 21.2669 69.8312 21.6196 68.6096 22.8367C68.3046 23.1406 68.131 23.3923 68.144 23.8269C68.1739 24.8268 68.0595 25.8347 67.5351 26.6925C66.3849 28.5736 64.7781 30.0196 62.8835 31.1211C61.4305 31.9659 59.8412 32.4833 58.1788 32.5093C57.3123 32.7793 57.0028 32.8807 56.2601 33.5408C56.1339 33.8096 55.7525 34.0861 55.4994 34.2364C54.4222 34.8762 53.4209 35.6579 52.1661 35.9641C51.9162 36.0251 51.6298 36.1591 51.4757 36.3517C50.803 37.1929 49.8981 37.8009 49.2301 38.6423C48.4328 39.6467 47.4729 40.2991 46.1305 40.448C45.078 40.5647 43.9813 40.6615 42.9986 41.0908C42.9619 41.1069 42.9252 41.1229 42.8885 41.1389C41.3058 41.8302 39.7204 42.5227 38.2413 43.4351C37.5614 43.8546 36.8788 44.2917 36.0476 44.6012ZM32.9716 49.2472C33.0869 49.0764 33.1738 48.8742 33.3222 48.7399C34.1852 47.9587 34.5092 46.822 35.2023 45.9229C35.7099 45.2644 35.3915 44.6847 34.5982 44.5572C33.5847 44.3943 32.6396 44.069 31.8895 43.3188C31.4085 42.8378 30.9204 42.3639 30.4319 41.8905C29.9133 41.388 29.4048 40.873 28.6532 40.7179C26.5069 40.2749 24.3629 40.1948 22.2358 40.805C21.3461 41.0602 20.477 41.3867 19.5971 41.6768C19.4203 41.7351 19.2159 41.8061 19.12 41.5674C19.0393 41.3667 19.1976 41.2685 19.3521 41.1949C21.3214 40.2566 23.33 39.4742 25.575 39.6363C25.8745 39.658 26.1748 39.7295 26.5143 39.6339C26.1397 39.3285 25.7399 39.1527 25.3115 39.1066C24.3101 38.9987 23.3231 38.7699 22.3042 38.7987C21.2736 38.8278 20.2413 38.8067 19.2099 38.7968C18.9983 38.7948 18.6694 38.8738 18.6508 38.5724C18.6305 38.2434 18.971 38.2586 19.2086 38.2332C20.6264 38.0816 22.0524 38.0372 23.4713 38.1225C24.8687 38.2065 26.2923 38.3338 27.3942 39.3636C27.9914 39.9217 28.7435 39.9394 29.5003 40.1628C28.5524 37.1706 28.4308 34.2344 29.0664 31.2066C29.5121 31.3866 29.4013 31.6911 29.4079 31.9316C29.4594 33.7808 29.2599 35.6317 29.6414 37.478C30.087 39.6347 30.9161 41.5292 32.6986 42.926C33.9648 43.9182 35.5372 44.0774 36.9061 43.2543C38.5325 42.2763 40.2441 41.4692 41.9607 40.6697C42.5225 40.408 43.0894 40.1442 43.712 40.0903C44.1957 40.0484 44.2942 39.8123 44.3237 39.3647C44.4025 38.1713 43.7519 37.1881 43.4777 36.0994C43.2744 35.2922 42.5689 35.1799 41.9775 34.9765C41.5345 34.8242 41.4755 35.4112 41.219 35.639C41.0705 35.771 40.9657 36.0244 40.7235 35.8645C40.5249 35.7334 40.6433 35.5329 40.7164 35.362C40.9375 34.8453 41.2247 34.374 41.6315 33.979C42.2803 33.3489 42.6998 32.5197 43.4661 31.975C43.1534 31.5372 42.8066 31.1779 42.7727 30.6879C42.7032 29.6854 42.4596 28.3004 42.3965 27.6741C42.3036 26.753 42.0752 25.8245 41.908 25.2779C41.6824 24.5399 41.4487 24.0048 41.5027 23.2868C41.5445 22.7315 41.5001 22.3448 41.6245 21.8013C41.668 21.6112 41.6093 21.4137 41.3729 21.2532C40.7011 20.7971 40.029 20.378 39.1495 20.528C37.3369 20.8374 35.5706 21.3265 33.8482 21.9522C31.7037 22.7313 29.4541 23.2087 27.4243 24.3259C26.0509 25.0818 24.7869 26.0005 23.456 26.7966C21.7991 27.7878 20.3025 29.0618 18.4807 29.7777C18.3702 29.8212 18.2735 29.9134 18.1856 29.9986C16.3466 31.7806 14.6803 33.7131 13.3473 35.9004C12.8051 36.7901 12.2635 37.7196 11.979 38.7308C11.2489 41.3264 10.9756 43.981 11.0802 46.6795C11.1117 47.4916 11.2189 48.2705 11.4713 49.0432C11.6576 49.6138 12.0288 49.924 12.573 50.1078C13.3555 50.3722 14.1584 50.5304 14.9673 50.6901C17.191 51.129 19.4213 51.5573 21.6898 51.5781C24.7926 51.6065 27.9062 51.8855 30.9896 51.1659C31.6958 51.0011 32.1439 50.7112 32.4819 50.1397C32.6393 49.8736 32.7776 49.5963 32.9716 49.2472ZM42.0752 24.4672C42.2702 24.7723 42.9986 27.1919 42.9986 27.6741C42.9986 28.3623 43.2126 29.3371 43.2338 30.2191C43.2513 30.9469 43.8052 31.4064 44.5152 31.5627C46.0666 31.9042 47.3519 32.7269 48.5674 33.6988C49.2289 34.2277 51.4757 33.6988 51.4757 33.6988C51.4757 33.6988 53.8158 32.8653 55.0254 32.7793C55.337 32.7571 56.248 32.7726 56.4458 32.5093C57.1885 31.975 58.1001 31.9508 58.4264 31.8284C58.9216 31.6427 59.0934 31.444 59.3194 31.1079C59.5487 30.7668 59.7221 30.4044 59.851 30.0029C60.3235 28.5309 60.1562 27.0192 60.1653 25.5233C60.1784 23.3546 59.8922 21.303 58.3935 19.5149C57.3383 18.256 56.0255 17.4375 54.664 16.6499C54.1727 16.3657 53.6071 16.1952 53.1396 15.8497C52.3672 15.2787 51.4445 15.2195 50.5513 15.1703C49.6501 15.1205 48.75 15.2483 48.1916 16.1534C47.8823 15.9391 47.6952 15.5322 47.267 15.7374C46.8613 15.9319 46.4197 16.0712 46.1643 16.4917C45.9594 16.8291 45.6573 17.0051 45.2568 17.0552C44.6054 17.1366 44.2638 17.5625 44.0839 18.1879C44.5222 18.3966 44.6984 18.6881 44.2449 19.0083C43.5853 19.4742 43.1829 20.1515 42.6977 20.7625C41.8319 21.8527 41.7852 23.0967 42.0752 24.4672ZM50.0407 13.7017C49.0476 14.2269 50.0215 13.7547 49.0183 14.6214C50.5045 13.8473 51.7928 14.2897 53.1656 14.9511C54.6621 15.6721 56.2052 16.397 57.5083 17.4908C58.888 18.6489 59.9604 20.0191 60.5115 21.7555C60.8253 22.7443 60.8979 23.7806 60.9434 24.8003C61.0047 26.1744 61.0958 27.5612 60.8555 28.9308C60.7235 29.6832 60.5398 30.4266 60.3621 31.2544C60.792 31.1284 61.1364 31.0574 61.4575 30.9284C63.4829 30.1144 65.0374 28.7142 66.3625 27.0119C67.2661 25.8512 67.6182 24.5885 67.2685 23.1481C67.2238 22.9638 67.2166 22.7853 67.2776 22.6012C67.7186 21.2719 67.9192 19.966 66.8997 18.7785C66.8357 18.7039 66.7951 18.5956 66.7775 18.4969C66.6207 17.6158 66.0418 16.9961 65.4696 16.3735C64.5383 15.3601 63.5019 13.8787 62.918 13.1418C62.5666 12.6983 62.1068 12.3445 61.7069 12.1981C61.0689 11.9645 60.7182 11.9073 60.0161 11.9307C58.9055 11.9676 57.7998 12.1429 56.6855 12.0622C55.9935 12.0121 55.3275 12.1241 54.6926 12.389C53.6785 12.8123 52.6098 13.0262 51.5394 13.2279C51.0491 13.3203 50.583 13.4652 50.0407 13.7017ZM49.7955 36.9904C49.7814 36.6623 49.7837 36.3325 49.7495 36.0064C49.6976 35.5109 49.5355 34.9387 49.1186 34.7633C48.4931 34.5002 48.0021 34.0868 47.4546 33.731C46.5616 33.1507 45.6867 32.5244 44.6395 32.2287C44.4667 32.1799 44.3049 32.0867 44.1294 32.2631C43.4947 32.9012 42.8659 33.5419 42.3965 34.3268C43.7775 34.8938 43.8235 34.8774 44.0246 35.4428C44.5079 36.8025 45.2756 38.1125 44.8771 39.6545C44.8654 39.7001 44.9144 39.7614 44.9436 39.8372C45.3967 39.775 45.8426 39.7149 46.2881 39.6525C46.9995 39.5529 47.6225 39.2975 48.1218 38.7447C48.6445 38.1659 49.2114 37.627 49.7955 36.9904ZM51.4757 35.8645C51.8453 35.6345 52.746 35.1343 53.1653 35.0262C54.2178 34.7547 54.3033 34.0619 55.3547 33.5833C54.9437 33.4602 53.881 33.5308 53.5985 33.5408C52.0464 33.5962 51.4208 34.6087 49.7955 34.5518C50.0229 35.0308 50.4649 36.3863 50.38 36.9039C50.731 36.5941 51.1288 36.1553 51.4757 35.8645Z" fill="black"/>
<path d="M36.0476 44.6012C36.0935 45.195 36.1719 45.7851 35.8468 46.3446C34.9482 47.8911 33.9054 49.3482 32.9028 50.8215C32.2291 51.8114 32.2534 52.7083 32.4983 53.729C32.6441 54.3364 33.0734 54.6252 33.6539 54.6717C34.1647 54.7125 34.683 54.7369 35.1932 54.6203C37.8209 54.0201 40.4716 53.5101 43.0879 52.8782C46.0855 52.1542 49.1313 51.8782 52.1659 51.4678C54.0051 51.2191 55.8572 51.0962 57.7067 51.0327C59.8873 50.9578 62.0379 50.4752 64.2296 50.5985C64.4324 50.6099 64.6395 50.5712 64.8428 50.5426C66.7514 50.2743 68.6879 50.2 70.5787 50.4478C73.1321 50.7823 75.6611 51.1309 78.252 51.0165C79.1841 50.9754 79.7151 50.6442 80.1047 49.8944C80.2282 49.6567 80.3609 49.4209 80.4543 49.1711C81.185 47.217 81.7262 45.2314 81.8509 43.1228C82.035 40.009 81.9907 36.8943 81.891 33.7872C81.8014 30.9943 81.7913 28.196 81.4813 25.4036C81.2504 23.3241 81.3381 21.2112 80.7887 19.1613C80.5994 18.4549 80.4936 18.3132 79.7794 18.4637C78.0089 18.8368 76.2303 19.1845 74.5816 19.9883C74.066 20.2398 73.4922 20.3695 72.9666 20.6034C71.4755 21.2669 69.8312 21.6196 68.6096 22.8367C68.3046 23.1406 68.131 23.3923 68.144 23.8269C68.1739 24.8268 68.0595 25.8347 67.5351 26.6925C66.3849 28.5736 64.7781 30.0196 62.8835 31.1211C61.4305 31.9659 59.8412 32.4833 58.1788 32.5093C57.3123 32.7793 57.0028 32.8807 56.2601 33.5408C56.1339 33.8096 55.7525 34.0861 55.4994 34.2364C54.4222 34.8762 53.4209 35.6579 52.1661 35.9641C51.9162 36.0251 51.6298 36.1591 51.4757 36.3517C50.803 37.1929 49.8981 37.8009 49.2301 38.6423C48.4328 39.6467 47.4729 40.2991 46.1305 40.448C45.078 40.5647 43.9813 40.6615 42.9986 41.0908L42.8885 41.1389C41.3058 41.8302 39.7204 42.5227 38.2413 43.4351C37.5614 43.8546 36.8788 44.2917 36.0476 44.6012Z" fill="#FBFAC8"/>
<path d="M55.3972 11.335C56.1233 11.2065 56.9192 11.1358 57.6166 11.1709L57.7148 11.1752C58.1995 11.1945 58.5946 11.1733 59.0036 11.1684C59.4385 11.1631 59.8789 11.1768 60.4302 11.2812L60.6769 11.3291C61.2461 11.4431 61.7702 11.5759 62.2793 11.8159C62.845 12.0827 63.3869 12.4791 63.9555 13.1199L64.0105 13.1828L64.0201 13.1937L64.0268 13.2067C64.4896 14.0944 65.2172 14.8839 65.9643 15.629L66.0985 15.7639C66.768 16.4422 67.3989 17.1804 67.6267 18.1902L67.6342 18.22C67.6758 18.3669 67.7736 18.4869 67.8961 18.6281C68.0206 18.7716 68.1729 18.9393 68.244 19.1633L68.2643 19.2298C68.4651 19.9166 68.4143 20.6208 68.4255 21.2821L68.4254 21.3314C68.4244 21.3804 68.4211 21.4284 68.4176 21.4738C68.4129 21.536 68.4081 21.5924 68.4068 21.6488C68.4055 21.7067 68.4084 21.7607 68.4183 21.8122C69.5064 21.0674 70.6866 20.5426 71.8841 20.0793C73.1362 19.595 74.3946 19.1822 75.6106 18.6522L75.7372 18.5981C77.05 18.049 78.4841 17.7991 79.8838 17.5777L79.929 17.571C80.3925 17.5054 80.7647 17.5735 81.052 17.7919C81.3453 18.0149 81.5275 18.3778 81.6418 18.8465L81.6886 19.0444C82.1573 21.091 82.1749 23.1751 82.3257 25.2314L82.3492 25.5451C82.4693 27.114 82.6241 28.6949 82.698 30.2743L82.7089 30.522C82.7603 31.7606 82.7641 33.0013 82.7709 34.2378L82.7754 34.825C82.7892 36.1952 82.8232 37.5649 82.8567 38.9362L82.8621 39.1742C82.9136 41.5942 82.8423 44.0201 82.2873 46.4069L82.2596 46.5243C82.1726 46.8881 82.0554 47.2473 81.938 47.6454C81.6431 48.6787 81.2905 49.6435 80.7736 50.544L80.7231 50.6309C80.5149 50.9845 80.2755 51.2949 79.968 51.5194C79.6681 51.7385 79.3092 51.8716 78.8643 51.8897L78.821 51.8911C76.203 51.9533 73.5719 52.0034 70.9792 51.3874L70.8557 51.3576C70.6906 51.317 70.5169 51.3088 70.3327 51.3038L70.1449 51.2987C67.4712 51.2114 64.7936 51.3008 62.1419 51.5676L61.8853 51.5939C60.3328 51.7569 58.7737 51.8272 57.2225 51.9111C55.7669 51.9897 54.3171 52.0804 52.8773 52.2706L52.5894 52.3101C49.6147 52.7316 46.6427 52.9177 43.7236 53.6457L43.5846 53.6808C41.0647 54.3247 38.4959 54.8269 35.961 55.4025L35.4546 55.5186C35.3552 55.5416 35.2396 55.5727 35.1218 55.5866L35.0713 55.5916C33.9146 55.6755 33.009 55.5532 32.404 55.0586C31.7935 54.5594 31.5233 53.7109 31.5615 52.433L31.5665 52.3082C31.5711 52.2158 31.577 52.1209 31.5831 52.0203C31.3289 51.9912 31.0843 52.0381 30.831 52.1084C30.5683 52.1813 30.2812 52.2852 29.9907 52.3307L29.9325 52.3391C29.287 52.4219 28.6314 52.5303 27.9622 52.5415L27.8283 52.5424C25.2576 52.5336 22.6698 52.6185 20.0911 52.4265L19.8415 52.407C18.0618 52.2619 16.3144 51.8816 14.5746 51.5528L14.2268 51.4879C13.3942 51.3343 12.5756 51.1238 11.7968 50.7607L11.7215 50.7251C11.2083 50.4785 10.8896 50.0877 10.6918 49.5761L10.673 49.5262C10.0516 47.8279 10.1139 46.0675 10.1894 44.3422L10.198 44.1632C10.2964 42.3164 10.6632 40.5102 11.1159 38.7249L11.1453 38.6128C11.4589 37.4601 12.0623 36.4417 12.6452 35.4597L12.7715 35.2495C14.0868 33.0859 15.7304 31.1705 17.5736 29.4339L17.6754 29.3382C17.7831 29.2388 17.9085 29.134 18.0514 29.0741L18.1325 29.0396C18.9676 28.6775 19.7171 28.1662 20.4768 27.6459C21.2576 27.1112 22.0496 26.5667 22.9411 26.1871L22.9916 26.1641C23.1088 26.1073 23.2225 26.0287 23.3267 25.9412L23.4387 25.848C25.7963 23.9045 28.5358 22.7478 31.4182 21.8638L31.7515 21.7602C33.4176 21.235 35.0795 20.6143 36.7857 20.1798L37.071 20.1083C37.7375 19.9441 38.4103 19.7987 39.087 19.6808L39.1738 19.6671C40.0674 19.5404 40.8602 19.8742 41.5703 20.3355L41.5996 20.354C41.7429 20.442 41.8354 20.4594 41.9043 20.4456C41.9793 20.4306 42.0626 20.3719 42.1713 20.227L42.303 20.0538C42.6128 19.6515 42.939 19.2623 43.2645 18.8768L43.2779 18.8604C43.3327 18.7892 43.3485 18.7231 43.3492 18.6201L43.3486 18.5698C43.332 18.0002 43.4679 17.5096 43.7579 17.1277C44.0481 16.7455 44.4838 16.4839 45.0448 16.3567L45.0648 16.3516C45.1667 16.3224 45.3063 16.2393 45.4717 16.1103C45.644 15.9758 45.8304 15.8025 46.0104 15.6214C46.37 15.2593 46.6956 14.8736 46.818 14.7234C46.9517 14.5592 47.1 14.4391 47.2719 14.3115C47.4449 14.183 47.6411 14.0473 47.8876 13.8449L47.8964 13.8377L47.9066 13.8321L47.9779 13.7938C48.2075 13.6721 48.8674 13.3334 49.6917 12.9867C50.6314 12.5915 51.7962 12.1808 52.783 12.0751L52.8336 12.0691C53.0873 12.0365 53.3459 11.9624 53.5751 11.8545L53.6589 11.8166C54.0911 11.6277 54.7178 11.4553 55.3972 11.335ZM57.6042 11.4181C56.9301 11.3842 56.1533 11.4526 55.4403 11.5788C54.7706 11.6973 54.1656 11.8654 53.7591 12.043L53.6805 12.0785C53.4272 12.1977 53.1436 12.2788 52.8651 12.3147L52.8094 12.3212C51.8601 12.4229 50.7227 12.8216 49.7877 13.2149C48.8781 13.5974 48.1711 13.9701 48.0349 14.0441C47.7866 14.2474 47.5837 14.3883 47.4195 14.5102C47.2519 14.6347 47.1237 14.7401 47.0098 14.8798C46.8845 15.0337 46.5533 15.426 46.186 15.7959C46.0025 15.9807 45.8078 16.162 45.624 16.3054C45.4555 16.4369 45.2832 16.5472 45.13 16.5904L45.0996 16.5982C44.5838 16.7151 44.2036 16.9502 43.9551 17.2774C43.7064 17.605 43.5808 18.0367 43.5961 18.5626L43.5968 18.6248C43.5954 18.7581 43.5728 18.8808 43.4771 19.0073L43.4536 19.0366C43.1281 19.4222 42.8051 19.8076 42.4993 20.2046L42.3693 20.3755C42.2501 20.5344 42.1196 20.6551 41.9528 20.6884C41.795 20.7199 41.6362 20.6672 41.4689 20.5643L41.4353 20.5431C40.747 20.096 40.0162 19.7976 39.2079 19.9123L39.1295 19.9247C38.4593 20.0414 37.7921 20.1856 37.1302 20.3486L36.8467 20.4196C35.1449 20.8531 33.5108 21.4653 31.828 21.9956L31.4908 22.1005C28.6228 22.9801 25.9181 24.125 23.5961 26.0391L23.4859 26.1308C23.3627 26.2342 23.2213 26.332 23.0688 26.4014L23.0381 26.4149C22.173 26.7832 21.4012 27.3129 20.6167 27.8502C19.86 28.3683 19.0916 28.8935 18.2307 29.2668L18.1472 29.3024C18.0424 29.3463 17.9467 29.4252 17.8461 29.5178L17.7433 29.6142C15.9127 31.3389 14.2845 33.2374 12.983 35.3781L12.8581 35.5861C12.2725 36.5726 11.6874 37.5631 11.3843 38.6775L11.3559 38.7857C10.9048 40.5644 10.5424 42.3528 10.4453 44.1763L10.4367 44.353C10.361 46.0842 10.3036 47.796 10.9055 49.4411L10.9225 49.4863C11.1012 49.9492 11.381 50.2868 11.8288 50.502L11.9014 50.5363C12.6536 50.8869 13.4494 51.0927 14.2716 51.2443L14.6216 51.3097C16.37 51.6401 18.0974 52.0164 19.8616 52.1602L20.11 52.1796C22.676 52.3707 25.2464 52.286 27.8291 52.2948L27.9591 52.294C28.6081 52.2831 29.2432 52.1779 29.901 52.0935L29.9546 52.0858C30.2217 52.044 30.476 51.9501 30.7647 51.8699C31.0645 51.7867 31.3871 51.7244 31.7376 51.7941L31.8429 51.815L31.837 51.9222C31.8288 52.0711 31.8199 52.1974 31.8139 52.3193L31.8089 52.4404C31.7716 53.6898 32.0392 54.4405 32.5607 54.867C33.0878 55.2979 33.9086 55.4277 35.0533 55.3446L35.0945 55.3406C35.1907 55.3292 35.2871 55.3033 35.3986 55.2774L35.9076 55.1607C38.4528 54.5827 41.0043 54.0846 43.5233 53.4409L43.6631 53.4057C46.5996 52.6733 49.6057 52.4827 52.5546 52.0649L52.8446 52.0252C54.295 51.8336 55.7532 51.7425 57.2091 51.6638C58.7637 51.5798 60.3148 51.5099 61.8594 51.3477L62.117 51.3213C64.7798 51.0534 67.4684 50.9635 70.1529 51.0512L70.3365 51.056C70.525 51.0611 70.7254 51.0705 70.9149 51.1171L71.0366 51.1466C73.5931 51.754 76.193 51.7059 78.8151 51.6436L78.8922 51.6405C79.2718 51.6185 79.5714 51.5025 79.822 51.3194C80.0916 51.1226 80.3105 50.8438 80.5097 50.5054L80.5589 50.4207C81.0622 49.544 81.4083 48.5998 81.7002 47.5765L81.7005 47.5754L81.789 47.2803C81.8755 46.9945 81.955 46.7332 82.0188 46.4666L82.0462 46.3508C82.5942 43.9942 82.6659 41.5929 82.6145 39.1797L82.6091 38.9422C82.5756 37.5714 82.5417 36.1999 82.5279 34.8274L82.5233 34.2392C82.5164 33.0013 82.5127 31.7653 82.4616 30.5324L82.4507 30.2858C82.3769 28.7099 82.223 27.1403 82.1024 25.5647L82.0788 25.2495C81.9263 23.1718 81.9101 21.121 81.4474 19.1006L81.4012 18.9051C81.2929 18.4608 81.1302 18.1624 80.9022 17.989C80.6914 17.8288 80.4051 17.7607 80.0042 17.8107L79.9225 17.8223C78.521 18.0439 77.1145 18.2905 75.8332 18.8264L75.7095 18.8792C74.4889 19.4111 73.2078 19.8328 71.9734 20.3103C70.7335 20.7899 69.5278 21.3301 68.4277 22.107L68.3135 22.1876L68.2473 22.0644C68.1697 21.9199 68.1564 21.7747 68.1593 21.6433C68.1607 21.5785 68.1663 21.5136 68.1707 21.455C68.1742 21.4098 68.1771 21.3675 68.1779 21.3267L68.178 21.2863C68.1662 20.5947 68.2149 19.9427 68.027 19.3003L68.008 19.2382C67.9553 19.072 67.8418 18.9433 67.7091 18.7903C67.5905 18.6536 67.455 18.4956 67.3959 18.2871L67.3851 18.2447C67.1735 17.3064 66.5869 16.6114 65.9231 15.9386L65.7894 15.8043C65.0447 15.0616 64.2967 14.2535 63.8147 13.3349C63.2489 12.6858 62.7199 12.2974 62.1737 12.0399C61.6913 11.8124 61.1911 11.6847 60.6289 11.5721L60.3841 11.5246C59.8548 11.4243 59.4322 11.4107 59.0065 11.4159C58.6087 11.4207 58.1993 11.4423 57.7044 11.4226L57.6042 11.4181ZM80.2154 18.2862C80.3462 18.2899 80.4595 18.3202 80.5554 18.3923C80.6493 18.463 80.7135 18.5641 80.7653 18.684C80.817 18.8035 80.861 18.9527 80.9083 19.1294L80.9339 19.2265C81.1933 20.2313 81.3045 21.2483 81.378 22.2625C81.4541 23.3135 81.4893 24.353 81.6044 25.3899L81.6327 25.6524C81.9158 28.3641 81.9282 31.0822 82.0148 33.7832L82.0329 34.3662C82.1164 37.1842 82.1456 40.0107 81.9912 42.8377L81.9745 43.1301C81.8528 45.1889 81.3373 47.1286 80.6386 49.0305L80.5704 49.2145C80.4977 49.4087 80.4019 49.5954 80.3076 49.7747L80.2147 49.9515C80.0125 50.3406 79.7685 50.6306 79.4463 50.827C79.145 51.0107 78.785 51.1067 78.3463 51.1354L78.2575 51.1403C75.9792 51.2409 73.7496 50.9851 71.519 50.6957L70.5627 50.5705C68.7443 50.3323 66.881 50.3938 65.0384 50.6408L64.8601 50.6653C64.6775 50.6909 64.4691 50.7292 64.2637 50.7238L64.2227 50.7221C63.1375 50.661 62.0603 50.7499 60.9771 50.8644C59.9643 50.9715 58.9433 51.1014 57.9165 51.1482L57.7111 51.1565C55.9217 51.218 54.1319 51.335 52.3546 51.5677L52.1826 51.5906C49.2358 51.989 46.2961 52.2593 43.3974 52.9322L43.1171 52.9986C40.6658 53.5906 38.1729 54.0782 35.7125 54.6299L35.2208 54.7411C34.7568 54.847 34.2894 54.8402 33.837 54.8095L33.6441 54.7951C33.3364 54.7705 33.059 54.6808 32.8373 54.5084C32.6282 54.3459 32.4766 54.1163 32.3937 53.8184L32.3781 53.7579C32.1287 52.7188 32.0998 51.7816 32.8005 50.7519L33.1786 50.1992C34.0628 48.9111 34.9561 47.6313 35.7399 46.2825L35.767 46.2337C36.0372 45.729 35.9697 45.1983 35.9243 44.6107L35.917 44.5177L36.0045 44.4852C36.822 44.1808 37.4937 43.751 38.1764 43.3298L38.3161 43.2444C39.7637 42.3685 41.307 41.6946 42.839 41.0255L42.9491 40.9775L43.0436 40.9373C44.0226 40.5328 45.1036 40.4374 46.117 40.325L46.1778 40.3178C47.449 40.1607 48.3641 39.5343 49.1333 38.5654L49.1979 38.4855C49.5243 38.0898 49.8993 37.7445 50.2674 37.4058C50.6624 37.0424 51.0497 36.6864 51.3791 36.2745L51.3962 36.2537C51.5775 36.0422 51.8831 35.9059 52.1368 35.8439L52.194 35.8296C52.7826 35.6781 53.3173 35.4193 53.8374 35.1182C54.1059 34.9628 54.3693 34.7968 54.6344 34.6287C54.8988 34.461 55.1651 34.2911 55.4363 34.13L55.4834 34.1014C55.5963 34.0316 55.728 33.9403 55.8471 33.8388C55.9858 33.7208 56.0964 33.5984 56.1481 33.4883L56.1589 33.4652L56.1779 33.4483C56.5532 33.1147 56.8253 32.9168 57.117 32.7685C57.4066 32.6212 57.7111 32.5254 58.1421 32.3911L58.1591 32.3858L58.177 32.3855C59.8144 32.3599 61.3832 31.8503 62.8214 31.0141L62.9967 30.9107C64.8003 29.8311 66.3275 28.4305 67.4296 26.6279L67.4758 26.5499C67.9275 25.7653 68.0418 24.8512 68.0227 23.9234L68.0204 23.8307C68.0133 23.5944 68.0572 23.4017 68.1476 23.2262C68.2364 23.0535 68.3672 22.9037 68.5224 22.749L68.5814 22.6912C69.1946 22.1 69.9049 21.7148 70.6381 21.3988C71.0162 21.2359 71.4026 21.0905 71.7847 20.9454C72.1678 20.7999 72.5472 20.6546 72.9163 20.4904L73.0178 20.4466C73.2555 20.3474 73.5004 20.2662 73.7381 20.1853C74.012 20.0921 74.2775 19.999 74.5274 19.8771L74.684 19.8023C76.3048 19.0433 78.0429 18.7031 79.7539 18.3426L79.8205 18.3291C79.9726 18.2994 80.1031 18.2831 80.2154 18.2862ZM80.2084 18.5336C80.1223 18.5313 80.0128 18.544 79.8688 18.572L79.805 18.5849C78.0858 18.9472 76.3783 19.2823 74.7894 20.0264L74.6359 20.0996C74.3703 20.2292 74.0911 20.3266 73.8178 20.4196C73.5767 20.5017 73.3408 20.5801 73.1137 20.6749L73.017 20.7166C72.6407 20.884 72.2553 21.0316 71.8726 21.1769C71.4889 21.3226 71.1082 21.4658 70.7361 21.6262C70.0159 21.9365 69.336 22.3075 68.7532 22.8694L68.6971 22.9244C68.5473 23.0737 68.4387 23.2017 68.3677 23.3395C68.2983 23.4745 68.2619 23.625 68.2678 23.8232L68.2702 23.918C68.2898 24.8657 68.1745 25.8325 67.6904 26.6734L67.6408 26.7571C66.5145 28.5992 64.956 30.0265 63.1239 31.1231L62.9458 31.2282C61.4833 32.0785 59.8797 32.6028 58.199 32.6327C57.773 32.7655 57.4933 32.8548 57.2292 32.9891C56.9682 33.1218 56.718 33.3009 56.36 33.6177C56.2829 33.7674 56.147 33.9088 56.0076 34.0274C55.877 34.1386 55.7346 34.2372 55.6133 34.3122L55.5627 34.3429C55.2953 34.5017 55.0325 34.6694 54.767 34.8378C54.5021 35.0057 54.2348 35.1743 53.9614 35.3325C53.4317 35.6392 52.875 35.91 52.2557 36.0694L52.1956 36.0845C51.9725 36.1389 51.7339 36.2518 51.5982 36.3992L51.5725 36.4291C51.2293 36.8583 50.8277 37.2268 50.4351 37.588C50.0649 37.9287 49.7025 38.2629 49.3892 38.6428L49.3272 38.7194C48.5266 39.7278 47.5569 40.3966 46.2087 40.5635L46.1443 40.571C45.1184 40.6848 44.0772 40.7782 43.1388 41.1659L43.0482 41.2043L42.9381 41.2523C41.4036 41.9226 39.8754 42.5904 38.4445 43.4561L38.3063 43.5405C37.6528 43.9437 36.984 44.3717 36.1785 44.6838C36.2225 45.2212 36.2801 45.7992 35.9853 46.3505L35.9539 46.4068C35.165 47.7644 34.265 49.054 33.3821 50.34L33.0052 50.8912C32.3587 51.8412 32.3782 52.6977 32.6188 53.7001L32.6321 53.7516C32.7024 54.0046 32.8268 54.1868 32.9891 54.313C33.1636 54.4486 33.3911 54.5265 33.6639 54.5484L33.8547 54.5625C34.2991 54.5926 34.7368 54.5977 35.1657 54.4997L35.6599 54.3878C38.1314 53.8337 40.6047 53.3507 43.0589 52.7579L43.3409 52.6911C46.2558 52.0144 49.2165 51.7418 52.1494 51.3452L52.3224 51.3222C54.1101 51.0882 55.9083 50.9707 57.7025 50.9091L57.9058 50.9009C58.9217 50.8545 59.9311 50.726 60.9511 50.6182C62.0363 50.5035 63.1302 50.4127 64.2366 50.475L64.2717 50.4764C64.4476 50.481 64.6272 50.448 64.8257 50.4201L65.0055 50.3954C66.864 50.1463 68.7498 50.0833 70.5949 50.3251L71.5518 50.4503C73.7812 50.7395 75.9908 50.9925 78.2467 50.8929L78.3303 50.8883C78.7422 50.8613 79.06 50.7725 79.3174 50.6156C79.5912 50.4487 79.8076 50.198 79.995 49.8373L80.0893 49.6579C80.1825 49.4806 80.271 49.3082 80.3385 49.1278L80.4061 48.9451C81.0998 47.057 81.6076 45.1422 81.7274 43.1155L81.7439 42.8242C81.8978 40.0073 81.8687 37.1889 81.7854 34.3736L81.7674 33.7912C81.6805 31.081 81.6683 28.3777 81.3864 25.6785L81.3583 25.4173C81.2426 24.3748 81.2062 23.3181 81.1311 22.2804C81.058 21.2711 80.948 20.2715 80.6942 19.2885L80.6692 19.1935C80.6219 19.0169 80.5818 18.8835 80.5381 18.7824C80.4945 18.6817 80.452 18.6244 80.4065 18.5901C80.363 18.5574 80.3042 18.5363 80.2084 18.5336ZM39.1724 20.3991C40.0847 20.2608 40.7834 20.7033 41.4425 21.1508L41.4672 21.1681C41.5877 21.2552 41.6713 21.3564 41.718 21.4686C41.7649 21.5812 41.7713 21.6969 41.7499 21.8071L41.7453 21.829C41.6854 22.0907 41.6659 22.315 41.6564 22.5448C41.6482 22.7432 41.6474 22.9555 41.6333 23.1929L41.6263 23.2962C41.5745 23.9842 41.7962 24.4886 42.0265 25.2418L42.0588 25.3497C42.2235 25.9108 42.4318 26.7886 42.5198 27.6616L42.5334 27.7864C42.57 28.097 42.6367 28.5389 42.7048 29.0227C42.7823 29.5726 42.8612 30.1734 42.8963 30.6794L42.8999 30.7197C42.922 30.9201 43.0031 31.1006 43.1196 31.2849C43.2479 31.488 43.4028 31.6732 43.567 31.9031L43.6391 32.004L43.5379 32.076C43.1697 32.3377 42.8822 32.6696 42.6017 33.0221C42.3416 33.3491 42.084 33.6988 41.7793 34.0068L41.7178 34.0678C41.3503 34.4247 41.0822 34.848 40.8717 35.3164L40.8303 35.4107C40.7879 35.5098 40.7512 35.5797 40.7404 35.6475C40.7358 35.6767 40.7383 35.6958 40.7437 35.7094C40.7486 35.7218 40.7599 35.7401 40.7919 35.7612L40.8076 35.771C40.8423 35.791 40.8629 35.7926 40.8734 35.7918C40.8861 35.7909 40.9034 35.7852 40.9293 35.7645C40.9566 35.7427 40.9841 35.7121 41.0195 35.6713C41.0519 35.6339 41.0923 35.5861 41.1369 35.5465L41.1548 35.5295C41.196 35.4875 41.2345 35.4291 41.2761 35.3564C41.3197 35.2804 41.3714 35.1792 41.4248 35.0975C41.4798 35.0135 41.5511 34.9257 41.6514 34.8738C41.7579 34.8187 41.8804 34.8123 42.0178 34.8595L42.1259 34.8954C42.384 34.9786 42.6811 35.0621 42.9337 35.2036C43.2339 35.3717 43.4866 35.6273 43.5979 36.0692L43.6243 36.1696C43.7613 36.6695 43.9702 37.1415 44.15 37.6518C44.3331 38.1716 44.479 38.7161 44.4506 39.3148L44.4473 39.3729C44.4324 39.5976 44.3999 39.8015 44.2879 39.9532C44.1769 40.1035 44.0058 40.1811 43.7706 40.2088L43.7228 40.2137C43.2003 40.2589 42.7159 40.4585 42.2243 40.6841L42.0131 40.782C40.3497 41.5567 38.6967 42.3359 37.1221 43.2695L36.9699 43.3605C35.5753 44.199 33.9761 44.0495 32.6836 43.0707L32.6223 43.0235C30.8649 41.6464 30.0226 39.7956 29.5635 37.7061L29.5202 37.5032C29.327 36.5681 29.2814 35.6343 29.2772 34.7065C29.2732 33.8309 29.3056 32.9739 29.2884 32.1083L29.2842 31.9351C29.2824 31.8698 29.2887 31.7938 29.2909 31.7375C29.2932 31.6753 29.2919 31.6219 29.2811 31.5735C29.2707 31.5273 29.2514 31.485 29.2154 31.4453C29.1997 31.4281 29.1798 31.4105 29.1546 31.3927C28.5608 34.3434 28.6939 37.2071 29.6184 40.1255L29.6887 40.3475L29.4653 40.2815C29.2806 40.227 29.0954 40.1848 28.9089 40.143C28.7236 40.1014 28.5362 40.06 28.3534 40.0078C27.9976 39.9061 27.6505 39.761 27.3397 39.4816L27.3098 39.454C26.3111 38.5207 25.0367 38.3497 23.7265 38.2626L23.464 38.2461C22.1408 38.1665 20.8108 38.2004 19.4866 38.3293L19.2218 38.3564C19.1903 38.3597 19.1573 38.3624 19.1259 38.365C19.0938 38.3677 19.0628 38.3703 19.0323 38.3738C18.9703 38.3807 18.9175 38.3902 18.8751 38.4055C18.8333 38.4206 18.8097 38.4383 18.7963 38.4569C18.7839 38.474 18.7707 38.5046 18.7744 38.5649L18.7761 38.5827C18.7811 38.6209 18.7935 38.6369 18.8017 38.6447C18.8135 38.656 18.8357 38.6679 18.8781 38.6748C18.9205 38.6817 18.9716 38.682 19.0311 38.6796C19.0852 38.6775 19.1544 38.6726 19.2111 38.6731L19.9853 38.6817C20.7587 38.6904 21.5301 38.6968 22.3007 38.675L22.3981 38.673C22.8838 38.6668 23.3608 38.7155 23.831 38.7787C24.3366 38.8467 24.8256 38.9297 25.3249 38.9835L25.3674 38.9886C25.8063 39.0444 26.2141 39.2294 26.5926 39.538L26.7773 39.6886L26.5479 39.7532C26.2037 39.85 25.8846 39.7886 25.6186 39.7642L25.5661 39.7599C23.4244 39.6052 21.4959 40.3226 19.5898 41.2193L19.4055 41.3067C19.3279 41.3437 19.2728 41.3769 19.2432 41.4126C19.2305 41.428 19.2249 41.4411 19.2229 41.4537C19.221 41.4665 19.2214 41.4877 19.2349 41.5213L19.2415 41.5365C19.2569 41.5695 19.2724 41.5855 19.2835 41.5937C19.2958 41.6027 19.3115 41.6086 19.3352 41.6099C19.392 41.6131 19.4626 41.591 19.5585 41.5593L19.7222 41.5049C20.5412 41.2306 21.3652 40.926 22.2018 40.686L22.3027 40.6576C24.4214 40.0714 26.5528 40.158 28.6783 40.5967L28.7519 40.6132C29.5049 40.7944 30.0217 41.3207 30.5181 41.8016L30.8844 42.157C31.2505 42.5127 31.6158 42.87 31.9771 43.2313L32.0455 43.298C32.7586 43.9754 33.6486 44.2792 34.6179 44.435L34.6569 44.4417C35.057 44.5145 35.3651 44.7033 35.5001 44.9879C35.6375 45.2778 35.576 45.6242 35.3253 45.9656L35.3005 45.9985C34.9613 46.4385 34.7135 46.935 34.4342 47.436C34.1663 47.9166 33.8718 48.3958 33.4469 48.7935L33.4054 48.8317C33.3444 48.8869 33.2929 48.959 33.2399 49.0448C33.1919 49.1228 33.1354 49.2249 33.0779 49.311C32.9127 49.6085 32.7825 49.8643 32.6473 50.1016L32.5885 50.2028C32.2301 50.8088 31.7502 51.1156 31.0179 51.2865C28.0124 51.9878 24.9741 51.7467 21.9785 51.7052L21.6887 51.7019C19.5496 51.6823 17.4461 51.3025 15.3603 50.8936L14.9434 50.8115C14.1863 50.6621 13.4262 50.5125 12.682 50.2741L12.5334 50.2251C11.9773 50.0372 11.5798 49.7168 11.3731 49.1385L11.3537 49.0817C11.1129 48.3443 11.0025 47.6032 10.9635 46.8378L10.9566 46.6844C10.8516 43.9742 11.126 41.3065 11.86 38.6973L11.8879 38.6011C12.184 37.6089 12.7168 36.6973 13.2417 35.836L13.3683 35.6307C14.6864 33.5162 16.3131 31.6408 18.0995 29.9098L18.1682 29.8444C18.2423 29.776 18.3323 29.7031 18.4355 29.6626L18.5195 29.6291C19.3857 29.2786 20.1807 28.8009 20.9623 28.2871C21.7652 27.7591 22.5614 27.1876 23.3925 26.6905L23.5167 26.6157C24.1363 26.2405 24.7426 25.8403 25.357 25.4423C26.0113 25.0185 26.6738 24.5977 27.3647 24.2175L27.4609 24.165C28.457 23.6283 29.5019 23.2407 30.5547 22.8947C31.6457 22.536 32.7355 22.2248 33.806 21.8359L33.9681 21.7775C35.6454 21.1775 37.3649 20.7071 39.1287 20.4061L39.1724 20.3991ZM41.3034 21.3557C40.64 20.9052 40.0156 20.5214 39.209 20.6439L39.1704 20.6501C37.4225 20.9484 35.7169 21.4148 34.0516 22.0106L33.8905 22.0686C32.8166 22.4588 31.7094 22.7758 30.632 23.1299C29.5842 23.4743 28.5553 23.8565 27.5784 24.3829L27.484 24.4344C26.8015 24.8101 26.1453 25.2266 25.4916 25.6501C24.8797 26.0465 24.2689 26.4495 23.6446 26.8276L23.5196 26.9029C22.6939 27.3969 21.9134 27.958 21.0983 28.4939C20.3124 29.0106 19.5013 29.4989 18.6123 29.8586L18.5261 29.893C18.4635 29.9175 18.4033 29.9648 18.3385 30.0243L18.2718 30.0876C16.4954 31.809 14.883 33.6688 13.5784 35.7616L13.4531 35.9649C12.9275 36.8274 12.411 37.7142 12.1253 38.6715L12.0983 38.7644C11.372 41.3463 11.0999 43.9879 11.204 46.6748L11.2107 46.8252C11.249 47.5749 11.3567 48.2933 11.5891 49.0048L11.6056 49.0535C11.7823 49.5493 12.1144 49.8223 12.6127 49.9906L12.7579 50.0384C13.4849 50.2713 14.2303 50.4184 14.9892 50.5682C14.9899 50.5684 14.9906 50.5685 14.9914 50.5687L15.4084 50.6507C17.4939 51.0595 19.5767 51.435 21.6911 51.4544L21.9831 51.4577C25.0003 51.4993 27.9929 51.7382 30.9616 51.0454L31.0246 51.0302C31.6676 50.8694 32.0678 50.5969 32.3755 50.0767L32.4333 49.977C32.5666 49.7431 32.6901 49.4989 32.8634 49.1871L32.866 49.1825L32.8691 49.178L32.8897 49.1467C32.9366 49.0737 32.9765 49.0005 33.0292 48.9149C33.0857 48.8234 33.1518 48.7273 33.2393 48.6482L33.2778 48.6126C33.6728 48.2429 33.9521 47.7923 34.218 47.3154C34.4897 46.828 34.7505 46.3064 35.1044 45.8474L35.1259 45.8188C35.3421 45.5247 35.3623 45.2753 35.2764 45.094C35.1879 44.9075 34.9673 44.7498 34.6133 44.6854L34.5787 44.6795C33.5844 44.5196 32.6389 44.2031 31.8753 43.4779L31.802 43.4064C31.4418 43.0463 31.0777 42.69 30.712 42.3346L30.3458 41.9795C29.8375 41.4869 29.3684 41.0161 28.6941 40.8539L28.6282 40.8392C26.5283 40.4058 24.4385 40.3235 22.3686 40.8962L22.27 40.9241C21.4384 41.1626 20.6303 41.4619 19.8019 41.7393L19.636 41.7945C19.5551 41.8211 19.4349 41.8635 19.3213 41.8571C19.2599 41.8536 19.1954 41.8362 19.137 41.7933C19.0861 41.756 19.0467 41.7045 19.0172 41.6414L19.0052 41.6136C18.9784 41.5469 18.9683 41.4806 18.9782 41.4162C18.9881 41.3516 19.0166 41.2979 19.0526 41.2545C19.1206 41.1725 19.222 41.1198 19.299 41.0832L19.484 40.9955C21.3985 40.0947 23.3761 39.3535 25.584 39.5129L25.6438 39.5178C25.8413 39.5352 26.0177 39.5646 26.1999 39.5579C25.924 39.3795 25.6367 39.2724 25.3359 39.2341L25.2983 39.2297C24.7962 39.1756 24.291 39.0903 23.798 39.0241C23.3321 38.9615 22.869 38.9145 22.4013 38.9205L22.3078 38.9225C21.5325 38.9444 20.7561 38.9379 19.982 38.9292L19.2088 38.9206C19.1598 38.9202 19.1084 38.9244 19.0408 38.9271C18.9786 38.9295 18.9066 38.9304 18.8381 38.9191C18.7694 38.9079 18.6926 38.8828 18.6309 38.824C18.5749 38.7706 18.5423 38.7 18.5309 38.6166L18.5274 38.5801C18.5209 38.4758 18.5427 38.385 18.5959 38.3116C18.648 38.2397 18.7206 38.198 18.7911 38.1726C18.861 38.1474 18.9366 38.1353 19.0046 38.1276C19.0391 38.1238 19.0735 38.1209 19.1054 38.1182C19.1077 38.1181 19.1099 38.1179 19.1122 38.1177C19.1421 38.1152 19.1695 38.1129 19.1955 38.1101L19.4626 38.0829C20.7986 37.9528 22.1416 37.9185 23.4789 37.9989L23.7408 38.0154C25.0543 38.1022 26.4115 38.2757 27.4788 39.2732L27.5315 39.3206C27.7973 39.5506 28.0959 39.6767 28.4215 39.7697C28.5871 39.8171 28.7577 39.8553 28.9348 39.8951C28.9442 39.8972 28.9537 39.8993 28.9631 39.9014C29.0785 39.9273 29.1963 39.954 29.3154 39.9841C28.4225 37.0456 28.3207 34.1564 28.9453 31.1812L28.9758 31.0365L29.1128 31.0918C29.2369 31.142 29.3307 31.2042 29.3985 31.2788C29.4672 31.3543 29.5042 31.437 29.5226 31.5194C29.5406 31.5997 29.5408 31.6788 29.5382 31.7469C29.5354 31.821 29.5302 31.8733 29.5318 31.9282L29.5359 32.1016C29.553 32.9698 29.5208 33.8472 29.5248 34.7054C29.529 35.6269 29.5744 36.5417 29.7627 37.453L29.8053 37.6529C30.2572 39.7098 31.0789 41.4994 32.7751 42.8286L32.8329 42.8731C34.0518 43.7965 35.5418 43.9302 36.8424 43.1482L36.9957 43.0567C38.5825 42.1159 40.2461 41.3318 41.9086 40.5575L42.1193 40.4598C42.6144 40.2324 43.1344 40.0161 43.7013 39.967L43.7419 39.9629C43.9379 39.9399 44.0331 39.8813 44.0886 39.8061C44.1541 39.7174 44.1856 39.5794 44.2003 39.3566L44.2033 39.3031C44.2294 38.752 44.0957 38.2431 43.9164 37.734C43.7454 37.2486 43.526 36.7477 43.3849 36.2328L43.3578 36.1297C43.2658 35.7644 43.0639 35.5602 42.8127 35.4195C42.5828 35.2908 42.3231 35.2197 42.0535 35.1323L41.9374 35.0937C41.8533 35.0648 41.8023 35.0745 41.7651 35.0938C41.7218 35.1162 41.6792 35.1609 41.632 35.2331C41.5833 35.3075 41.5444 35.3862 41.491 35.4795C41.4477 35.5551 41.3963 35.6369 41.3305 35.7039L41.3013 35.7316C41.2732 35.7566 41.2462 35.7878 41.2124 35.8269C41.2105 35.8291 41.2085 35.8313 41.2066 35.8335C41.173 35.8724 41.1314 35.92 41.0837 35.958C41.0346 35.9972 40.9709 36.033 40.8913 36.0388C40.8209 36.0439 40.7518 36.0245 40.6843 35.9857L40.6555 35.9678C40.5882 35.9234 40.5398 35.8674 40.5133 35.8C40.4872 35.7338 40.4866 35.6674 40.4959 35.6088C40.513 35.5009 40.572 35.385 40.6027 35.3133L40.6459 35.2149C40.8658 34.7256 41.1501 34.274 41.5453 33.8902L41.6041 33.832C41.8949 33.538 42.1399 33.205 42.408 32.8679C42.6667 32.5428 42.9442 32.2184 43.2939 31.9489C43.1631 31.7724 43.0214 31.593 42.9103 31.4172C42.783 31.2156 42.6815 30.9988 42.6538 30.7473L42.6492 30.6966C42.6148 30.2001 42.5371 29.6071 42.4597 29.0572C42.3922 28.5788 42.3246 28.1304 42.2874 27.8138L42.2734 27.6865C42.1873 26.8325 41.983 25.9704 41.8214 25.42L41.7898 25.3142C41.5688 24.5914 41.3231 24.0254 41.3794 23.2776L41.3862 23.1764C41.4 22.9453 41.4003 22.7456 41.409 22.5345C41.4188 22.2963 41.4394 22.0555 41.5039 21.7737L41.5093 21.7464C41.5195 21.6828 41.5136 21.6218 41.4895 21.5638C41.4652 21.5055 41.4194 21.4431 41.3397 21.3818L41.3034 21.3557ZM44.0632 32.1552C44.1711 32.057 44.2841 32.0284 44.3963 32.0382C44.4512 32.043 44.5028 32.0567 44.5477 32.0703C44.5733 32.0781 44.5938 32.0848 44.6133 32.0911L44.6733 32.1096L44.773 32.1389C45.7989 32.4516 46.6644 33.0698 47.5222 33.6272L47.6269 33.6963C48.1453 34.043 48.5929 34.4078 49.1667 34.6492L49.1898 34.6594C49.426 34.7678 49.582 34.9808 49.6844 35.2154C49.7906 35.4583 49.846 35.739 49.8727 35.9936L49.8788 36.0557C49.9072 36.367 49.9065 36.6855 49.9193 36.9851L49.9215 37.0363L49.8868 37.0741C49.5932 37.3941 49.304 37.6894 49.0242 37.9758C48.779 38.2268 48.5411 38.4708 48.3116 38.7204L48.2137 38.8277C47.7063 39.3896 47.0778 39.6559 46.3737 39.7651L46.3054 39.7751C45.8596 39.8376 45.4132 39.8977 44.9604 39.9598L44.8632 39.9732L44.828 39.8816C44.8154 39.8488 44.8033 39.8301 44.7832 39.7875C44.7704 39.7606 44.7389 39.695 44.7573 39.6236L44.7745 39.5542C44.9435 38.8386 44.8554 38.1715 44.6629 37.5152C44.5633 37.1758 44.4361 36.8407 44.3027 36.5032C44.1864 36.2093 44.0647 35.912 43.9545 35.6127L43.908 35.4844C43.8574 35.342 43.8207 35.2491 43.7746 35.1752C43.7311 35.1055 43.6768 35.0491 43.5851 34.9889C43.4902 34.9265 43.3572 34.8613 43.1562 34.7746C42.9559 34.6881 42.6962 34.5837 42.3496 34.4414L42.2165 34.3867L42.2903 34.2634C42.7686 33.4636 43.4082 32.8128 44.0417 32.1759L44.0632 32.1552ZM44.3748 32.2848C44.3325 32.2811 44.2905 32.2871 44.2397 32.3298L44.2173 32.3505C43.6156 32.9553 43.0298 33.5526 42.5784 34.2675C42.8575 34.3817 43.0787 34.4715 43.2543 34.5473C43.4567 34.6346 43.6068 34.7069 43.7211 34.7819C43.8386 34.8591 43.9198 34.9402 43.9847 35.0442C44.0469 35.1439 44.0914 35.261 44.1413 35.4014L44.187 35.5277C44.2954 35.8221 44.4152 36.1145 44.533 36.4122C44.6669 36.7509 44.7975 37.0947 44.9004 37.4455C45.1052 38.1435 45.2023 38.8752 45.0012 39.6687C45.0025 39.6718 45.0044 39.6761 45.007 39.6816C45.0098 39.6877 45.0126 39.6932 45.0157 39.6992C45.0162 39.7002 45.0167 39.7012 45.0172 39.7022C45.4396 39.6444 45.8554 39.5882 46.2711 39.5299L46.3356 39.5205C46.999 39.4176 47.57 39.1711 48.0301 38.6618L48.1293 38.5529C48.3619 38.2999 48.6023 38.0533 48.8472 37.8027C48.8539 37.7958 48.8606 37.7889 48.8674 37.782C49.1302 37.513 49.3982 37.2388 49.6699 36.944C49.6586 36.6473 49.6583 36.364 49.6323 36.0796L49.6265 36.0194C49.6012 35.7785 49.5497 35.5253 49.4576 35.3145C49.3709 35.116 49.2541 34.9676 49.1017 34.8916L49.0707 34.8775C48.4717 34.6255 47.9829 34.2329 47.4866 33.9004L47.3873 33.8348C46.4867 33.2496 45.6306 32.6372 44.6059 32.3479C44.5633 32.3358 44.5087 32.3172 44.4756 32.3071C44.436 32.2951 44.4039 32.2873 44.3748 32.2848ZM54.4272 33.3884C54.7763 33.3849 55.1638 33.3969 55.3903 33.4648L55.7062 33.5593L55.4061 33.696C54.9019 33.9255 54.6318 34.2037 54.3453 34.4726C54.0642 34.7365 53.7712 34.9865 53.2477 35.1323L53.1963 35.146C53.0019 35.1962 52.6834 35.342 52.3588 35.5097C52.0419 35.6734 51.7314 35.8517 51.5486 35.9651C51.3816 36.1058 51.2013 36.2822 51.0166 36.4651C50.831 36.6487 50.6408 36.839 50.462 36.9968L50.2017 37.2263L50.2579 36.8839C50.2758 36.7749 50.2669 36.6093 50.2343 36.405C50.2022 36.2036 50.149 35.9754 50.0856 35.7464C49.9585 35.2873 49.7934 34.8359 49.6838 34.6049L49.5964 34.4211L49.7999 34.4281C50.5824 34.4555 51.123 34.2272 51.6731 33.9758C52.224 33.7241 52.79 33.4458 53.5942 33.4171L53.7322 33.4111C53.9027 33.4031 54.1615 33.391 54.4272 33.3884ZM54.4298 33.636C54.1695 33.6386 53.9202 33.6502 53.7495 33.6582C53.7478 33.6583 53.746 33.6583 53.7443 33.6584L53.6031 33.6646C52.8552 33.6912 52.3322 33.9468 51.776 34.201C51.2628 34.4355 50.726 34.6655 49.9856 34.6772C50.093 34.9382 50.2213 35.3086 50.3243 35.6804C50.3892 35.9149 50.4448 36.1526 50.4788 36.366C50.4926 36.4523 50.5028 36.5366 50.5088 36.6163C50.605 36.5242 50.7038 36.4264 50.8036 36.3275C50.8165 36.3147 50.8295 36.3019 50.8424 36.2891C51.0285 36.1049 51.2183 35.9189 51.3962 35.7697L51.4029 35.764L51.4104 35.7595C51.5982 35.6426 51.9186 35.4584 52.2451 35.2897C52.5681 35.1228 52.9096 34.9644 53.1345 34.9063L53.1803 34.8941C53.6476 34.7642 53.9059 34.5456 54.1758 34.2922C54.3938 34.0876 54.6213 33.8576 54.9656 33.6487C54.8044 33.6372 54.618 33.6341 54.4298 33.636ZM48.1624 15.9726C48.7422 15.1408 49.6229 15.0066 50.4724 15.0425L50.5582 15.0467L50.7255 15.0561C51.5658 15.105 52.4571 15.1913 53.2133 15.7502L53.2554 15.7807C53.4675 15.9307 53.7013 16.0473 53.9451 16.1605C54.2019 16.2798 54.4742 16.397 54.7261 16.5428L54.9811 16.6911C56.2535 17.436 57.485 18.2382 58.4884 19.4354L58.5592 19.521C59.9778 21.2653 60.2833 23.2488 60.2895 25.3202L60.2892 25.5241C60.2804 26.9775 60.4438 28.4965 59.9909 29.9706L59.9689 30.0407C59.8449 30.427 59.6804 30.779 59.4658 31.1109L59.4222 31.177C59.308 31.3468 59.201 31.4921 59.0548 31.6183C58.9169 31.7374 58.7495 31.8351 58.5173 31.9262L58.47 31.9444C58.3768 31.9793 58.2475 32.0056 58.1075 32.0329C57.9633 32.0609 57.7989 32.0915 57.6216 32.1347C57.2716 32.22 56.8808 32.3528 56.531 32.6009C56.4556 32.6892 56.3367 32.7425 56.2204 32.7779C56.0916 32.817 55.9407 32.8415 55.7918 32.8578C55.5369 32.8856 55.2556 32.8916 55.0952 32.8993L55.0343 32.9028C54.4447 32.9447 53.5691 33.1707 52.8323 33.39C52.4658 33.499 52.1368 33.6055 51.8995 33.6847C51.7808 33.7242 51.6852 33.757 51.6192 33.7799C51.5862 33.7913 51.5606 33.8001 51.5434 33.8062C51.5347 33.8092 51.5282 33.8115 51.5238 33.8131C51.5216 33.8138 51.52 33.8145 51.5189 33.8148L51.5177 33.8153L51.5108 33.8177L51.5041 33.8193L51.5036 33.8194L51.5022 33.8198C51.5011 33.82 51.4993 33.8205 51.4971 33.821C51.4926 33.822 51.4861 33.8234 51.4776 33.8254C51.4605 33.8292 51.4357 33.8347 51.4039 33.8415C51.3402 33.8552 51.2488 33.874 51.1371 33.8949C50.914 33.9366 50.6089 33.9868 50.2823 34.0203C49.9565 34.0537 49.6052 34.071 49.2909 34.0453C48.9914 34.0209 48.7042 33.956 48.5088 33.8099L48.4902 33.7955C47.2993 32.8433 46.0524 32.0445 44.5599 31.6998L44.4888 31.6837C43.7576 31.5227 43.1488 31.0428 43.1115 30.2597L43.1101 30.2222C43.0997 29.7886 43.0419 29.3308 42.9856 28.8897C42.9298 28.4524 42.8749 28.0278 42.8749 27.6741C42.8749 27.5707 42.8335 27.3436 42.7614 27.0413C42.6907 26.7445 42.5942 26.3895 42.4914 26.0392C42.3886 25.6889 42.2797 25.3447 42.1848 25.0697C42.1373 24.9321 42.0936 24.8127 42.056 24.7189C42.0269 24.6464 42.0034 24.5938 41.9861 24.5607L41.9709 24.534L41.9588 24.515L41.9541 24.4928C41.6606 23.1053 41.7022 21.817 42.6008 20.6855L42.6899 20.5716C42.7782 20.457 42.8647 20.3403 42.9521 20.2225C43.0682 20.066 43.1859 19.9076 43.3094 19.7536C43.5566 19.4453 43.8304 19.1496 44.1736 18.9073L44.2112 18.8796C44.3876 18.7442 44.3976 18.6489 44.3804 18.5923C44.3684 18.5526 44.3372 18.5051 44.2767 18.4526C44.2167 18.4005 44.1339 18.3488 44.0308 18.2997L43.9359 18.2546L43.965 18.1537C44.0583 17.8293 44.1966 17.5456 44.4048 17.3313C44.6151 17.1149 44.89 16.9764 45.2416 16.9324L45.2757 16.9277C45.6259 16.8764 45.8814 16.7191 46.0587 16.4274L46.0858 16.3846C46.2247 16.1749 46.4059 16.0335 46.5974 15.9227C46.7955 15.8081 47.0222 15.7176 47.2136 15.6258L47.2371 15.6151C47.3538 15.5634 47.4632 15.5474 47.5674 15.5633C47.6769 15.5801 47.7689 15.6302 47.8477 15.6886C47.925 15.7458 47.9973 15.817 48.0627 15.8799C48.0967 15.9126 48.1296 15.9437 48.1624 15.9726ZM60.1426 11.8035C60.7768 11.7913 61.1373 11.8576 61.7495 12.0818L61.7897 12.0972C62.2058 12.2614 62.6646 12.6228 63.0151 13.065L63.1311 13.2133C63.7351 13.9939 64.6911 15.3433 65.5609 16.2898L65.7745 16.5232C66.2731 17.073 66.7558 17.6681 66.8995 18.4753L66.9061 18.5072C66.9234 18.5814 66.9546 18.6522 66.9938 18.6979C68.0252 19.8993 67.8514 21.2172 67.4361 22.5147L67.3952 22.6402C67.3434 22.7965 67.348 22.9503 67.3889 23.1189L67.4053 23.1882C67.7319 24.6186 67.3808 25.8797 66.5031 27.0323L66.4603 27.088C65.1475 28.7745 63.6047 30.1742 61.5996 31.0042L61.5037 31.0433C61.1756 31.1751 60.8137 31.2511 60.397 31.3732L60.1975 31.4317L60.2412 31.2284C60.4199 30.3956 60.6022 29.659 60.7337 28.9095L60.755 28.7826C60.9383 27.6398 60.8967 26.4844 60.8435 25.3226L60.8198 24.8059C60.7757 23.8184 60.7065 22.8287 60.4218 21.8843L60.3936 21.793C59.8683 20.138 58.8611 18.8178 57.556 17.6939L57.4287 17.5856C56.301 16.639 54.9902 15.9706 53.6753 15.3342L53.1119 15.0627C51.7443 14.4038 50.5055 13.9864 49.0755 14.7312L48.9374 14.5278L49.0249 14.4512C49.2153 14.2818 49.313 14.177 49.3631 14.111C49.3912 14.0741 49.4017 14.053 49.4057 14.0428C49.4087 14.0351 49.409 14.032 49.4103 14.0201C49.4121 14.0039 49.4155 13.9654 49.4433 13.9249C49.4662 13.8916 49.4994 13.8658 49.534 13.8425C49.6048 13.7948 49.7371 13.7223 49.983 13.5923L49.9871 13.5901L49.9913 13.5883C50.5411 13.3485 51.0162 13.2006 51.5167 13.1063L51.9175 13.0298C52.851 12.8483 53.7695 12.6403 54.6451 12.2748L54.7063 12.2498C55.3403 11.9955 56.0051 11.8888 56.6946 11.9387L56.7974 11.9455C57.3114 11.9755 57.8254 11.9529 58.3437 11.9171C58.8938 11.879 59.4539 11.8255 60.0121 11.807L60.1426 11.8035ZM60.145 12.0511L60.0203 12.0545C59.4678 12.0729 58.9198 12.1255 58.3609 12.1641C57.8395 12.2002 57.313 12.2236 56.7828 12.1927L56.6767 12.1857C56.0253 12.1385 55.3981 12.2391 54.7983 12.4796L54.7404 12.5033C53.8412 12.8786 52.9014 13.0907 51.964 13.2729L51.5624 13.3496C51.0835 13.4399 50.6275 13.5812 50.0947 13.8132C49.8467 13.9444 49.7293 14.0094 49.6723 14.0478C49.6647 14.0529 49.659 14.057 49.6549 14.0601C49.6526 14.0774 49.6482 14.1025 49.6361 14.1333C49.6216 14.17 49.5984 14.21 49.5627 14.2573C50.858 13.8354 52.0236 14.2635 53.2194 14.8396L53.7817 15.1107C55.0982 15.7477 56.4354 16.4286 57.588 17.396L57.7176 17.5063C59.0481 18.6521 60.0871 20.0089 60.6296 21.7181L60.6588 21.8125C60.9533 22.7897 61.023 23.8068 61.0671 24.7948L61.0908 25.3096C61.1442 26.4712 61.1871 27.652 60.9994 28.8222L60.9775 28.9522C60.8559 29.6455 60.69 30.3344 60.527 31.079C60.8724 30.9837 61.1464 30.9201 61.4114 30.8136L61.5047 30.7755C63.4582 29.9669 64.969 28.6008 66.2649 26.9359L66.306 26.8826C67.1456 25.7801 67.4721 24.5926 67.1637 23.2428L67.1483 23.1773C67.0997 22.9774 67.0899 22.7742 67.1602 22.5623L67.2005 22.4387C67.602 21.1842 67.7451 19.9974 66.8507 18.9124L66.8059 18.8591C66.7331 18.7743 66.688 18.6629 66.6645 18.5614L66.6557 18.5187C66.525 17.7839 66.0868 17.2373 65.5929 16.6917L65.3786 16.4573C64.5022 15.5036 63.5271 14.1302 62.9344 13.3636L62.821 13.2188C62.4906 12.8017 62.0652 12.4722 61.6996 12.3278L61.6644 12.3144C61.0805 12.1006 60.7497 12.0392 60.145 12.0511ZM43.1225 27.6741C43.1225 28.0067 43.1741 28.411 43.2302 28.8507C43.2305 28.8532 43.2308 28.8558 43.2312 28.8583C43.2872 29.2971 43.3468 29.7677 43.3576 30.2162L43.3605 30.2765C43.4042 30.8928 43.8858 31.2974 44.5419 31.4418L44.6158 31.4585C46.1613 31.8154 47.4426 32.6409 48.6449 33.6021L48.6713 33.6218C48.8094 33.7181 49.0316 33.7757 49.3111 33.7986C49.6041 33.8225 49.9386 33.8067 50.2571 33.774C50.5748 33.7414 50.8728 33.6924 51.0916 33.6515C51.2009 33.6311 51.2902 33.6127 51.352 33.5994C51.3829 33.5928 51.4069 33.5875 51.4231 33.5839C51.4307 33.5822 51.4366 33.5807 51.4406 33.5798L51.4412 33.5797C51.4457 33.5781 51.4525 33.5757 51.4613 33.5726C51.4789 33.5664 51.5049 33.5574 51.5382 33.5458C51.605 33.5227 51.7015 33.4897 51.8211 33.4498C52.0603 33.37 52.392 33.2627 52.7617 33.1527C53.4974 32.9337 54.3968 32.6999 55.0167 32.6559L55.0861 32.6518C55.2593 32.6432 55.5098 32.6395 55.7649 32.6117C55.9073 32.5961 56.0408 32.5737 56.1483 32.541C56.2607 32.5068 56.3221 32.4679 56.3468 32.435L56.3582 32.4199L56.3735 32.4088C56.7633 32.1285 57.1942 31.984 57.563 31.8941C57.7473 31.8492 57.9184 31.8174 58.0601 31.7898C58.206 31.7614 58.3131 31.7388 58.383 31.7126L58.4266 31.6958C58.6401 31.6121 58.7814 31.5273 58.893 31.4309C59.013 31.3273 59.105 31.2051 59.2168 31.0389L59.2578 30.9765C59.4601 30.6637 59.6155 30.3316 59.7332 29.9651L59.7545 29.8971C60.1928 28.4708 60.0326 27.0143 60.0416 25.5226L60.0419 25.3207C60.0358 23.2721 59.7333 21.3568 58.3668 19.6769L58.2987 19.5944C57.3237 18.4312 56.1238 17.6471 54.8565 16.905L54.6021 16.7571C54.3628 16.6186 54.1065 16.5086 53.8408 16.3852C53.5948 16.2709 53.344 16.1465 53.1122 15.9826L53.0662 15.9493C52.3278 15.4036 51.4429 15.3435 50.5445 15.2939C49.6556 15.2449 48.8182 15.3737 48.297 16.2185L48.2285 16.3296L48.1212 16.2552C48.0347 16.1953 47.9586 16.1232 47.8912 16.0585C47.8865 16.0539 47.8819 16.0495 47.8773 16.045C47.8133 15.9835 47.7578 15.9301 47.7004 15.8876C47.6402 15.8431 47.5857 15.8166 47.53 15.808C47.4827 15.8008 47.4256 15.8052 47.3528 15.8348L47.3206 15.8491C47.1064 15.9518 46.9094 16.0282 46.7214 16.137C46.5509 16.2356 46.4033 16.3534 46.292 16.5217L46.2703 16.556C46.0504 16.918 45.7264 17.1116 45.3126 17.1726L45.2723 17.1781C44.9724 17.2156 44.7507 17.3306 44.5824 17.5038C44.4307 17.6599 44.317 17.8689 44.2328 18.1252C44.3103 18.168 44.3802 18.2146 44.439 18.2657C44.5206 18.3365 44.5872 18.4211 44.6174 18.5204C44.6792 18.7244 44.5723 18.9142 44.3603 19.0773L44.3164 19.1096C44 19.3331 43.7428 19.6089 43.5026 19.9085C43.3824 20.0584 43.2673 20.2131 43.1509 20.3699C43.1465 20.376 43.142 20.382 43.1376 20.388C43.055 20.4993 42.9716 20.6117 42.8859 20.7229L42.7947 20.8395C41.9658 21.8832 41.9106 23.0763 42.1922 24.4216C42.2206 24.4714 42.2525 24.5436 42.2858 24.6268C42.3254 24.7257 42.3706 24.8491 42.4188 24.9888C42.5153 25.2683 42.6252 25.6164 42.7289 25.9694C42.8325 26.3224 42.9303 26.6818 43.0022 26.9838C43.0729 27.2802 43.1225 27.5364 43.1225 27.6741Z" fill="black"/>
<path d="M41.3034 21.3557C40.64 20.9052 40.0156 20.5214 39.209 20.6439L39.1704 20.6501C37.4225 20.9484 35.7169 21.4148 34.0516 22.0106L33.8905 22.0686C32.8166 22.4588 31.7094 22.7758 30.632 23.1299C29.5842 23.4743 28.5553 23.8565 27.5784 24.3829L27.484 24.4344C26.8015 24.8101 26.1453 25.2266 25.4916 25.6501C24.8797 26.0465 24.2689 26.4495 23.6446 26.8276L23.5196 26.9029C22.6939 27.3969 21.9134 27.958 21.0983 28.4939C20.3124 29.0106 19.5013 29.4989 18.6123 29.8586L18.5261 29.893C18.4635 29.9175 18.4033 29.9648 18.3385 30.0243L18.2718 30.0876C16.4954 31.809 14.883 33.6688 13.5784 35.7616L13.4531 35.9649C12.9275 36.8274 12.411 37.7142 12.1253 38.6715L12.0983 38.7644C11.372 41.3463 11.0999 43.9879 11.204 46.6748L11.2107 46.8252C11.249 47.5749 11.3567 48.2933 11.5891 49.0048L11.6056 49.0535C11.7823 49.5493 12.1144 49.8223 12.6127 49.9906L12.7579 50.0384C13.4849 50.2713 14.2303 50.4184 14.9892 50.5682L14.9914 50.5687L15.4084 50.6507C17.4939 51.0595 19.5767 51.435 21.6911 51.4544L21.9831 51.4577C25.0003 51.4993 27.9929 51.7382 30.9616 51.0454L31.0246 51.0302C31.6676 50.8694 32.0678 50.5969 32.3755 50.0767L32.4333 49.977C32.5666 49.7431 32.6901 49.4989 32.8634 49.1871L32.866 49.1825L32.8691 49.178L32.8897 49.1467C32.9366 49.0737 32.9765 49.0005 33.0292 48.9149C33.0857 48.8234 33.1518 48.7273 33.2393 48.6482L33.2778 48.6126C33.6728 48.2429 33.9521 47.7923 34.218 47.3154C34.4897 46.828 34.7505 46.3064 35.1044 45.8474L35.1259 45.8188C35.3421 45.5247 35.3623 45.2753 35.2764 45.094C35.1879 44.9075 34.9673 44.7498 34.6133 44.6854L34.5787 44.6795C33.5844 44.5196 32.6389 44.2031 31.8753 43.4779L31.802 43.4064C31.4418 43.0463 31.0777 42.69 30.712 42.3346L30.3458 41.9795C29.8375 41.4869 29.3684 41.0161 28.6941 40.8539L28.6282 40.8392C26.5283 40.4058 24.4385 40.3235 22.3686 40.8962L22.27 40.9241C21.4384 41.1626 20.6303 41.4619 19.8019 41.7393L19.636 41.7945C19.5551 41.8211 19.4349 41.8635 19.3213 41.8571C19.2599 41.8536 19.1954 41.8362 19.137 41.7933C19.0861 41.756 19.0467 41.7045 19.0172 41.6414L19.0052 41.6136C18.9784 41.5469 18.9683 41.4806 18.9782 41.4162C18.9881 41.3516 19.0166 41.2979 19.0526 41.2545C19.1206 41.1725 19.222 41.1198 19.299 41.0832L19.484 40.9955C21.3985 40.0947 23.3761 39.3535 25.584 39.5129L25.6438 39.5178C25.8413 39.5352 26.0177 39.5646 26.1999 39.5579C25.924 39.3795 25.6367 39.2724 25.3359 39.2341L25.2983 39.2297C24.7962 39.1756 24.291 39.0903 23.798 39.0241C23.3321 38.9615 22.869 38.9145 22.4013 38.9205L22.3078 38.9225C21.5325 38.9444 20.7561 38.9379 19.982 38.9292L19.2088 38.9206C19.1598 38.9202 19.1084 38.9244 19.0408 38.9271C18.9786 38.9295 18.9066 38.9304 18.8381 38.9191C18.7694 38.9079 18.6926 38.8828 18.6309 38.824C18.5749 38.7706 18.5423 38.7 18.5309 38.6166L18.5274 38.5801C18.5209 38.4758 18.5427 38.385 18.5959 38.3116C18.648 38.2397 18.7206 38.198 18.7911 38.1726C18.861 38.1474 18.9366 38.1353 19.0046 38.1276C19.0391 38.1238 19.0735 38.1209 19.1054 38.1182L19.1122 38.1177C19.1421 38.1152 19.1695 38.1129 19.1955 38.1101L19.4626 38.0829C20.7986 37.9528 22.1416 37.9185 23.4789 37.9989L23.7408 38.0154C25.0543 38.1022 26.4115 38.2757 27.4788 39.2732L27.5315 39.3206C27.7973 39.5506 28.0959 39.6767 28.4215 39.7697C28.5871 39.8171 28.7577 39.8553 28.9348 39.8951L28.9631 39.9014C29.0785 39.9273 29.1963 39.954 29.3154 39.9841C28.4225 37.0456 28.3207 34.1564 28.9453 31.1812L28.9758 31.0365L29.1128 31.0918C29.2369 31.142 29.3307 31.2042 29.3985 31.2788C29.4672 31.3543 29.5042 31.437 29.5226 31.5194C29.5406 31.5997 29.5408 31.6788 29.5382 31.7469C29.5354 31.821 29.5302 31.8733 29.5318 31.9282L29.5359 32.1016C29.553 32.9698 29.5208 33.8472 29.5248 34.7054C29.529 35.6269 29.5744 36.5417 29.7627 37.453L29.8053 37.6529C30.2572 39.7098 31.0789 41.4994 32.7751 42.8286L32.8329 42.8731C34.0518 43.7965 35.5418 43.9302 36.8424 43.1482L36.9957 43.0567C38.5825 42.1159 40.2461 41.3318 41.9086 40.5575L42.1193 40.4598C42.6144 40.2324 43.1344 40.0161 43.7013 39.967L43.7419 39.9629C43.9379 39.9399 44.0331 39.8813 44.0886 39.8061C44.1541 39.7174 44.1856 39.5794 44.2003 39.3566L44.2033 39.3031C44.2294 38.752 44.0957 38.2431 43.9164 37.734C43.7454 37.2486 43.526 36.7477 43.3849 36.2328L43.3578 36.1297C43.2658 35.7644 43.0639 35.5602 42.8127 35.4195C42.5828 35.2908 42.3231 35.2197 42.0535 35.1323L41.9374 35.0937C41.8533 35.0648 41.8023 35.0745 41.7651 35.0938C41.7218 35.1162 41.6792 35.1609 41.632 35.2331C41.5833 35.3075 41.5444 35.3862 41.491 35.4795C41.4477 35.5551 41.3963 35.6369 41.3305 35.7039L41.3013 35.7316C41.2732 35.7566 41.2462 35.7878 41.2124 35.8269L41.2066 35.8335C41.173 35.8724 41.1314 35.92 41.0837 35.958C41.0346 35.9972 40.9709 36.033 40.8913 36.0388C40.8209 36.0439 40.7518 36.0245 40.6843 35.9857L40.6555 35.9678C40.5882 35.9234 40.5398 35.8674 40.5133 35.8C40.4872 35.7338 40.4866 35.6674 40.4959 35.6088C40.513 35.5009 40.572 35.385 40.6027 35.3133L40.6459 35.2149C40.8658 34.7256 41.1501 34.274 41.5453 33.8902L41.6041 33.832C41.8949 33.538 42.1399 33.205 42.408 32.8679C42.6667 32.5428 42.9442 32.2184 43.2939 31.9489C43.1631 31.7724 43.0214 31.593 42.9103 31.4172C42.783 31.2156 42.6815 30.9988 42.6538 30.7473L42.6492 30.6966C42.6148 30.2001 42.5371 29.6071 42.4597 29.0572C42.3922 28.5788 42.3246 28.1304 42.2874 27.8138L42.2734 27.6865C42.1873 26.8325 41.983 25.9704 41.8214 25.42L41.7898 25.3142C41.5688 24.5914 41.3231 24.0254 41.3794 23.2776L41.3862 23.1764C41.4 22.9453 41.4003 22.7456 41.409 22.5345C41.4188 22.2963 41.4394 22.0555 41.5039 21.7737L41.5093 21.7464C41.5195 21.6828 41.5136 21.6218 41.4895 21.5638C41.4652 21.5055 41.4194 21.4431 41.3397 21.3818L41.3034 21.3557Z" fill="#E2F9FB"/>
<path d="M60.145 12.0511L60.0203 12.0545C59.4678 12.0729 58.9198 12.1255 58.3609 12.1641C57.8395 12.2002 57.313 12.2236 56.7828 12.1927L56.6767 12.1857C56.0253 12.1385 55.3981 12.2391 54.7983 12.4796L54.7404 12.5033C53.8412 12.8786 52.9014 13.0907 51.964 13.2729L51.5624 13.3496C51.0835 13.4399 50.6275 13.5812 50.0947 13.8132C49.8467 13.9444 49.7293 14.0094 49.6723 14.0478C49.6647 14.0529 49.659 14.057 49.6549 14.0601C49.6526 14.0774 49.6482 14.1025 49.6361 14.1333C49.6216 14.17 49.5984 14.21 49.5627 14.2573C50.858 13.8354 52.0236 14.2635 53.2194 14.8396L53.7817 15.1107C55.0982 15.7477 56.4354 16.4286 57.588 17.396L57.7176 17.5063C59.0481 18.6521 60.0871 20.0089 60.6296 21.7181L60.6588 21.8125C60.9533 22.7897 61.023 23.8068 61.0671 24.7948L61.0908 25.3096C61.1442 26.4712 61.1871 27.652 60.9994 28.8222L60.9775 28.9522C60.8559 29.6455 60.69 30.3344 60.527 31.079C60.8724 30.9837 61.1464 30.9201 61.4114 30.8136L61.5047 30.7755C63.4582 29.9669 64.969 28.6008 66.2649 26.9359L66.306 26.8826C67.1456 25.7801 67.4721 24.5926 67.1637 23.2428L67.1483 23.1773C67.0997 22.9774 67.0899 22.7742 67.1602 22.5623L67.2005 22.4387C67.602 21.1842 67.7451 19.9974 66.8507 18.9124L66.8059 18.8591C66.7331 18.7743 66.688 18.6629 66.6645 18.5614L66.6557 18.5187C66.525 17.7839 66.0868 17.2373 65.5929 16.6917L65.3786 16.4573C64.5022 15.5036 63.5271 14.1302 62.9344 13.3636L62.821 13.2188C62.4906 12.8017 62.0652 12.4722 61.6996 12.3278L61.6644 12.3144C61.0805 12.1006 60.7497 12.0392 60.145 12.0511Z" fill="#E2F9FB"/>
<path d="M44.3748 32.2848C44.3325 32.2811 44.2905 32.2871 44.2397 32.3298L44.2173 32.3505C43.6156 32.9553 43.0298 33.5526 42.5784 34.2675C42.8575 34.3817 43.0787 34.4715 43.2543 34.5473C43.4567 34.6346 43.6068 34.7069 43.7211 34.7819C43.8386 34.8591 43.9198 34.9402 43.9847 35.0442C44.0469 35.1439 44.0914 35.261 44.1413 35.4014L44.187 35.5277C44.2954 35.8221 44.4152 36.1145 44.533 36.4122C44.6669 36.7509 44.7975 37.0947 44.9004 37.4455C45.1052 38.1435 45.2023 38.8752 45.0012 39.6687C45.0025 39.6718 45.0044 39.6761 45.007 39.6816C45.0098 39.6877 45.0126 39.6932 45.0157 39.6992L45.0172 39.7022C45.4396 39.6444 45.8554 39.5882 46.2711 39.5299L46.3356 39.5205C46.999 39.4176 47.57 39.1711 48.0301 38.6618L48.1293 38.5529C48.3619 38.2999 48.6023 38.0533 48.8472 37.8027L48.8674 37.782C49.1302 37.513 49.3982 37.2388 49.6699 36.944C49.6586 36.6473 49.6583 36.364 49.6323 36.0796L49.6265 36.0194C49.6012 35.7785 49.5497 35.5253 49.4576 35.3145C49.3709 35.116 49.2541 34.9676 49.1017 34.8916L49.0707 34.8775C48.4717 34.6255 47.9829 34.2329 47.4866 33.9004L47.3873 33.8348C46.4867 33.2496 45.6306 32.6372 44.6059 32.3479C44.5633 32.3358 44.5087 32.3172 44.4756 32.3071C44.436 32.2951 44.4039 32.2873 44.3748 32.2848Z" fill="#E2F9FB"/>
<path d="M54.4298 33.636C54.1695 33.6386 53.9202 33.6502 53.7495 33.6582L53.7443 33.6584L53.6031 33.6646C52.8552 33.6912 52.3322 33.9468 51.776 34.201C51.2628 34.4355 50.726 34.6655 49.9856 34.6772C50.093 34.9382 50.2213 35.3086 50.3243 35.6804C50.3892 35.9149 50.4448 36.1526 50.4788 36.366C50.4926 36.4523 50.5028 36.5366 50.5088 36.6163C50.605 36.5242 50.7038 36.4264 50.8036 36.3275L50.8424 36.2891C51.0285 36.1049 51.2183 35.9189 51.3962 35.7697L51.4029 35.764L51.4104 35.7595C51.5982 35.6426 51.9186 35.4584 52.2451 35.2897C52.5681 35.1228 52.9096 34.9644 53.1345 34.9063L53.1803 34.8941C53.6476 34.7642 53.9059 34.5456 54.1758 34.2922C54.3938 34.0876 54.6213 33.8576 54.9656 33.6487C54.8044 33.6372 54.618 33.6341 54.4298 33.636Z" fill="#FEE2D6"/>
<path d="M43.2312 28.8583C43.2872 29.2971 43.3468 29.7677 43.3576 30.2162L43.3605 30.2765C43.4042 30.8928 43.8858 31.2974 44.5419 31.4418L44.6158 31.4585C46.1613 31.8154 47.4426 32.6409 48.6449 33.6021L48.6713 33.6218C48.8094 33.7181 49.0316 33.7757 49.3111 33.7986C49.6041 33.8225 49.9386 33.8067 50.2571 33.774C50.5748 33.7414 50.8728 33.6924 51.0916 33.6515C51.2009 33.6311 51.2902 33.6127 51.352 33.5994C51.3829 33.5928 51.4069 33.5875 51.4231 33.5839C51.4307 33.5822 51.4366 33.5807 51.4406 33.5798L51.4412 33.5797L51.4613 33.5726C51.4789 33.5664 51.5049 33.5574 51.5382 33.5458C51.605 33.5227 51.7015 33.4897 51.8211 33.4498C52.0603 33.37 52.392 33.2627 52.7617 33.1527C53.4974 32.9337 54.3968 32.6999 55.0167 32.6559L55.0861 32.6518C55.2593 32.6432 55.5098 32.6395 55.7649 32.6117C55.9073 32.5961 56.0408 32.5737 56.1483 32.541C56.2607 32.5068 56.3221 32.4679 56.3468 32.435L56.3582 32.4199L56.3735 32.4088C56.7633 32.1285 57.1942 31.984 57.563 31.8941C57.7473 31.8492 57.9184 31.8174 58.0601 31.7898C58.206 31.7614 58.3131 31.7388 58.383 31.7126L58.4266 31.6958C58.6401 31.6121 58.7814 31.5273 58.893 31.4309C59.013 31.3273 59.105 31.2051 59.2168 31.0389L59.2578 30.9765C59.4601 30.6637 59.6155 30.3316 59.7332 29.9651L59.7545 29.8971C60.1928 28.4708 60.0326 27.0143 60.0416 25.5226L60.0419 25.3207C60.0358 23.2721 59.7333 21.3568 58.3668 19.6769L58.2987 19.5944C57.3237 18.4312 56.1238 17.6471 54.8565 16.905L54.6021 16.7571C54.3628 16.6186 54.1065 16.5086 53.8408 16.3852C53.5948 16.2709 53.344 16.1465 53.1122 15.9826L53.0662 15.9493C52.3278 15.4036 51.4429 15.3435 50.5445 15.2939C49.6556 15.2449 48.8182 15.3737 48.297 16.2185L48.2285 16.3296L48.1212 16.2552C48.0347 16.1953 47.9586 16.1232 47.8912 16.0585L47.8773 16.045C47.8133 15.9835 47.7578 15.9301 47.7004 15.8876C47.6402 15.8431 47.5857 15.8166 47.53 15.808C47.4827 15.8008 47.4256 15.8052 47.3528 15.8348L47.3206 15.8491C47.1064 15.9518 46.9094 16.0282 46.7214 16.137C46.5509 16.2356 46.4033 16.3534 46.292 16.5217L46.2703 16.556C46.0504 16.918 45.7264 17.1116 45.3126 17.1726L45.2723 17.1781C44.9724 17.2156 44.7507 17.3306 44.5824 17.5038C44.4307 17.6599 44.317 17.8689 44.2328 18.1252C44.3103 18.168 44.3802 18.2146 44.439 18.2657C44.5206 18.3365 44.5872 18.4211 44.6174 18.5204C44.6792 18.7244 44.5723 18.9142 44.3603 19.0773L44.3164 19.1096C44 19.3331 43.7428 19.6089 43.5026 19.9085C43.3824 20.0584 43.2673 20.2131 43.1509 20.3699L43.1376 20.388C43.055 20.4993 42.9716 20.6117 42.8859 20.7229L42.7947 20.8395C41.9658 21.8832 41.9106 23.0763 42.1922 24.4216C42.2206 24.4714 42.2525 24.5436 42.2858 24.6268C42.3254 24.7257 42.3706 24.8491 42.4188 24.9888C42.5153 25.2683 42.6252 25.6164 42.7289 25.9694C42.8325 26.3224 42.9303 26.6818 43.0022 26.9838C43.0729 27.2802 43.1225 27.5364 43.1225 27.6741C43.1225 28.0067 43.1741 28.411 43.2302 28.8507L43.2312 28.8583Z" fill="#FEE2D6"/>
<path d="M49.849 21.9898C49.1126 21.2376 49.0591 20.3049 48.99 19.3812C48.9776 19.2158 49.04 19.037 49.249 19.0192C49.4289 19.0038 49.4909 19.1643 49.5359 19.2963C49.6084 19.5094 49.6779 19.7285 49.7069 19.9505C49.8134 20.7678 50.137 21.4274 50.8783 21.8728C51.3267 22.1423 51.603 22.5576 51.4945 23.298C50.8862 22.8159 50.3842 22.418 49.849 21.9898Z" fill="black"/>
<path d="M53.7946 29.6691C54.0262 29.9327 54.2467 30.1472 54.4431 30.3817C54.5516 30.5114 54.5999 30.6877 54.4644 30.8306C54.343 30.9588 54.1917 30.8904 54.0688 30.8152C53.6281 30.5453 53.1942 30.2671 53.0543 29.7162C52.9132 29.1609 52.7523 28.6102 52.6298 28.0509C52.5874 27.8572 52.6096 27.6392 52.6473 27.4409C52.6855 27.2397 52.7716 27.0201 53.0397 27.057C53.2854 27.0907 53.2786 27.3079 53.2745 27.4921C53.2576 28.2478 53.48 28.946 53.7946 29.6691Z" fill="black"/>
<path d="M55.1885 27.5497C54.8939 27.1621 54.3813 27.1482 54.1193 26.7848C54.4531 26.4246 54.976 26.5001 55.4756 26.9631C56.3043 27.731 56.6281 28.9957 56.081 29.61C55.7908 28.9113 55.7286 28.1423 55.1885 27.5497Z" fill="black"/>
<path d="M53.2745 21.189C53.1788 21.5234 53.4311 22.2413 52.851 22.365C53.0202 20.991 51.5512 19.5178 50.8783 18.2799C51.5741 18.5414 53.2845 19.6834 53.2745 21.189Z" fill="black"/>
<path d="M49.2502 27.0364C49.9738 27.4387 50.0649 27.6764 49.7366 28.2286C48.4762 27.4724 48.018 26.3273 48.6162 25.4004C48.984 25.5415 48.9588 25.8659 48.9667 26.1663C48.9748 26.471 48.9166 26.7901 49.2502 27.0364Z" fill="black"/>
<path d="M45.4283 25.0818C45.3871 25.4945 45.3912 26.3569 45.7378 26.5054C46.1711 26.6911 47.0376 28.1766 47.0995 28.3623C47.1614 28.548 47.1614 28.548 47.2233 29.1051C47.2852 29.6621 47.8993 30.659 48.4563 30.7209C47.7755 30.5353 47.7803 28.7956 47.9041 28.548C48.0279 28.3004 47.2852 26.753 46.6662 26.2579C46.0225 26.1588 45.4489 25.5151 45.4283 25.0818Z" fill="black"/>
<path d="M45.4317 24.9581C45.4965 24.9598 45.549 25.0113 45.5521 25.076C45.5603 25.249 45.6854 25.4908 45.9015 25.7079C46.1012 25.9086 46.3611 26.0697 46.631 26.1257L46.6852 26.1355L46.7009 26.139C46.7164 26.1436 46.7309 26.151 46.7436 26.1612L46.7747 26.1868C47.0962 26.4589 47.4323 26.9712 47.6738 27.439C47.7996 27.6828 47.9031 27.9211 47.9676 28.1166C47.9998 28.214 48.0234 28.3043 48.0345 28.3811C48.0446 28.4506 48.0488 28.5356 48.015 28.6034C48.0089 28.6155 47.9974 28.6531 47.987 28.7231C47.9772 28.7891 47.9697 28.8733 47.9662 28.9704C47.9592 29.1645 47.9681 29.4037 48.0012 29.6405C48.0345 29.8785 48.0914 30.1071 48.177 30.2841C48.2635 30.463 48.3689 30.5688 48.489 30.6016C48.5513 30.6186 48.5901 30.6806 48.5781 30.7441C48.5667 30.8036 48.5142 30.8456 48.4548 30.8447L48.4428 30.844C48.271 30.8249 48.1062 30.7358 47.9595 30.6169C47.8116 30.4971 47.6733 30.34 47.5532 30.1702C47.3152 29.8335 47.1344 29.4253 47.1004 29.1188C47.0692 28.8382 47.0541 28.7034 47.0393 28.6148C47.0255 28.532 47.0127 28.4933 46.9821 28.4015C46.9779 28.3888 46.9621 28.3534 46.9312 28.2939C46.9018 28.2371 46.8621 28.1647 46.8143 28.0817C46.7189 27.9156 46.5927 27.709 46.4551 27.5025C46.3172 27.2957 46.1692 27.0912 46.0305 26.928C45.961 26.8464 45.8953 26.7768 45.8354 26.7229C45.782 26.6748 45.7377 26.6434 45.7033 26.6259L45.6891 26.6193C45.5618 26.5647 45.4791 26.4507 45.4246 26.3291C45.3694 26.2059 45.3355 26.0584 45.3151 25.9096C45.2742 25.6114 45.284 25.2823 45.3053 25.0696L45.3071 25.0577C45.3187 24.9992 45.3709 24.9565 45.4317 24.9581ZM45.5403 25.6648C45.5444 25.7359 45.5509 25.807 45.5604 25.8759C45.5791 26.0128 45.6088 26.1345 45.6505 26.2277C45.693 26.3224 45.7407 26.372 45.7867 26.3917L45.8138 26.4043C45.8771 26.4362 45.9403 26.4843 46.0011 26.539C46.0718 26.6026 46.1454 26.6809 46.2191 26.7676C46.3665 26.941 46.5203 27.1542 46.661 27.3652C46.8019 27.5765 46.931 27.7878 47.029 27.9583C47.078 28.0435 47.1195 28.1191 47.151 28.1799C47.181 28.2378 47.2058 28.2894 47.2171 28.3232C47.2484 28.4171 47.2664 28.4712 47.2836 28.5741C47.2998 28.6712 47.3157 28.815 47.3464 29.0914C47.3742 29.342 47.5315 29.7107 47.7553 30.0272C47.7913 30.0782 47.8289 30.127 47.8672 30.1735C47.8155 30.0156 47.7797 29.8439 47.756 29.6749C47.7207 29.4226 47.7113 29.1689 47.7188 28.9614C47.7225 28.8577 47.7306 28.7639 47.7421 28.6866C47.7529 28.6134 47.7687 28.5424 47.7935 28.4927C47.7907 28.4984 47.7987 28.4809 47.7894 28.4165C47.7812 28.3594 47.7622 28.2844 47.7325 28.1942C47.6732 28.0145 47.5755 27.7885 47.4538 27.5526C47.2147 27.0894 46.8956 26.6125 46.6132 26.3745C46.2719 26.3126 45.958 26.1157 45.726 25.8826C45.6579 25.8142 45.5954 25.7407 45.5403 25.6648Z" fill="black"/>
</svg>
