<svg width="224" height="171" viewBox="0 0 224 171" fill="none" xmlns="http://www.w3.org/2000/svg">
<path d="M184.745 120.801C183.524 120.801 182.513 120.457 181.712 119.771C180.949 119.046 180.568 118.13 180.568 117.024C180.568 115.918 180.949 115.021 181.712 114.335C182.513 113.61 183.524 113.248 184.745 113.248C185.966 113.248 186.977 113.61 187.778 114.335C188.579 115.021 188.979 115.918 188.979 117.024C188.979 118.13 188.579 119.046 187.778 119.771C186.977 120.457 185.966 120.801 184.745 120.801ZM184.745 154.39C183.753 154.39 182.971 154.123 182.399 153.589C181.865 153.055 181.598 152.311 181.598 151.357V128.24C181.598 127.286 181.865 126.542 182.399 126.008C182.971 125.474 183.753 125.207 184.745 125.207C185.737 125.207 186.519 125.474 187.091 126.008C187.701 126.542 188.007 127.286 188.007 128.24V151.357C188.007 152.311 187.701 153.055 187.091 153.589C186.519 154.123 185.737 154.39 184.745 154.39Z" fill="black"/>
<path d="M145.605 170.927C144.613 170.927 143.831 170.66 143.259 170.126C142.725 169.591 142.458 168.848 142.458 167.894V128.24C142.458 127.286 142.725 126.542 143.259 126.008C143.831 125.474 144.613 125.207 145.605 125.207C146.597 125.207 147.379 125.493 147.951 126.065C148.523 126.599 148.809 127.324 148.809 128.24V130.242C150.411 128.526 152.147 127.267 154.016 126.466C155.885 125.626 158.041 125.207 160.482 125.207C165.022 125.207 168.627 126.504 171.297 129.098C173.967 131.692 175.302 135.24 175.302 139.741C175.302 142.717 174.692 145.311 173.471 147.523C172.251 149.736 170.515 151.433 168.264 152.616C166.014 153.798 163.362 154.39 160.311 154.39C157.907 154.39 155.79 154.008 153.959 153.245C152.128 152.444 150.43 151.185 148.866 149.469V167.894C148.866 168.809 148.561 169.534 147.951 170.068C147.379 170.64 146.597 170.927 145.605 170.927ZM159.166 149.24C162.218 149.24 164.583 148.401 166.262 146.722C167.978 145.044 168.837 142.697 168.837 139.684C168.837 136.708 167.997 134.419 166.319 132.817C164.64 131.177 162.256 130.357 159.166 130.357C155.924 130.357 153.387 131.196 151.556 132.874C149.725 134.515 148.809 136.804 148.809 139.741C148.809 142.64 149.744 144.948 151.613 146.665C153.482 148.381 156 149.24 159.166 149.24Z" fill="black"/>
<path d="M107.495 170.927C106.503 170.927 105.721 170.66 105.149 170.126C104.614 169.591 104.347 168.848 104.347 167.894V128.24C104.347 127.286 104.614 126.542 105.149 126.008C105.721 125.474 106.503 125.207 107.495 125.207C108.486 125.207 109.268 125.493 109.841 126.065C110.413 126.599 110.699 127.324 110.699 128.24V130.242C112.301 128.526 114.037 127.267 115.906 126.466C117.775 125.626 119.931 125.207 122.372 125.207C126.912 125.207 130.517 126.504 133.187 129.098C135.857 131.692 137.192 135.24 137.192 139.741C137.192 142.717 136.582 145.311 135.361 147.523C134.141 149.736 132.405 151.433 130.154 152.616C127.903 153.798 125.252 154.39 122.2 154.39C119.797 154.39 117.68 154.008 115.849 153.245C114.018 152.444 112.32 151.185 110.756 149.469V167.894C110.756 168.809 110.451 169.534 109.841 170.068C109.268 170.64 108.486 170.927 107.495 170.927ZM121.056 149.24C124.108 149.24 126.473 148.401 128.151 146.722C129.868 145.044 130.726 142.697 130.726 139.684C130.726 136.708 129.887 134.419 128.209 132.817C126.53 131.177 124.146 130.357 121.056 130.357C117.813 130.357 115.277 131.196 113.446 132.874C111.615 134.515 110.699 136.804 110.699 139.741C110.699 142.64 111.634 144.948 113.503 146.665C115.372 148.381 117.89 149.24 121.056 149.24Z" fill="black"/>
<path d="M82.0879 154.39C78.4639 154.39 75.5647 153.531 73.3903 151.815C71.2159 150.098 70.1287 147.809 70.1287 144.948C70.1287 142.125 71.2731 139.875 73.5619 138.196C75.8889 136.518 79.017 135.678 82.9462 135.678C86.761 135.678 89.7365 136.556 91.8727 138.311V136.136C91.8727 134.229 91.2624 132.779 90.0416 131.787C88.8591 130.757 87.1043 130.242 84.7773 130.242C81.4966 130.242 78.6737 130.967 76.3086 132.417C75.5075 132.874 74.7827 133.103 74.1341 133.103C73.4475 133.103 72.8181 132.798 72.2458 132.188C71.8644 131.768 71.6736 131.272 71.6736 130.7C71.6736 129.785 72.0742 129.06 72.8753 128.526C74.2486 127.496 75.9843 126.695 78.0824 126.122C80.1805 125.512 82.374 125.207 84.6628 125.207C88.9735 125.207 92.3496 126.18 94.791 128.125C97.2324 130.071 98.4532 132.76 98.4532 136.193V151.529C98.4532 152.406 98.1671 153.112 97.5948 153.646C97.0226 154.142 96.2406 154.39 95.2488 154.39C94.2569 154.39 93.4749 154.142 92.9027 153.646C92.3686 153.15 92.1016 152.463 92.1016 151.586V150.499C89.8509 153.093 86.513 154.39 82.0879 154.39ZM83.4612 149.698C86.0552 149.698 88.1152 149.278 89.6411 148.439C91.167 147.561 91.9299 146.379 91.9299 144.891C91.9299 143.441 91.1861 142.297 89.6983 141.458C88.2106 140.618 86.1697 140.199 83.5756 140.199C81.3249 140.199 79.5702 140.618 78.3113 141.458C77.0906 142.297 76.4802 143.46 76.4802 144.948C76.4802 146.474 77.0715 147.657 78.2541 148.496C79.4748 149.297 81.2105 149.698 83.4612 149.698Z" fill="black"/>
<path d="M32.7911 154.39C31.7992 154.39 31.0172 154.123 30.445 153.589C29.8728 153.055 29.5867 152.311 29.5867 151.357V129.155C29.5867 124.158 31.1316 120.248 34.2216 117.425C37.3497 114.602 41.6413 113.19 47.0964 113.19C50.6822 113.19 53.7912 113.839 56.4234 115.136C59.0556 116.395 61.0583 118.226 62.4316 120.629C63.8431 123.033 64.5488 125.875 64.5488 129.155V151.357C64.5488 152.311 64.2627 153.055 63.6905 153.589C63.1183 154.123 62.3363 154.39 61.3444 154.39C60.3526 154.39 59.5515 154.123 58.9412 153.589C58.3689 153.016 58.0828 152.273 58.0828 151.357V128.984C58.0828 125.588 57.1291 122.975 55.2218 121.144C53.3144 119.313 50.6059 118.398 47.0964 118.398C43.5868 118.398 40.8592 119.332 38.9137 121.201C37.0064 123.033 36.0527 125.627 36.0527 128.984V151.357C36.0527 152.273 35.7475 153.016 35.1371 153.589C34.5649 154.123 33.7829 154.39 32.7911 154.39Z" fill="black"/>
<path d="M195.216 87.4391C194.501 89.9425 193.647 92.2603 192.379 94.4132C191.419 96.0447 190.217 97.1915 188.139 97.2409C181.863 97.3899 175.598 97.5069 169.434 95.9912C168.877 95.8541 168.279 95.8628 167.698 95.8439C161.177 95.6311 154.646 95.863 148.183 96.5417C140.88 97.3084 133.517 97.2022 126.254 98.2314C119.159 99.2367 111.998 99.6789 104.99 101.47C98.6535 103.089 92.2077 104.323 85.8267 105.802C85.5426 105.867 85.2565 105.946 84.9676 105.967C79.5411 106.36 76.8267 104.778 77.0049 98.8191C77.0164 98.434 77.046 98.0494 77.0713 97.59C75.5544 97.2885 74.2434 98.1186 72.835 98.2993C71.1961 98.5095 69.5739 98.7821 67.9114 98.7764C61.6399 98.755 55.3623 98.9686 49.1024 98.4581C44.6457 98.0946 40.2818 97.104 35.8924 96.2947C33.8786 95.9233 31.9156 95.4122 30.0589 94.5201C28.8895 93.9583 28.1753 93.0613 27.7343 91.856C26.292 87.9143 26.4333 83.8209 26.6115 79.7456C26.8071 75.2728 27.6874 70.8969 28.7874 66.5596C29.4922 63.7801 30.9393 61.3337 32.3615 58.9381C35.4943 53.661 39.4603 49.0056 43.9312 44.7933C44.2477 44.4951 44.5812 44.1649 44.9706 44.0017C49.1269 42.2598 52.3596 38.9572 56.5015 37.194C56.8544 37.0437 57.1886 36.8169 57.484 36.569C63.0594 31.8894 69.5738 29.1224 76.4608 27.0104C80.682 25.7159 84.8174 24.135 89.1031 23.0434C90.8887 22.5886 92.6928 22.1878 94.5075 21.8717C96.5927 21.5084 98.4519 22.267 100.154 23.3726C100.955 23.8931 101.426 23.7633 101.963 23.0471C102.779 21.9599 103.653 20.9158 104.531 19.8767C104.775 19.5875 104.808 19.3217 104.798 18.9559C104.722 16.373 106.031 14.6065 108.57 14.0309C109.815 13.7487 112.329 10.7962 112.912 10.0795C113.496 9.36281 114.216 9.01599 115.393 8.04931C115.925 7.75743 122.217 4.4301 126.782 3.94073C127.45 3.86921 128.136 3.68019 128.743 3.39463C130.718 2.46529 134.9 1.64755 138.134 1.80999C140.658 1.93679 142.18 1.5831 144.728 2.06563C147.863 2.65932 150.274 3.31022 153.004 6.45372C154.118 8.59001 155.862 10.4786 157.625 12.237C159.317 13.9247 160.914 15.6837 161.466 18.1337C161.674 19.0544 162.637 19.5321 162.928 20.4522C163.441 22.0677 163.315 23.7182 163.343 25.3647C163.352 25.9272 163.173 26.51 163.472 27.0663C168.717 23.3617 174.948 21.9302 180.693 19.4263C183.83 18.0589 187.289 17.4528 190.698 16.9136C192.887 16.5672 193.989 17.5331 194.513 19.686C195.719 24.6301 195.749 29.6622 196.119 34.6932C196.409 38.6465 196.81 42.608 196.996 46.576C197.141 49.6831 197.15 52.7978 197.168 55.9095C197.188 59.6054 197.279 63.2987 197.37 66.9934C197.516 72.9722 197.374 78.9464 195.97 84.8103C195.767 85.6582 195.496 86.4897 195.216 87.4391ZM87.291 80.3438C87.3993 81.744 87.5841 83.1354 86.8176 84.4546C84.6987 88.1012 82.2399 91.5367 79.8759 95.0107C78.2875 97.3447 78.3447 99.4594 78.9223 101.866C79.266 103.298 80.2783 103.98 81.647 104.089C82.8514 104.185 84.0734 104.243 85.2764 103.968C91.4722 102.553 97.7225 101.35 103.891 99.8602C110.959 98.153 118.141 97.5022 125.296 96.5346C129.633 95.9482 134 95.6585 138.361 95.5087C143.503 95.332 148.573 94.194 153.741 94.4849C154.219 94.5118 154.708 94.4205 155.187 94.3531C159.687 93.7204 164.253 93.5452 168.712 94.1294C174.732 94.9183 180.695 95.7402 186.805 95.4706C189.002 95.3736 190.254 94.5926 191.173 92.8246C191.464 92.2642 191.777 91.7081 191.997 91.1191C193.72 86.5116 194.996 81.8298 195.29 76.858C195.725 69.5159 195.62 62.1718 195.385 54.8455C195.174 48.2602 195.15 41.6621 194.419 35.0779C193.875 30.1748 194.081 25.1927 192.786 20.3594C192.339 18.6937 192.09 18.3596 190.406 18.7144C186.231 19.5941 182.038 20.414 178.15 22.3093C176.934 22.9021 175.581 23.2081 174.342 23.7596C170.826 25.324 166.949 26.1558 164.069 29.0255C163.35 29.7421 162.94 30.3356 162.971 31.3602C163.041 33.7179 162.772 36.0945 161.535 38.1169C158.823 42.5524 155.034 45.9619 150.567 48.5592C147.141 50.5512 143.394 51.7711 139.474 51.8324C137.431 52.469 136.701 52.708 134.95 54.2647C134.652 54.8985 133.753 55.5504 133.156 55.9048C130.616 57.4132 128.255 59.2564 125.297 59.9786C124.708 60.1224 124.032 60.4382 123.669 60.8925C122.083 62.8758 119.949 64.3094 118.374 66.2934C116.494 68.6616 114.231 70.1999 111.066 70.5509C108.584 70.8262 105.998 71.0544 103.681 72.0668C103.594 72.1045 103.508 72.1423 103.421 72.1801C99.6893 73.8102 95.9512 75.443 92.4635 77.5944C90.8604 78.5833 89.2509 79.6141 87.291 80.3438ZM80.0381 91.2987C80.31 90.8959 80.515 90.4191 80.8649 90.1024C82.8998 88.2605 83.6638 85.5804 85.298 83.4603C86.4948 81.9077 85.7441 80.5408 83.8735 80.2401C81.4839 79.856 79.2553 79.089 77.4866 77.3201C76.3525 76.1859 75.2016 75.0685 74.0497 73.9523C72.827 72.7676 71.628 71.5531 69.8558 71.1874C64.7951 70.1429 59.7397 69.954 54.7244 71.3928C52.6265 71.9946 50.5771 72.7644 48.5026 73.4485C48.0856 73.586 47.6036 73.7533 47.3775 73.1905C47.1873 72.7173 47.5606 72.4856 47.9249 72.3121C52.5682 70.0997 57.3043 68.255 62.5977 68.6372C63.304 68.6882 64.0121 68.8569 64.8126 68.6316C63.9293 67.9113 62.9865 67.497 61.9764 67.3881C59.6152 67.1337 57.288 66.5942 54.8855 66.6621C52.4554 66.7308 50.0215 66.681 47.5895 66.6578C47.0905 66.653 46.315 66.8393 46.2712 66.1287C46.2234 65.3529 47.0262 65.3887 47.5864 65.3288C50.9294 64.9713 54.2918 64.8666 57.6375 65.0677C60.9324 65.2658 64.2891 65.5659 66.8872 67.9941C68.2953 69.31 70.0687 69.3517 71.8531 69.8786C69.618 62.8233 69.3314 55.9001 70.8302 48.7608C71.881 49.1852 71.6197 49.9033 71.6354 50.4702C71.7568 54.8306 71.2863 59.1946 72.1859 63.5482C73.2367 68.6334 75.1916 73.1003 79.3945 76.3939C82.3801 78.7335 86.0875 79.1088 89.3152 77.1679C93.1502 74.862 97.186 72.9588 101.234 71.0737C102.558 70.4568 103.895 69.8347 105.363 69.7076C106.503 69.6089 106.736 69.0521 106.805 67.9967C106.991 65.1829 105.457 62.8646 104.81 60.2975C104.331 58.3941 102.668 58.1294 101.273 57.6499C100.228 57.2907 100.09 58.6747 99.4847 59.212C99.1345 59.5231 98.8874 60.1206 98.3164 59.7436C97.8481 59.4344 98.1272 58.9617 98.2997 58.5587C98.821 57.3406 99.498 56.2291 100.457 55.2977C101.987 53.8121 102.976 51.857 104.783 50.5726C104.046 49.5402 103.228 48.6932 103.148 47.5378C102.984 45.174 102.41 41.9082 102.261 40.4314C102.042 38.2596 101.503 36.0705 101.109 34.7816C100.577 33.0415 100.026 31.7797 100.154 30.0868C100.252 28.7774 100.147 27.8656 100.441 26.5841C100.543 26.1359 100.405 25.6702 99.8475 25.2917C98.2636 24.2162 96.6788 23.228 94.605 23.5819C90.3311 24.3112 86.1664 25.4645 82.1051 26.94C77.0487 28.7769 71.7442 29.9025 66.9581 32.5368C63.7198 34.3191 60.7394 36.4852 57.6013 38.3626C53.6947 40.6996 50.1657 43.7036 45.8702 45.3917C45.6096 45.4941 45.3816 45.7116 45.1743 45.9126C40.8383 50.1141 36.9092 54.6708 33.7661 59.8283C32.4877 61.9261 31.2107 64.1177 30.5399 66.5021C28.8183 72.6222 28.174 78.8815 28.4206 85.2443C28.4948 87.1592 28.7476 88.9956 29.3427 90.8177C29.782 92.163 30.6572 92.8944 31.9403 93.3279C33.7853 93.9514 35.6785 94.3243 37.5859 94.7008C42.8292 95.7357 48.0879 96.7455 53.4369 96.7945C60.7529 96.8616 68.0944 97.5194 75.3649 95.8228C77.03 95.4342 78.0866 94.7505 78.8836 93.403C79.2546 92.7757 79.5807 92.1218 80.0381 91.2987ZM101.503 32.87C101.963 33.5894 103.681 39.2946 103.681 40.4314C103.681 42.0542 104.185 44.3527 104.235 46.4325C104.277 48.1486 105.583 49.232 107.257 49.6005C110.915 50.4056 113.945 52.3454 116.811 54.637C118.371 55.8842 123.669 54.637 123.669 54.637C123.669 54.637 129.187 52.6717 132.039 52.469C132.773 52.4167 134.921 52.4532 135.388 51.8324C137.139 50.5726 139.288 50.5156 140.058 50.227C141.225 49.7892 141.631 49.3205 142.163 48.5281C142.704 47.7238 143.113 46.8692 143.417 45.9225C144.531 42.4517 144.137 38.8875 144.158 35.3603C144.189 30.2466 143.514 25.4092 139.98 21.1929C137.492 18.2246 134.397 16.2947 131.187 14.4376C130.028 13.7675 128.695 13.3656 127.592 12.5508C125.771 11.2046 123.595 11.065 121.489 10.9488C119.364 10.8316 117.242 11.1327 115.925 13.267C115.196 12.7615 114.755 11.8021 113.745 12.2861C112.789 12.7446 111.747 13.0731 111.145 14.0645C110.662 14.8601 109.95 15.2751 109.005 15.3932C107.469 15.5853 106.664 16.5894 106.24 18.0641C107.273 18.5562 107.689 19.2435 106.619 19.9986C105.064 21.097 104.115 22.694 102.971 24.1346C100.93 26.7052 100.82 29.6384 101.503 32.87ZM120.285 7.48598C117.944 8.72457 120.24 7.61094 117.875 9.65469C121.379 7.82946 124.417 8.87253 127.654 10.4321C131.182 12.1321 134.821 13.8414 137.893 16.4204C141.146 19.151 143.675 22.3819 144.974 26.4761C145.714 28.8077 145.885 31.2511 145.993 33.6553C146.137 36.8954 146.352 40.1653 145.786 43.3947C145.474 45.1689 145.041 46.9217 144.622 48.8734C145.636 48.5763 146.448 48.4091 147.205 48.1048C151.98 46.1855 155.646 42.884 158.77 38.8702C160.901 36.1332 161.731 33.1561 160.907 29.7596C160.801 29.3251 160.784 28.9043 160.928 28.4703C161.968 25.3358 162.441 22.2567 160.037 19.4565C159.886 19.2807 159.79 19.0253 159.749 18.7927C159.379 16.7151 158.014 15.2539 156.665 13.7858C154.469 11.3963 152.025 7.90337 150.649 6.16601C149.82 5.12026 148.736 4.28601 147.793 3.94073C146.289 3.38992 145.462 3.25517 143.806 3.31022C141.187 3.39729 138.581 3.81049 135.953 3.6203C134.321 3.50217 132.751 3.76619 131.254 4.39096C128.863 5.38905 126.343 5.89328 123.819 6.36888C122.663 6.58678 121.564 6.92846 120.285 7.48598ZM119.707 62.3984C119.674 61.6247 119.679 60.847 119.599 60.0783C119.476 58.9099 119.094 57.5608 118.111 57.1472C116.636 56.5267 115.479 55.5521 114.188 54.7131C112.082 53.3447 110.019 51.8681 107.55 51.1707C107.142 51.0557 106.761 50.8361 106.347 51.252C104.851 52.7564 103.368 54.2673 102.261 56.118C105.517 57.4547 105.626 57.4162 106.1 58.7494C107.24 61.9553 109.05 65.0443 108.11 68.6801C108.082 68.7875 108.198 68.9321 108.267 69.1108C109.335 68.9643 110.387 68.8225 111.437 68.6754C113.114 68.4406 114.583 67.8384 115.761 66.5348C116.993 65.1701 118.33 63.8994 119.707 62.3984ZM123.669 59.7436C124.54 59.2012 126.664 58.022 127.653 57.767C130.134 57.1267 130.336 55.4932 132.815 54.3648C131.846 54.0745 129.34 54.2409 128.674 54.2647C125.014 54.3952 123.54 56.7825 119.707 56.6485C120.243 57.7777 121.286 60.9741 121.085 62.1944C121.913 61.464 122.851 60.4293 123.669 59.7436Z" fill="black"/>
<path d="M87.291 80.3438C87.3993 81.744 87.5841 83.1354 86.8176 84.4546C84.6987 88.1012 82.2399 91.5367 79.8759 95.0107C78.2875 97.3447 78.3447 99.4594 78.9223 101.866C79.266 103.298 80.2783 103.98 81.647 104.089C82.8514 104.185 84.0734 104.243 85.2764 103.968C91.4722 102.553 97.7225 101.35 103.891 99.8602C110.959 98.153 118.141 97.5022 125.296 96.5346C129.633 95.9482 134 95.6585 138.361 95.5087C143.503 95.332 148.573 94.194 153.741 94.4849C154.219 94.5118 154.708 94.4205 155.187 94.3531C159.687 93.7204 164.253 93.5452 168.712 94.1294C174.732 94.9183 180.695 95.7402 186.805 95.4706C189.002 95.3736 190.254 94.5926 191.173 92.8246C191.464 92.2642 191.777 91.7081 191.997 91.1191C193.72 86.5116 194.996 81.8298 195.29 76.858C195.725 69.5159 195.62 62.1718 195.385 54.8455C195.174 48.2602 195.15 41.6621 194.419 35.0779C193.875 30.1748 194.081 25.1927 192.786 20.3594C192.339 18.6937 192.09 18.3596 190.406 18.7144C186.231 19.5941 182.038 20.414 178.15 22.3093C176.934 22.9021 175.581 23.2081 174.342 23.7596C170.826 25.324 166.949 26.1558 164.069 29.0255C163.35 29.7421 162.94 30.3356 162.971 31.3602C163.041 33.7179 162.772 36.0945 161.535 38.1169C158.823 42.5524 155.034 45.9619 150.567 48.5592C147.141 50.5512 143.394 51.7711 139.474 51.8324C137.431 52.469 136.701 52.708 134.95 54.2647C134.652 54.8985 133.753 55.5504 133.156 55.9048C130.616 57.4132 128.255 59.2564 125.297 59.9786C124.708 60.1224 124.032 60.4382 123.669 60.8925C122.083 62.8758 119.949 64.3094 118.374 66.2934C116.494 68.6616 114.231 70.1999 111.066 70.5509C108.584 70.8262 105.998 71.0544 103.681 72.0668L103.421 72.1801C99.6893 73.8102 95.9512 75.443 92.4635 77.5944C90.8604 78.5833 89.2509 79.6141 87.291 80.3438Z" fill="#FBFAC8"/>
<path d="M132.915 1.90567C134.627 1.60266 136.504 1.43604 138.148 1.51863L138.38 1.52895C139.523 1.57446 140.454 1.52436 141.419 1.51271C142.444 1.50032 143.483 1.5327 144.782 1.77885L145.364 1.89185C146.706 2.16045 147.942 2.47356 149.142 3.03957C150.476 3.66854 151.754 4.60339 153.095 6.11436L153.225 6.26246L153.247 6.28835L153.263 6.31885C154.354 8.41203 156.07 10.2737 157.831 12.0305L158.148 12.3486C159.726 13.9478 161.214 15.6884 161.751 18.0695L161.769 18.1397C161.867 18.4861 162.098 18.769 162.386 19.102C162.68 19.4403 163.039 19.8358 163.207 20.364L163.254 20.5207C163.728 22.1401 163.608 23.8006 163.635 25.36L163.634 25.476C163.632 25.5916 163.624 25.7049 163.616 25.8119C163.605 25.9586 163.593 26.0916 163.591 26.2244C163.587 26.3611 163.594 26.4885 163.618 26.6097C166.183 24.8537 168.966 23.6161 171.79 22.5239C174.742 21.3819 177.709 20.4084 180.576 19.1588L180.875 19.0314C183.97 17.7367 187.352 17.1474 190.652 16.6253L190.759 16.6095C191.851 16.4548 192.729 16.6154 193.407 17.1304C194.098 17.6562 194.528 18.5117 194.797 19.617L194.908 20.0836C196.013 24.9094 196.054 29.8234 196.41 34.6719L196.465 35.4115C196.748 39.1108 197.113 42.8384 197.288 46.5625L197.313 47.1465C197.435 50.067 197.443 52.9925 197.459 55.908L197.47 57.2926C197.503 60.5233 197.583 63.7529 197.662 66.9863L197.674 67.5476C197.796 73.2537 197.628 78.9736 196.319 84.6015L196.254 84.8784C196.049 85.7361 195.772 86.5831 195.496 87.5218C194.8 89.9583 193.969 92.2331 192.75 94.3564L192.631 94.5613C192.14 95.3949 191.576 96.1268 190.851 96.6562C190.143 97.1728 189.297 97.4867 188.248 97.5295L188.146 97.5328C181.973 97.6793 175.769 97.7974 169.656 96.3451L169.365 96.2747C168.975 96.179 168.566 96.1598 168.132 96.1479L167.689 96.1358C161.385 95.93 155.071 96.1408 148.818 96.7699L148.214 96.832C144.553 97.2163 140.877 97.382 137.219 97.5797C133.787 97.7653 130.368 97.9791 126.973 98.4275L126.295 98.5205C119.281 99.5145 112.273 99.9532 105.39 101.67L105.062 101.753C99.1208 103.271 93.0638 104.455 87.0868 105.812L85.8926 106.086C85.6584 106.14 85.3857 106.213 85.108 106.246L84.9888 106.258C82.2615 106.456 80.1263 106.168 78.6997 105.001C77.2603 103.824 76.6231 101.824 76.7132 98.8104L76.725 98.5162C76.7358 98.2982 76.7498 98.0746 76.7641 97.8373C76.1646 97.7688 75.5879 97.8794 74.9906 98.0451C74.3714 98.2169 73.6945 98.4619 73.0094 98.5693L72.8722 98.589C71.3502 98.7843 69.8042 99.0398 68.2265 99.0662L67.9105 99.0684C61.8492 99.0476 55.7475 99.2478 49.6672 98.795L49.0787 98.7492C44.8823 98.4069 40.7622 97.5102 36.6598 96.735L35.8396 96.5818C33.8765 96.2199 31.9465 95.7234 30.11 94.8674L29.9325 94.7834C28.7225 94.202 27.9709 93.2805 27.5045 92.0741L27.4602 91.9565C25.995 87.9521 26.142 83.8013 26.32 79.7331L26.3404 79.3111C26.5723 74.9565 27.4371 70.6976 28.5046 66.488L28.5739 66.2239C29.3133 63.506 30.736 61.1045 32.1106 58.7892L32.4083 58.2936C35.5098 53.192 39.3852 48.6756 43.7311 44.581L43.9711 44.3552C44.2251 44.1209 44.5207 43.8738 44.8578 43.7326L45.0491 43.6512C47.0181 42.7973 48.7852 41.5918 50.5766 40.3651C52.4177 39.1043 54.2851 37.8203 56.3872 36.9254L56.5061 36.8712C56.7826 36.7373 57.0506 36.5519 57.2965 36.3455L57.5604 36.1259C63.1195 31.5433 69.5789 28.8157 76.3753 26.7315L77.1612 26.4871C81.0897 25.2488 85.0083 23.7853 89.0312 22.7606L89.7039 22.5921C91.2756 22.2051 92.8619 21.8621 94.4574 21.5842L94.6621 21.5519C96.7691 21.2531 98.6386 22.0403 100.313 23.1279L100.382 23.1716C100.72 23.379 100.938 23.4199 101.1 23.3875C101.277 23.3522 101.474 23.2136 101.73 22.8721L102.04 22.4636C102.771 21.515 103.54 20.5975 104.308 19.6885L104.339 19.6497C104.468 19.4818 104.506 19.326 104.507 19.0831L104.506 18.9644C104.467 17.6216 104.787 16.4648 105.471 15.5643C106.155 14.6631 107.183 14.0462 108.505 13.7463L108.552 13.7342C108.793 13.6654 109.122 13.4695 109.512 13.1653C109.918 12.8482 110.358 12.4396 110.782 12.0125C111.63 11.1587 112.398 10.2493 112.686 9.8952C113.002 9.50802 113.351 9.22474 113.757 8.92388C114.165 8.62089 114.627 8.30105 115.208 7.82377L115.229 7.80665L115.253 7.79349L115.421 7.70331C115.963 7.41618 117.519 6.6176 119.462 5.80017C121.678 4.86835 124.424 3.90004 126.751 3.65062L126.871 3.63658C127.469 3.55959 128.078 3.38499 128.619 3.13063L128.817 3.04111C129.836 2.59576 131.313 2.18923 132.915 1.90567ZM138.119 2.1016C136.53 2.02176 134.698 2.18294 133.017 2.48052C131.438 2.76001 130.011 3.15638 129.053 3.57493L128.867 3.65874C128.27 3.93981 127.602 4.13109 126.945 4.2156L126.814 4.23096C124.575 4.47091 121.893 5.41101 119.689 6.33815C117.544 7.24019 115.877 8.1189 115.556 8.29352C114.97 8.77275 114.492 9.10503 114.105 9.39254C113.709 9.6859 113.407 9.93453 113.139 10.264C112.843 10.6267 112.062 11.5518 111.196 12.4239C110.763 12.8597 110.304 13.2871 109.871 13.6254C109.474 13.9354 109.068 14.1954 108.706 14.2974L108.634 14.3156C107.418 14.5913 106.522 15.1457 105.936 15.9173C105.349 16.6897 105.053 17.7076 105.089 18.9475L105.091 19.0943C105.088 19.4085 105.035 19.6979 104.809 19.9961L104.754 20.0652C103.986 20.9745 103.224 21.883 102.503 22.8192L102.197 23.2223C101.916 23.5969 101.608 23.8814 101.215 23.9599C100.843 24.0342 100.468 23.91 100.074 23.6675L99.9946 23.6174C98.3717 22.5631 96.6485 21.8595 94.7426 22.1301L94.5577 22.1592C92.9775 22.4345 91.4044 22.7745 89.8435 23.1589L89.1752 23.3263C85.1623 24.3484 81.3095 25.7918 77.3416 27.0422L76.5465 27.2897C69.784 29.3635 63.4067 32.063 57.9316 36.5763L57.6716 36.7927C57.3813 37.0363 57.0479 37.267 56.6883 37.4307L56.6158 37.4625C54.5761 38.3309 52.7562 39.5799 50.9064 40.8467C49.1222 42.0685 47.3104 43.3068 45.2806 44.1869L45.0835 44.271C44.8365 44.3745 44.611 44.5604 44.3737 44.7787L44.1313 45.006C39.8149 49.0727 35.9757 53.5491 32.907 58.5968L32.6126 59.0872C31.2316 61.4133 29.8521 63.7488 29.1374 66.3764L29.0705 66.6315C28.0069 70.8255 27.1524 75.0425 26.9233 79.3421L26.9031 79.7585C26.7246 83.8407 26.5893 87.8768 28.0085 91.7558L28.0485 91.8624C28.47 92.9538 29.1298 93.75 30.1855 94.2572L30.3566 94.3382C32.1303 95.1649 34.0066 95.6502 35.9454 96.0077L36.7706 96.1619C40.8932 96.9408 44.9663 97.828 49.1261 98.1673L49.7117 98.2129C55.762 98.6635 61.8229 98.4637 67.9125 98.4846L68.219 98.4826C69.7494 98.457 71.247 98.209 72.7979 98.01L72.9242 97.9918C73.5541 97.8933 74.1536 97.6717 74.8344 97.4827C75.5413 97.2866 76.3019 97.1397 77.1283 97.3039L77.3767 97.3533L77.3629 97.606C77.3435 97.9571 77.3224 98.2548 77.3082 98.5423L77.2966 98.8279C77.2085 101.774 77.8394 103.544 79.0692 104.549C80.312 105.566 82.2473 105.871 84.9465 105.676L85.0437 105.666C85.2703 105.639 85.4978 105.578 85.7607 105.517L86.9609 105.242C92.9622 103.879 98.9784 102.705 104.918 101.187L105.247 101.104C112.171 99.377 119.259 98.9277 126.213 97.9424L126.896 97.8489C130.316 97.3972 133.755 97.1823 137.188 96.9967C140.853 96.7986 144.51 96.6338 148.153 96.2514L148.76 96.1891C155.038 95.5574 161.378 95.3456 167.708 95.5522L168.141 95.5636C168.585 95.5756 169.057 95.5979 169.504 95.7077L169.791 95.7773C175.819 97.2094 181.949 97.0959 188.132 96.9491L188.314 96.9417C189.209 96.8899 189.916 96.6163 190.506 96.1847C191.142 95.7205 191.658 95.0631 192.128 94.2653L192.244 94.0657C193.431 91.9983 194.247 89.7722 194.935 87.3592L194.936 87.3566L195.144 86.6609C195.348 85.987 195.536 85.3709 195.686 84.7424L195.751 84.4692C197.043 78.9126 197.212 73.2507 197.091 67.5605L197.078 67.0006C196.999 63.7682 196.919 60.5344 196.887 57.2983L196.876 55.9112C196.86 52.9924 196.851 50.0782 196.73 47.1711L196.704 46.5897C196.531 42.8738 196.168 39.1729 195.883 35.4578L195.828 34.7147C195.468 29.8157 195.43 24.98 194.339 20.2162L194.23 19.7552C193.975 18.7076 193.591 18.0039 193.053 17.5951C192.556 17.2173 191.881 17.0568 190.936 17.1747L190.743 17.2019C187.439 17.7246 184.122 18.3059 181.101 19.5696L180.809 19.694C177.931 20.9483 174.911 21.9426 172 23.0685C169.077 24.1994 166.234 25.4731 163.64 27.3048L163.37 27.495L163.214 27.2045C163.031 26.8636 163 26.5213 163.007 26.2115C163.01 26.0588 163.023 25.9058 163.034 25.7676C163.042 25.661 163.049 25.5613 163.051 25.4651L163.051 25.3698C163.023 23.7392 163.138 22.2018 162.695 20.687L162.65 20.5404C162.526 20.1487 162.258 19.8452 161.945 19.4844C161.666 19.1621 161.346 18.7896 161.207 18.2979L161.181 18.198C160.682 15.9855 159.299 14.3469 157.734 12.7605L157.419 12.4438C155.663 10.6927 153.899 8.78711 152.763 6.62119C151.429 5.09063 150.181 4.17499 148.893 3.56769C147.756 3.0314 146.577 2.73018 145.251 2.46472L144.674 2.3526C143.426 2.11626 142.429 2.08421 141.426 2.09634C140.488 2.10767 139.522 2.15855 138.355 2.11213L138.119 2.1016ZM191.434 18.2959C191.742 18.3045 192.01 18.3759 192.236 18.546C192.457 18.7126 192.608 18.9512 192.731 19.2339C192.852 19.5155 192.956 19.8675 193.068 20.284L193.128 20.513C193.74 22.8821 194.002 25.2801 194.175 27.6714C194.355 30.1497 194.438 32.6007 194.709 35.0457L194.776 35.6645C195.443 42.0585 195.473 48.4675 195.677 54.8361L195.719 56.2107C195.916 62.8554 195.985 69.5199 195.621 76.1857L195.582 76.8753C195.295 81.7296 194.079 86.3032 192.432 90.7877L192.271 91.2215C192.1 91.6794 191.874 92.1196 191.651 92.5423L191.432 92.9592C190.956 93.8768 190.38 94.5604 189.62 95.0236C188.91 95.4567 188.061 95.683 187.027 95.7507L186.818 95.7624C181.446 95.9995 176.188 95.3964 170.929 94.714L168.674 94.4189C164.386 93.8571 159.993 94.0022 155.648 94.5846L155.228 94.6423C154.797 94.7028 154.306 94.7931 153.822 94.7803L153.725 94.7763C151.166 94.6323 148.626 94.8419 146.072 95.1118C143.684 95.3643 141.277 95.6705 138.856 95.781L138.371 95.8005C134.152 95.9455 129.932 96.2214 125.741 96.7701L125.336 96.8241C118.387 97.7636 111.456 98.4008 104.621 99.9875L103.96 100.144C98.1802 101.54 92.3022 102.69 86.5008 103.99L85.3414 104.253C84.2474 104.502 83.1452 104.486 82.0786 104.414L81.6238 104.38C80.8982 104.322 80.2442 104.11 79.7213 103.704C79.2283 103.321 78.8708 102.779 78.6754 102.077L78.6385 101.934C78.0505 99.4844 77.9824 97.2745 79.6346 94.8465L80.5261 93.5433C82.6111 90.5061 84.7173 87.4886 86.5653 84.3082L86.6294 84.1932C87.2664 83.0032 87.1073 81.7518 87.0002 80.3663L86.983 80.1471L87.1893 80.0703C89.1169 79.3527 90.7006 78.3391 92.3103 77.3461L92.6398 77.1447C96.0531 75.0795 99.6921 73.4905 103.304 71.9127L103.564 71.7995L103.787 71.7047C106.095 70.7509 108.644 70.526 111.033 70.261L111.177 70.2441C114.174 69.8735 116.332 68.3966 118.146 66.112L118.298 65.9237C119.067 64.9906 119.952 64.1766 120.82 63.3779C121.751 62.521 122.664 61.6817 123.441 60.7104L123.481 60.6614C123.909 60.1627 124.629 59.8412 125.228 59.6952L125.362 59.6614C126.75 59.3041 128.011 58.6939 129.237 57.984C129.87 57.6175 130.492 57.226 131.117 56.8297C131.74 56.4343 132.368 56.0336 133.007 55.6539L133.118 55.5865C133.385 55.4219 133.695 55.2065 133.976 54.9674C134.303 54.6891 134.564 54.4005 134.686 54.1408L134.711 54.0864L134.756 54.0465C135.641 53.26 136.282 52.7933 136.97 52.4435C137.653 52.0964 138.371 51.8704 139.387 51.5538L139.428 51.5413L139.47 51.5406C143.331 51.4802 147.03 50.2787 150.421 48.307L150.834 48.063C155.087 45.5176 158.688 42.215 161.286 37.9647L161.395 37.7809C162.46 35.9307 162.73 33.7753 162.685 31.5879L162.679 31.3691C162.663 30.812 162.766 30.3577 162.979 29.9438C163.189 29.5367 163.497 29.1834 163.863 28.8187L164.002 28.6825C165.448 27.2884 167.123 26.3801 168.852 25.6351C169.743 25.2509 170.654 24.9081 171.555 24.5659C172.459 24.2229 173.353 23.8804 174.223 23.493L174.463 23.3899C175.023 23.1559 175.601 22.9645 176.161 22.7738C176.807 22.5541 177.433 22.3345 178.022 22.0471L178.391 21.8707C182.213 20.081 186.312 19.279 190.346 18.4289L190.503 18.397C190.862 18.327 191.169 18.2885 191.434 18.2959ZM191.417 18.8793C191.214 18.8737 190.956 18.9036 190.617 18.9697L190.466 19.0002C186.412 19.8544 182.386 20.6446 178.64 22.3991L178.278 22.5717C177.652 22.8771 176.994 23.107 176.349 23.3263C175.781 23.5197 175.224 23.7046 174.689 23.9281L174.461 24.0264C173.574 24.4213 172.665 24.7692 171.762 25.1118C170.858 25.4553 169.96 25.7931 169.083 26.1711C167.385 26.9029 165.782 27.7778 164.407 29.1026L164.275 29.2323C163.922 29.5843 163.666 29.8862 163.498 30.2111C163.335 30.5292 163.249 30.8841 163.263 31.3516L163.268 31.5749C163.315 33.8097 163.043 36.0892 161.901 38.072L161.784 38.2693C159.129 42.6128 155.454 45.9782 151.134 48.5639L150.714 48.8116C147.266 50.8167 143.485 52.0529 139.522 52.1234C138.517 52.4365 137.858 52.6472 137.235 52.9637C136.62 53.2766 136.029 53.6989 135.185 54.4458C135.004 54.7988 134.683 55.1322 134.355 55.4119C134.047 55.6741 133.711 55.9066 133.425 56.0835L133.305 56.1559C132.675 56.5303 132.055 56.9257 131.429 57.3227C130.805 57.7188 130.174 58.1162 129.53 58.4893C128.281 59.2124 126.968 59.8509 125.508 60.2268L125.366 60.2623C124.84 60.3907 124.277 60.6569 123.958 61.0044L123.897 61.075C123.088 62.087 122.141 62.9559 121.215 63.8075C120.342 64.6107 119.488 65.3989 118.749 66.2945L118.603 66.4751C116.715 68.8529 114.429 70.4299 111.25 70.8233L111.098 70.8411C108.679 71.1094 106.224 71.3296 104.011 72.2438L103.798 72.3344L103.538 72.4476C99.9198 74.0281 96.3165 75.6025 92.9426 77.6439L92.6168 77.8428C91.0758 78.7934 89.4988 79.8028 87.5996 80.5387C87.7032 81.8057 87.8391 83.1687 87.1441 84.4685L87.0699 84.6013C85.2099 87.8024 83.0876 90.8432 81.0059 93.8755L80.1173 95.175C78.593 97.415 78.6389 99.4346 79.2061 101.798L79.2375 101.92C79.4032 102.516 79.6965 102.946 80.0794 103.243C80.4907 103.563 81.0272 103.747 81.6703 103.798L82.1203 103.832C83.1682 103.903 84.2002 103.914 85.2115 103.683L86.3768 103.42C92.2042 102.113 98.036 100.974 103.823 99.5766L104.488 99.419C111.361 97.8235 118.342 97.1806 125.257 96.2455L125.665 96.1913C129.88 95.6394 134.12 95.3625 138.351 95.2171L138.83 95.1978C141.226 95.0885 143.606 94.7855 146.011 94.5313C148.569 94.2608 151.149 94.0468 153.758 94.1936L153.84 94.1969C154.255 94.2078 154.679 94.1299 155.147 94.0641L155.57 94.006C159.953 93.4185 164.399 93.2701 168.75 93.8401L171.006 94.1354C176.263 94.8173 181.473 95.4138 186.792 95.179L186.989 95.1682C187.96 95.1046 188.71 94.8951 189.317 94.5251C189.962 94.1316 190.472 93.5405 190.914 92.69L191.137 92.267C191.356 91.8489 191.565 91.4425 191.724 91.017L191.884 90.5863C193.519 86.1343 194.716 81.6194 194.999 76.8408L195.038 76.1538C195.401 69.512 195.332 62.8664 195.136 56.2283L195.093 54.855C194.888 48.4647 194.86 42.0906 194.195 35.7261L194.129 35.1102C193.856 32.6522 193.77 30.1606 193.593 27.7138C193.421 25.3339 193.161 22.9769 192.563 20.6591L192.504 20.4351C192.392 20.0188 192.298 19.7041 192.195 19.4658C192.092 19.2285 191.992 19.0932 191.885 19.0125C191.782 18.9353 191.643 18.8856 191.417 18.8793ZM94.6588 23.2778C96.8099 22.9518 98.4574 23.9951 100.012 25.0504L100.07 25.091C100.354 25.2964 100.551 25.535 100.661 25.7997C100.772 26.0652 100.787 26.338 100.736 26.5977L100.725 26.6494C100.584 27.2664 100.538 27.7953 100.516 28.3371C100.497 28.805 100.495 29.3055 100.461 29.8653L100.445 30.1088C100.323 31.7312 100.846 32.9205 101.389 34.6964L101.465 34.9507C101.853 36.2739 102.344 38.3436 102.552 40.4022L102.584 40.6964C102.67 41.4286 102.827 42.4706 102.988 43.6114C103.171 44.908 103.357 46.3245 103.439 47.5178L103.448 47.6128C103.5 48.0853 103.691 48.5108 103.966 48.9455C104.268 49.4242 104.634 49.861 105.021 50.403L105.191 50.6411L104.952 50.8107C104.084 51.4278 103.406 52.2104 102.745 53.0416C102.131 53.8126 101.524 54.6372 100.806 55.3634L100.661 55.5073C99.7942 56.3487 99.162 57.3467 98.6657 58.4513L98.568 58.6736C98.468 58.9074 98.3814 59.0721 98.3561 59.232C98.3452 59.3009 98.3512 59.3459 98.3638 59.3779C98.3753 59.4073 98.4019 59.4503 98.4774 59.5001L98.5145 59.5231C98.5964 59.5704 98.645 59.5741 98.6696 59.5723C98.6996 59.5701 98.7403 59.5566 98.8015 59.5078C98.8659 59.4564 98.9308 59.3843 99.0141 59.2882C99.0905 59.2 99.1859 59.0873 99.291 58.9939L99.3331 58.9538C99.4302 58.8546 99.521 58.7171 99.6192 58.5457C99.7219 58.3664 99.8438 58.1278 99.9698 57.9351C100.099 57.737 100.267 57.53 100.504 57.4076C100.755 57.2777 101.044 57.2626 101.368 57.374L101.623 57.4585C102.232 57.6548 102.932 57.8517 103.528 58.1852C104.236 58.5817 104.831 59.1843 105.094 60.2263L105.156 60.4631C105.479 61.6418 105.972 62.7546 106.395 63.9578C106.827 65.1835 107.171 66.4675 107.104 67.8791L107.096 68.016C107.061 68.5459 106.985 69.0267 106.721 69.3844C106.459 69.7387 106.056 69.9217 105.501 69.9869L105.388 69.9986C104.156 70.1052 103.014 70.5758 101.855 71.1077L101.357 71.3385C97.4348 73.1652 93.5371 75.0026 89.8244 77.2039L89.4656 77.4183C86.1774 79.3954 82.4066 79.0431 79.359 76.7351L79.2145 76.6238C75.0708 73.3766 73.0845 69.0128 72.0021 64.086L71.9 63.6074C71.4445 61.4027 71.337 59.2008 71.327 57.0131C71.3175 54.9486 71.3939 52.9279 71.3535 50.887L71.3436 50.4785C71.3393 50.3245 71.3541 50.1453 71.3592 50.0127C71.3648 49.8659 71.3617 49.74 71.3362 49.6259C71.3117 49.5169 71.2663 49.4173 71.1813 49.3237C71.1443 49.283 71.0972 49.2415 71.038 49.1995C69.6378 56.1571 69.9516 62.9092 72.1315 69.7906L72.2974 70.3141L71.7706 70.1585C71.335 70.0299 70.8983 69.9305 70.4585 69.8318C70.0217 69.7338 69.5798 69.6362 69.1489 69.513C68.3099 69.2732 67.4915 68.9312 66.7587 68.2723L66.688 68.2073C64.3332 66.0066 61.3283 65.6035 58.239 65.398L57.6201 65.3592C54.5001 65.1716 51.3641 65.2514 48.2417 65.5553L47.6175 65.6192C47.5432 65.6271 47.4654 65.6334 47.3913 65.6396C47.3157 65.6459 47.2425 65.6521 47.1705 65.6602C47.0244 65.6766 46.8999 65.699 46.8 65.735C46.7015 65.7706 46.6459 65.8123 46.6141 65.8561C46.5849 65.8965 46.5538 65.9688 46.5626 66.1109L46.5665 66.1528C46.5784 66.243 46.6075 66.2806 46.6268 66.2991C46.6548 66.3257 46.7071 66.3536 46.807 66.37C46.9071 66.3864 47.0274 66.387 47.1677 66.3814C47.2955 66.3763 47.4584 66.3648 47.5922 66.366L49.4177 66.3862C51.2414 66.4068 53.0601 66.4218 54.8773 66.3704L55.1068 66.3658C56.2521 66.3511 57.3767 66.4661 58.4854 66.6151C59.6775 66.7752 60.8306 66.9711 62.0078 67.098L62.1081 67.1098C63.143 67.2415 64.1045 67.6776 64.997 68.4054L65.4325 68.7605L64.8917 68.9127C64.0801 69.1411 63.3276 68.9963 62.7005 68.9386L62.5767 68.9285C57.5268 68.5639 52.9796 70.2553 48.4852 72.3697L48.0506 72.5757C47.8677 72.6629 47.7378 72.7412 47.6679 72.8254C47.6378 72.8617 47.6247 72.8927 47.6201 72.9224C47.6155 72.9525 47.6166 73.0025 47.6484 73.0817L47.664 73.1177C47.7003 73.1955 47.7367 73.2331 47.7629 73.2524C47.792 73.2737 47.8289 73.2876 47.8849 73.2908C48.0187 73.2983 48.1851 73.246 48.4113 73.1714L48.7972 73.0431C50.7284 72.3962 52.6714 71.6782 54.644 71.1123L54.8819 71.0454C59.8775 69.6631 64.9032 69.8673 69.9148 70.9017L70.0884 70.9405C71.8638 71.3679 73.0825 72.6087 74.253 73.7428L75.1166 74.5807C75.9799 75.4195 76.8412 76.2618 77.6931 77.1138L77.8543 77.2711C79.5358 78.8683 81.6343 79.5846 83.9199 79.952L84.0118 79.9678C84.9551 80.1394 85.6816 80.5846 85.9999 81.2558C86.324 81.9393 86.1788 82.756 85.5878 83.5609L85.5292 83.6385C84.7295 84.6761 84.1453 85.8467 83.4868 87.0279C82.855 88.1613 82.1606 89.2912 81.1586 90.2289L81.0608 90.3188C80.917 90.449 80.7955 90.619 80.6707 90.8215C80.5574 91.0052 80.4244 91.2462 80.2887 91.449C79.8991 92.1505 79.5922 92.7537 79.2733 93.3133L79.1348 93.5518C78.2897 94.9807 77.1581 95.7041 75.4314 96.107C68.3447 97.7607 61.1807 97.1922 54.1174 97.0944L53.4342 97.0865C48.3903 97.0403 43.4305 96.1448 38.5125 95.1807L37.5293 94.9872C35.7441 94.6348 33.952 94.2822 32.1972 93.7199L31.8469 93.6045C30.5358 93.1615 29.5984 92.4059 29.1111 91.0422L29.0652 90.9084C28.4974 89.1697 28.2373 87.4223 28.1452 85.6176L28.129 85.2558C27.8813 78.8655 28.5283 72.5754 30.259 66.4231L30.3248 66.1962C31.023 63.8568 32.2794 61.7074 33.517 59.6765L33.8154 59.1923C36.9234 54.2065 40.7589 49.7847 44.9712 45.7031L45.1331 45.5488C45.3078 45.3877 45.52 45.2157 45.7635 45.1201L45.9616 45.0411C48.0038 44.2147 49.8785 43.0884 51.7213 41.8768C53.6145 40.632 55.492 39.2845 57.4516 38.1122L57.7443 37.936C59.2053 37.0512 60.6348 36.1077 62.0835 35.1693C63.6263 34.1698 65.1885 33.1778 66.8175 32.2812L67.0443 32.1575C69.393 30.8919 71.8569 29.978 74.3392 29.1621C76.9117 28.3165 79.4814 27.5827 82.0055 26.6657L82.3878 26.5279C86.3425 25.1131 90.3969 24.004 94.5559 23.2942L94.6588 23.2778ZM99.6835 25.5333C98.1192 24.4711 96.6469 23.5663 94.745 23.855L94.6542 23.8697C90.5327 24.5731 86.5113 25.6728 82.5846 27.0775L82.2048 27.2144C79.6726 28.1343 77.0618 28.8818 74.5215 29.7168C72.0508 30.5289 69.6248 31.4301 67.3214 32.6713L67.0989 32.7926C65.4896 33.6784 63.9424 34.6607 62.401 35.6592C60.9582 36.5938 59.518 37.5442 58.0459 38.4356L57.7513 38.6131C55.8043 39.7779 53.9638 41.101 52.0421 42.3645C50.189 43.5829 48.2765 44.7341 46.1804 45.5824L45.977 45.6633C45.8295 45.7213 45.6876 45.8327 45.5346 45.9731L45.3775 46.1223C41.1888 50.1812 37.3869 54.5664 34.3108 59.501L34.0155 59.9804C32.7762 62.014 31.5582 64.1051 30.8845 66.3623L30.8209 66.5813C29.1083 72.6691 28.4669 78.8978 28.7124 85.2332L28.7282 85.5877C28.8183 87.3554 29.0724 89.0495 29.6203 90.7272L29.6594 90.8419C30.0759 92.011 30.8589 92.6546 32.0338 93.0516L32.3763 93.1641C34.0904 93.7134 35.848 94.0603 37.6373 94.4135C37.6391 94.4138 37.6408 94.4142 37.6425 94.4145L38.6259 94.6081C43.5432 95.5718 48.4542 96.4572 53.4397 96.5029L54.1282 96.5108C61.2426 96.6088 68.2987 97.172 75.2987 95.5386L75.4472 95.5028C76.9632 95.1237 77.907 94.481 78.6324 93.2545L78.7688 93.0193C79.0831 92.4679 79.3744 91.8922 79.7829 91.157L79.7891 91.146L79.7963 91.1355L79.8448 91.0618C79.9556 90.8895 80.0495 90.717 80.1739 90.5152C80.307 90.2994 80.463 90.0727 80.6691 89.8862L80.76 89.8024C81.6915 88.9306 82.35 87.8681 82.9769 86.7436C83.6176 85.5943 84.2326 84.3646 85.067 83.2822L85.1176 83.2148C85.6273 82.5214 85.6751 81.9333 85.4724 81.5059C85.2639 81.0661 84.7437 80.6943 83.9089 80.5424L83.8273 80.5284C81.4831 80.1516 79.2536 79.4052 77.453 77.6952L77.2802 77.5267C76.431 76.6775 75.5723 75.8374 74.71 74.9995L73.8466 74.1621C72.648 73.0007 71.5421 71.8904 69.9521 71.5081L69.7968 71.4734C64.8453 70.4515 59.918 70.2574 55.0372 71.6079L54.8049 71.6735C52.844 72.236 50.9385 72.9417 48.9853 73.5958L48.5941 73.7259C48.4033 73.7888 48.12 73.8886 47.852 73.8735C47.7073 73.8654 47.5553 73.8243 47.4174 73.723C47.2976 73.6351 47.2045 73.5137 47.135 73.365L47.1067 73.2993C47.0435 73.1421 47.0198 72.9858 47.0431 72.834C47.0664 72.6817 47.1336 72.5551 47.2186 72.4527C47.3789 72.2593 47.618 72.1351 47.7994 72.0487L48.2358 71.842C52.75 69.718 57.4129 67.9703 62.6189 68.3462L62.7599 68.3576C63.2256 68.3988 63.6414 68.468 64.0711 68.4522C63.4205 68.0317 62.7432 67.779 62.0339 67.6889L61.9453 67.6783C60.7613 67.5507 59.5702 67.3498 58.4078 67.1937C57.3091 67.046 56.2171 66.9353 55.1144 66.9495L54.8939 66.9541C53.0659 67.0057 51.2351 66.9905 49.4098 66.9699L47.5868 66.9497C47.4712 66.9486 47.35 66.9585 47.1907 66.9648C47.044 66.9706 46.8742 66.9726 46.7126 66.9462C46.5508 66.9197 46.3696 66.8604 46.2242 66.7219C46.092 66.596 46.0152 66.4294 45.9884 66.2329L45.98 66.1466C45.9649 65.9009 46.0162 65.6866 46.1415 65.5136C46.2644 65.3441 46.4356 65.2458 46.6018 65.1859C46.7666 65.1264 46.9449 65.0979 47.1054 65.0799C47.1867 65.0708 47.2677 65.064 47.343 65.0577C47.3484 65.0573 47.3537 65.0568 47.359 65.0564C47.4295 65.0505 47.4942 65.0452 47.5554 65.0386L48.1853 64.9743C51.3353 64.6677 54.502 64.5869 57.6552 64.7764L58.2728 64.8153C61.3698 65.02 64.57 65.429 67.0867 67.781L67.2108 67.8927C67.8375 68.4352 68.5417 68.7324 69.3093 68.9518C69.6999 69.0634 70.102 69.1536 70.5196 69.2473C70.5419 69.2522 70.5641 69.2572 70.5864 69.2622C70.8584 69.3233 71.1363 69.3862 71.4171 69.4573C69.3118 62.5286 69.0717 55.7162 70.5445 48.7008L70.6163 48.3596L70.9395 48.4902C71.2321 48.6084 71.4531 48.7551 71.6131 48.931C71.775 49.1091 71.8622 49.304 71.9057 49.4984C71.9482 49.6877 71.9485 49.8742 71.9424 50.0348C71.9357 50.2095 71.9236 50.3328 71.9272 50.4622L71.9369 50.8712C71.9774 52.9183 71.9015 54.987 71.9108 57.0105C71.9208 59.1833 72.0278 61.3403 72.4718 63.4892L72.5723 63.9605C73.6378 68.8104 75.5753 73.0301 79.5747 76.1642L79.711 76.2693C82.5851 78.4464 86.0984 78.7616 89.1648 76.9178L89.5264 76.7021C93.268 74.4837 97.1905 72.635 101.111 70.8093L101.607 70.5789C102.775 70.0426 104.001 69.5327 105.338 69.4169L105.433 69.4073C105.895 69.3531 106.12 69.2148 106.251 69.0376C106.405 68.8284 106.479 68.5031 106.514 67.9776L106.521 67.8514C106.583 66.5521 106.268 65.3522 105.845 64.1518C105.442 63.0072 104.924 61.8261 104.591 60.6121L104.528 60.369C104.311 59.5076 103.834 59.0261 103.242 58.6944C102.7 58.3909 102.088 58.2232 101.452 58.0171L101.178 57.9261C100.98 57.8579 100.86 57.881 100.772 57.9263C100.67 57.9792 100.57 58.0846 100.458 58.2547C100.343 58.4303 100.252 58.6159 100.126 58.836C100.024 59.014 99.9027 59.207 99.7473 59.365L99.6787 59.4303C99.6124 59.4892 99.5487 59.5628 99.4689 59.6549C99.4644 59.6601 99.4599 59.6653 99.4553 59.6706C99.376 59.7622 99.278 59.8744 99.1655 59.9642C99.0497 60.0565 98.8995 60.141 98.7117 60.1546C98.5458 60.1666 98.3829 60.1208 98.2238 60.0293L98.1557 59.9872C97.9971 59.8824 97.8829 59.7504 97.8205 59.5916C97.7591 59.4355 97.7576 59.279 97.7795 59.1407C97.8198 58.8862 97.9589 58.613 98.0313 58.4439L98.1332 58.212C98.6517 57.0582 99.322 55.9934 100.254 55.0885L100.393 54.9511C101.078 54.2581 101.656 53.4727 102.288 52.678C102.898 51.9114 103.552 51.1465 104.377 50.5112C104.068 50.0948 103.734 49.6719 103.472 49.2573C103.172 48.7821 102.933 48.2708 102.868 47.6777L102.857 47.5582C102.776 46.3876 102.593 44.9893 102.41 43.6928C102.251 42.5647 102.092 41.5074 102.004 40.7609L101.971 40.4607C101.768 38.4472 101.286 36.4143 100.905 35.1166L100.83 34.8671C100.309 33.1629 99.73 31.8283 99.8627 30.065L99.8788 29.8265C99.9114 29.2814 99.912 28.8107 99.9325 28.313C99.9557 27.7513 100.004 27.1836 100.156 26.5191L100.169 26.4546C100.193 26.3047 100.179 26.1609 100.122 26.0241C100.065 25.8865 99.9571 25.7395 99.7691 25.595L99.6835 25.5333ZM106.191 50.9976C106.445 50.766 106.712 50.6985 106.976 50.7216C107.106 50.7329 107.227 50.7651 107.333 50.7973C107.394 50.8157 107.442 50.8315 107.488 50.8464L107.629 50.8899L107.865 50.959C110.283 51.6964 112.324 53.154 114.347 54.4684L114.594 54.6312C115.816 55.4487 116.871 56.3089 118.224 56.8782L118.279 56.9021C118.836 57.1577 119.204 57.6599 119.445 58.2131C119.695 58.7859 119.826 59.4478 119.889 60.048L119.903 60.1945C119.97 60.9284 119.969 61.6794 119.999 62.386L120.004 62.5067L119.922 62.5957C119.23 63.3502 118.548 64.0465 117.888 64.7218C117.31 65.3136 116.749 65.8891 116.208 66.4775L115.977 66.7305C114.781 68.0553 113.299 68.6832 111.639 68.9408L111.478 68.9645C110.427 69.1117 109.374 69.2536 108.306 69.4L108.077 69.4316L107.994 69.2155C107.965 69.1382 107.936 69.094 107.888 68.9937C107.858 68.9301 107.784 68.7757 107.827 68.6073L107.868 68.4436C108.267 66.7562 108.059 65.1833 107.605 63.6357C107.37 62.8355 107.07 62.0455 106.755 61.2497C106.481 60.5566 106.194 59.8555 105.934 59.1499L105.825 58.8474C105.706 58.5117 105.619 58.2926 105.51 58.1183C105.408 57.954 105.28 57.8211 105.064 57.679C104.84 57.5319 104.526 57.3782 104.052 57.1737C103.58 56.9699 102.968 56.7236 102.15 56.388L101.837 56.2592L102.011 55.9683C103.138 54.0825 104.646 52.5481 106.14 51.0463L106.191 50.9976ZM106.925 51.303C106.826 51.2943 106.727 51.3084 106.607 51.4092L106.554 51.4579C105.136 52.8841 103.754 54.2925 102.69 55.9782C103.348 56.2474 103.869 56.459 104.284 56.6377C104.761 56.8436 105.115 57.014 105.384 57.191C105.661 57.3731 105.853 57.5642 106.006 57.8093C106.152 58.0445 106.257 58.3207 106.375 58.6517L106.483 58.9496C106.738 59.6436 107.021 60.3331 107.298 61.0351C107.614 61.8337 107.922 62.6443 108.165 63.4714C108.648 65.1173 108.877 66.8425 108.403 68.7135C108.406 68.7209 108.41 68.731 108.416 68.744C108.423 68.7582 108.43 68.7713 108.437 68.7854C108.438 68.7877 108.439 68.7901 108.44 68.7925C109.436 68.6561 110.417 68.5236 111.397 68.3864L111.549 68.364C113.113 68.1214 114.46 67.5402 115.544 66.3393L115.778 66.0826C116.327 65.4861 116.894 64.9047 117.471 64.3137C117.487 64.2974 117.503 64.2812 117.519 64.2649C118.138 63.6307 118.77 62.984 119.411 62.289C119.384 61.5895 119.384 60.9213 119.322 60.2507L119.308 60.109C119.249 59.5408 119.127 58.9439 118.91 58.4467C118.706 57.9788 118.43 57.6287 118.071 57.4497L117.998 57.4164C116.586 56.8222 115.433 55.8964 114.263 55.1126L114.029 54.9579C111.905 53.5779 109.887 52.1341 107.471 51.4518C107.37 51.4234 107.241 51.3794 107.163 51.3557C107.07 51.3273 106.994 51.309 106.925 51.303ZM130.628 53.9052C131.451 53.897 132.365 53.9254 132.899 54.0853L133.644 54.3082L132.936 54.6306C131.747 55.1717 131.11 55.8275 130.435 56.4617C129.772 57.0838 129.081 57.6734 127.847 58.0171L127.726 58.0496C127.267 58.1679 126.516 58.5116 125.751 58.907C125.004 59.293 124.272 59.7135 123.841 59.9808C123.447 60.3125 123.022 60.7286 122.586 61.1597C122.149 61.5928 121.7 62.0414 121.279 62.4134L120.665 62.9547L120.797 62.1473C120.84 61.8902 120.818 61.4997 120.742 61.018C120.666 60.5433 120.54 60.0051 120.391 59.4652C120.091 58.3827 119.702 57.3184 119.444 56.7737L119.238 56.3402L119.717 56.3569C121.562 56.4214 122.837 55.8829 124.134 55.2903C125.433 54.6968 126.768 54.0407 128.664 53.973L128.989 53.9587C129.391 53.94 130.002 53.9114 130.628 53.9052ZM130.634 54.489C130.02 54.4952 129.433 54.5226 129.03 54.5414C129.026 54.5415 129.022 54.5417 129.018 54.5419L128.685 54.5564C126.921 54.6193 125.688 55.222 124.377 55.8213C123.167 56.3742 121.901 56.9165 120.155 56.9442C120.408 57.5594 120.711 58.4329 120.954 59.3094C121.107 59.8624 121.238 60.4229 121.318 60.926C121.351 61.1296 121.375 61.3284 121.389 61.5163C121.616 61.2991 121.849 61.0685 122.084 60.8353C122.115 60.8052 122.145 60.775 122.175 60.7448C122.614 60.3104 123.062 59.8719 123.481 59.5201L123.497 59.5067L123.515 59.4959C123.958 59.2203 124.713 58.7861 125.483 58.3884C126.244 57.9949 127.05 57.6212 127.58 57.4844L127.688 57.4554C128.79 57.1492 129.399 56.6338 130.035 56.0363C130.549 55.5539 131.086 55.0115 131.898 54.5191C131.518 54.4919 131.078 54.4846 130.634 54.489ZM115.856 12.8405C117.223 10.8794 119.3 10.563 121.303 10.6476L121.505 10.6574L121.9 10.6796C123.881 10.795 125.983 10.9983 127.766 12.3161L127.865 12.3881C128.365 12.7418 128.917 13.0167 129.491 13.2837C130.097 13.5649 130.739 13.8414 131.333 14.1851L131.934 14.5348C134.934 16.2912 137.838 18.1827 140.204 21.0056L140.371 21.2074C143.716 25.3204 144.436 29.9972 144.451 34.8812L144.45 35.3621C144.429 38.7891 144.815 42.3708 143.747 45.8463L143.695 46.0118C143.402 46.9226 143.015 47.7526 142.508 48.5352L142.406 48.691C142.137 49.0914 141.884 49.434 141.54 49.7316C141.214 50.0124 140.82 50.2426 140.272 50.4576L140.161 50.5004C139.941 50.5829 139.636 50.6448 139.306 50.7091C138.966 50.7753 138.578 50.8472 138.16 50.9491C137.335 51.1503 136.413 51.4634 135.589 52.0483C135.411 52.2566 135.13 52.3822 134.856 52.4657C134.553 52.558 134.197 52.6158 133.846 52.6541C133.245 52.7197 132.581 52.7337 132.203 52.752L132.06 52.7603C130.669 52.8592 128.605 53.3919 126.868 53.9089C126.003 54.1661 125.228 54.4171 124.668 54.6038C124.388 54.6971 124.163 54.7744 124.007 54.8282C123.929 54.8552 123.869 54.876 123.828 54.8903C123.808 54.8975 123.793 54.9029 123.782 54.9066C123.777 54.9084 123.773 54.9098 123.771 54.9107L123.768 54.9118L123.751 54.9175L123.736 54.9213L123.735 54.9215L123.731 54.9224C123.729 54.923 123.724 54.924 123.719 54.9252C123.709 54.9277 123.693 54.931 123.673 54.9355C123.633 54.9446 123.574 54.9577 123.499 54.9737C123.349 55.0058 123.134 55.0502 122.87 55.0994C122.344 55.1978 121.625 55.3162 120.855 55.3952C120.087 55.474 119.258 55.5147 118.517 55.4542C117.811 55.3966 117.134 55.2437 116.673 54.8991L116.629 54.8651C113.821 52.62 110.881 50.7364 107.362 49.9236L107.194 49.8856C105.47 49.5062 104.035 48.3746 103.947 46.528L103.944 46.4396C103.919 45.4174 103.783 44.3378 103.65 43.2977C103.518 42.2666 103.389 41.2655 103.389 40.4316C103.389 40.1878 103.291 39.6524 103.121 38.9394C102.955 38.2397 102.727 37.4025 102.485 36.5766C102.242 35.7507 101.986 34.939 101.762 34.2905C101.65 33.9661 101.547 33.6846 101.458 33.4636C101.39 33.2925 101.334 33.1686 101.293 33.0904L101.258 33.0274L101.229 32.9826L101.218 32.9304C100.526 29.6587 100.624 26.621 102.743 23.9531L102.953 23.6846C103.161 23.4143 103.365 23.1391 103.571 22.8613C103.845 22.4924 104.122 22.119 104.413 21.7558C104.996 21.0289 105.642 20.3317 106.451 19.7602L106.54 19.6951C106.956 19.3758 106.979 19.151 106.939 19.0175C106.911 18.924 106.837 18.812 106.694 18.6882C106.553 18.5654 106.358 18.4435 106.114 18.3277L105.891 18.2213L105.959 17.9835C106.179 17.2184 106.505 16.5497 106.996 16.0443C107.492 15.534 108.14 15.2074 108.969 15.1037L109.05 15.0928C109.875 14.9716 110.478 14.6009 110.896 13.913L110.96 13.8121C111.287 13.3175 111.715 12.9842 112.166 12.7229C112.633 12.4528 113.168 12.2394 113.619 12.023L113.674 11.9976C113.95 11.8758 114.208 11.838 114.453 11.8756C114.712 11.9151 114.928 12.0334 115.114 12.1709C115.297 12.3059 115.467 12.4737 115.621 12.622C115.702 12.6991 115.779 12.7725 115.856 12.8405ZM144.104 3.01039C145.6 2.98152 146.45 3.138 147.893 3.66664L147.988 3.70284C148.969 4.08991 150.051 4.9422 150.877 5.98491L151.151 6.33442C152.575 8.17517 154.829 11.3568 156.88 13.5885L157.384 14.1388C158.56 15.4353 159.698 16.8385 160.036 18.7417L160.052 18.817C160.093 18.992 160.166 19.1588 160.259 19.2666C162.691 22.0994 162.281 25.2069 161.302 28.2663L161.205 28.5622C161.083 28.9306 161.094 29.2934 161.19 29.6909L161.229 29.8543C161.999 33.227 161.171 36.2005 159.102 38.9183L159.001 39.0495C155.905 43.0261 152.268 46.3266 147.54 48.2835L147.314 48.3757C146.54 48.6866 145.687 48.8657 144.704 49.1537L144.234 49.2915L144.337 48.8123C144.758 46.8486 145.188 45.1117 145.498 43.3444L145.548 43.0451C145.981 40.3506 145.882 37.6264 145.757 34.8869L145.701 33.6685C145.597 31.3401 145.434 29.0065 144.763 26.7798L144.696 26.5645C143.458 22.6622 141.083 19.5492 138.006 16.8991L137.705 16.644C135.046 14.412 131.955 12.836 128.855 11.3354L127.527 10.6952C124.302 9.14145 121.381 8.15741 118.009 9.91363L117.684 9.434L117.89 9.25321C118.339 8.85396 118.569 8.60669 118.688 8.45127C118.754 8.36415 118.778 8.31431 118.788 8.29045C118.795 8.27212 118.796 8.265 118.799 8.23691C118.803 8.19867 118.811 8.1079 118.876 8.01246C118.93 7.93375 119.009 7.87305 119.09 7.81806C119.257 7.70562 119.569 7.53466 120.149 7.22807L120.159 7.22303L120.169 7.21864C121.465 6.65338 122.585 6.30451 123.765 6.0821L124.711 5.90175C126.912 5.4738 129.077 4.98338 131.142 4.12169L131.286 4.06267C132.781 3.4631 134.348 3.2115 135.974 3.32919L136.217 3.34521C137.429 3.41598 138.641 3.36258 139.863 3.27807C141.16 3.18838 142.48 3.06227 143.797 3.01851L144.104 3.01039ZM144.11 3.59424L143.816 3.60213C142.513 3.64544 141.221 3.76946 139.903 3.8606C138.674 3.9456 137.432 4.00097 136.182 3.92795L135.932 3.9115C134.396 3.80031 132.917 4.03738 131.503 4.60461L131.366 4.66034C129.246 5.54529 127.03 6.04548 124.82 6.47506L123.873 6.65586C122.744 6.86867 121.669 7.20189 120.413 7.74895C119.828 8.05826 119.551 8.21158 119.417 8.30208C119.399 8.3142 119.385 8.32386 119.375 8.33126C119.37 8.37191 119.36 8.43107 119.331 8.50371C119.297 8.59037 119.242 8.68463 119.158 8.79618C122.212 7.80144 124.961 8.81076 127.78 10.1692L129.106 10.8084C132.21 12.3103 135.363 13.9157 138.081 16.1968L138.386 16.4568C141.524 19.1586 143.974 22.3578 145.253 26.3879L145.321 26.6106C146.016 28.9145 146.18 31.3127 146.284 33.6424L146.34 34.8564C146.466 37.5952 146.567 40.3793 146.125 43.1386L146.073 43.4451C145.786 45.0798 145.395 46.7043 145.011 48.4599C145.825 48.2353 146.471 48.0852 147.096 47.8342L147.316 47.7442C151.922 45.8378 155.484 42.6165 158.54 38.691L158.637 38.5653C160.617 35.9656 161.387 33.1656 160.659 29.9829L160.623 29.8287C160.509 29.3572 160.485 28.8781 160.651 28.3784L160.746 28.087C161.693 25.129 162.03 22.3308 159.921 19.7723L159.816 19.6468C159.644 19.4468 159.538 19.184 159.482 18.9447L159.462 18.844C159.153 17.1115 158.12 15.8228 156.956 14.5361L156.45 13.9834C154.384 11.7348 152.085 8.49632 150.687 6.68899L150.42 6.34737C149.641 5.36395 148.638 4.58711 147.776 4.24654L147.693 4.21494C146.316 3.71081 145.536 3.56604 144.11 3.59424ZM103.973 40.4316C103.973 41.2158 104.094 42.169 104.227 43.2058C104.227 43.2118 104.228 43.2178 104.229 43.2237C104.361 44.2585 104.502 45.3681 104.527 46.4256L104.534 46.5677C104.637 48.021 105.773 48.9749 107.32 49.3154L107.494 49.3547C111.138 50.1964 114.159 52.1427 116.994 54.4092L117.056 54.4557C117.382 54.6826 117.906 54.8185 118.565 54.8723C119.256 54.9287 120.044 54.8915 120.795 54.8144C121.545 54.7375 122.247 54.6222 122.763 54.5257C123.021 54.4775 123.231 54.434 123.377 54.4028C123.45 54.3872 123.507 54.3748 123.545 54.3662C123.563 54.3622 123.576 54.3587 123.586 54.3565L123.587 54.3563C123.598 54.3525 123.614 54.3469 123.635 54.3396C123.676 54.325 123.738 54.3037 123.816 54.2764C123.974 54.222 124.201 54.1441 124.483 54.05C125.047 53.8619 125.829 53.6089 126.701 53.3494C128.436 52.8332 130.556 52.2819 132.018 52.178L132.182 52.1684C132.59 52.1481 133.181 52.1395 133.782 52.0738C134.118 52.0371 134.433 51.9843 134.686 51.9073C134.951 51.8266 135.096 51.7348 135.154 51.6571L135.181 51.6216L135.217 51.5955C136.136 50.9345 137.152 50.5939 138.022 50.3819C138.456 50.276 138.86 50.201 139.194 50.136C139.538 50.069 139.791 50.0157 139.955 49.9539L140.058 49.9144C140.562 49.7168 140.895 49.517 141.158 49.2897C141.441 49.0454 141.658 48.7572 141.921 48.3654L142.018 48.2184C142.495 47.4807 142.862 46.6976 143.139 45.8334L143.189 45.6732C144.223 42.31 143.845 38.8757 143.866 35.3586L143.867 34.8825C143.853 30.0521 143.139 25.5361 139.917 21.575L139.757 21.3806C137.458 18.6377 134.629 16.789 131.64 15.0392L131.04 14.6904C130.476 14.3639 129.872 14.1044 129.245 13.8134C128.665 13.544 128.074 13.2508 127.527 12.8642L127.419 12.7857C125.678 11.4989 123.591 11.3572 121.473 11.2404C119.377 11.1248 117.403 11.4285 116.174 13.4204L116.012 13.6824L115.759 13.5069C115.555 13.3656 115.376 13.1956 115.217 13.043C115.206 13.0324 115.195 13.0219 115.184 13.0114C115.033 12.8663 114.902 12.7405 114.767 12.6402C114.625 12.5352 114.496 12.4727 114.365 12.4526C114.254 12.4356 114.119 12.4458 113.947 12.5156L113.872 12.5494C113.366 12.7916 112.902 12.9717 112.459 13.2282C112.057 13.4608 111.709 13.7385 111.446 14.1353L111.395 14.2162C110.876 15.0698 110.112 15.5262 109.137 15.67L109.042 15.683C108.335 15.7714 107.812 16.0427 107.415 16.4511C107.057 16.8192 106.789 17.3119 106.591 17.9163C106.773 18.0171 106.938 18.1271 107.077 18.2474C107.269 18.4144 107.426 18.6139 107.497 18.8482C107.643 19.3292 107.391 19.7766 106.891 20.1611L106.788 20.2372C106.042 20.7642 105.435 21.4147 104.869 22.1211C104.586 22.4745 104.314 22.8392 104.04 23.2091C104.029 23.2233 104.019 23.2374 104.008 23.2516C103.814 23.5142 103.617 23.7792 103.415 24.0413L103.2 24.3162C101.245 26.7773 101.115 29.5904 101.779 32.7626C101.846 32.8798 101.921 33.0501 102 33.2464C102.093 33.4794 102.2 33.7706 102.314 34.0999C102.541 34.7589 102.8 35.5796 103.045 36.412C103.289 37.2443 103.52 38.0917 103.689 38.804C103.856 39.5029 103.973 40.1069 103.973 40.4316Z" fill="black"/>
<path d="M99.6835 25.5333C98.1192 24.4711 96.6469 23.5663 94.745 23.855L94.6542 23.8697C90.5327 24.5731 86.5113 25.6728 82.5846 27.0775L82.2048 27.2144C79.6726 28.1343 77.0618 28.8818 74.5215 29.7168C72.0508 30.5289 69.6248 31.4301 67.3214 32.6713L67.0989 32.7926C65.4896 33.6784 63.9424 34.6607 62.401 35.6592C60.9582 36.5938 59.518 37.5442 58.0459 38.4356L57.7513 38.6131C55.8043 39.7779 53.9638 41.101 52.0421 42.3645C50.189 43.5829 48.2765 44.7341 46.1804 45.5824L45.977 45.6633C45.8295 45.7213 45.6876 45.8327 45.5346 45.9731L45.3775 46.1223C41.1888 50.1812 37.3869 54.5664 34.3108 59.501L34.0155 59.9804C32.7762 62.014 31.5582 64.1051 30.8845 66.3623L30.8209 66.5813C29.1083 72.6691 28.4669 78.8978 28.7124 85.2332L28.7282 85.5877C28.8183 87.3554 29.0724 89.0495 29.6203 90.7272L29.6594 90.8419C30.0759 92.011 30.8589 92.6546 32.0338 93.0516L32.3763 93.1641C34.0904 93.7134 35.848 94.0603 37.6373 94.4135L37.6425 94.4145L38.6259 94.6081C43.5432 95.5718 48.4542 96.4572 53.4397 96.5029L54.1282 96.5108C61.2426 96.6088 68.2987 97.172 75.2987 95.5386L75.4472 95.5028C76.9632 95.1237 77.907 94.481 78.6324 93.2545L78.7688 93.0193C79.0831 92.4679 79.3744 91.8922 79.7829 91.157L79.7891 91.146L79.7963 91.1355L79.8448 91.0618C79.9556 90.8895 80.0495 90.717 80.1739 90.5152C80.307 90.2994 80.463 90.0727 80.6691 89.8862L80.76 89.8024C81.6915 88.9306 82.35 87.8681 82.9769 86.7436C83.6176 85.5943 84.2326 84.3646 85.067 83.2822L85.1176 83.2148C85.6273 82.5214 85.6751 81.9333 85.4724 81.5059C85.2639 81.0661 84.7437 80.6943 83.9089 80.5424L83.8273 80.5284C81.4831 80.1516 79.2536 79.4052 77.453 77.6952L77.2802 77.5267C76.431 76.6775 75.5723 75.8374 74.71 74.9995L73.8466 74.1621C72.648 73.0007 71.5421 71.8904 69.9521 71.5081L69.7968 71.4734C64.8453 70.4515 59.918 70.2574 55.0372 71.6079L54.8049 71.6735C52.844 72.236 50.9385 72.9417 48.9853 73.5958L48.5941 73.7259C48.4033 73.7888 48.12 73.8886 47.852 73.8735C47.7073 73.8654 47.5553 73.8243 47.4174 73.723C47.2976 73.6351 47.2045 73.5137 47.135 73.365L47.1067 73.2993C47.0435 73.1421 47.0198 72.9858 47.0431 72.834C47.0664 72.6817 47.1336 72.5551 47.2186 72.4527C47.3789 72.2593 47.618 72.1351 47.7994 72.0487L48.2358 71.842C52.75 69.718 57.4129 67.9703 62.6189 68.3462L62.7599 68.3576C63.2256 68.3988 63.6414 68.468 64.0711 68.4522C63.4205 68.0317 62.7432 67.779 62.0339 67.6889L61.9453 67.6783C60.7613 67.5507 59.5702 67.3498 58.4078 67.1937C57.3091 67.046 56.2171 66.9353 55.1144 66.9495L54.8939 66.9541C53.0659 67.0057 51.2351 66.9905 49.4098 66.9699L47.5868 66.9497C47.4712 66.9486 47.35 66.9585 47.1907 66.9648C47.044 66.9706 46.8742 66.9726 46.7126 66.9462C46.5508 66.9197 46.3696 66.8604 46.2242 66.7219C46.092 66.596 46.0152 66.4294 45.9884 66.2329L45.98 66.1466C45.9649 65.9009 46.0162 65.6866 46.1415 65.5136C46.2644 65.3441 46.4356 65.2458 46.6018 65.1859C46.7666 65.1264 46.9449 65.0979 47.1054 65.0799C47.1867 65.0708 47.2677 65.064 47.343 65.0577L47.359 65.0564C47.4295 65.0505 47.4942 65.0452 47.5554 65.0386L48.1853 64.9743C51.3353 64.6677 54.502 64.5869 57.6552 64.7764L58.2728 64.8153C61.3698 65.02 64.57 65.429 67.0867 67.781L67.2108 67.8927C67.8375 68.4352 68.5417 68.7324 69.3093 68.9518C69.6999 69.0634 70.102 69.1536 70.5196 69.2473L70.5864 69.2622C70.8584 69.3233 71.1363 69.3862 71.4171 69.4573C69.3118 62.5286 69.0717 55.7162 70.5445 48.7008L70.6163 48.3596L70.9395 48.4902C71.2321 48.6084 71.4531 48.7551 71.6131 48.931C71.775 49.1091 71.8622 49.304 71.9057 49.4984C71.9482 49.6877 71.9485 49.8742 71.9424 50.0348C71.9357 50.2095 71.9236 50.3328 71.9272 50.4622L71.9369 50.8712C71.9774 52.9183 71.9015 54.987 71.9108 57.0105C71.9208 59.1833 72.0278 61.3403 72.4718 63.4892L72.5723 63.9605C73.6378 68.8104 75.5753 73.0301 79.5747 76.1642L79.711 76.2693C82.5851 78.4464 86.0984 78.7616 89.1648 76.9178L89.5264 76.7021C93.268 74.4837 97.1905 72.635 101.111 70.8093L101.607 70.5789C102.775 70.0426 104.001 69.5327 105.338 69.4169L105.433 69.4073C105.895 69.3531 106.12 69.2148 106.251 69.0376C106.405 68.8284 106.479 68.5031 106.514 67.9776L106.521 67.8514C106.583 66.5521 106.268 65.3522 105.845 64.1518C105.442 63.0072 104.924 61.8261 104.591 60.6121L104.528 60.369C104.311 59.5076 103.834 59.0261 103.242 58.6944C102.7 58.3909 102.088 58.2232 101.452 58.0171L101.178 57.9261C100.98 57.8579 100.86 57.881 100.772 57.9263C100.67 57.9792 100.57 58.0846 100.458 58.2547C100.343 58.4303 100.252 58.6159 100.126 58.836C100.024 59.014 99.9027 59.207 99.7473 59.365L99.6787 59.4303C99.6124 59.4892 99.5487 59.5628 99.4689 59.6549L99.4553 59.6706C99.376 59.7622 99.278 59.8744 99.1655 59.9642C99.0497 60.0565 98.8995 60.141 98.7117 60.1546C98.5458 60.1666 98.3829 60.1208 98.2238 60.0293L98.1557 59.9872C97.9971 59.8824 97.8829 59.7504 97.8205 59.5916C97.7591 59.4355 97.7576 59.279 97.7795 59.1407C97.8198 58.8862 97.9589 58.613 98.0313 58.4439L98.1332 58.212C98.6517 57.0582 99.322 55.9934 100.254 55.0885L100.393 54.9511C101.078 54.2581 101.656 53.4727 102.288 52.678C102.898 51.9114 103.552 51.1465 104.377 50.5112C104.068 50.0948 103.734 49.6719 103.472 49.2573C103.172 48.7821 102.933 48.2708 102.868 47.6777L102.857 47.5582C102.776 46.3876 102.593 44.9893 102.41 43.6928C102.251 42.5647 102.092 41.5074 102.004 40.7609L101.971 40.4607C101.768 38.4472 101.286 36.4143 100.905 35.1166L100.83 34.8671C100.309 33.1629 99.73 31.8283 99.8627 30.065L99.8788 29.8265C99.9114 29.2814 99.912 28.8107 99.9325 28.313C99.9557 27.7513 100.004 27.1836 100.156 26.5191L100.169 26.4546C100.193 26.3047 100.179 26.1609 100.122 26.0241C100.065 25.8865 99.9571 25.7395 99.7691 25.595L99.6835 25.5333Z" fill="#E2F9FB"/>
<path d="M144.11 3.59424L143.816 3.60213C142.513 3.64544 141.221 3.76946 139.903 3.8606C138.674 3.9456 137.432 4.00097 136.182 3.92795L135.932 3.9115C134.396 3.80031 132.917 4.03738 131.503 4.60461L131.366 4.66034C129.246 5.54529 127.03 6.04548 124.82 6.47506L123.873 6.65586C122.744 6.86867 121.669 7.20189 120.413 7.74895C119.828 8.05826 119.551 8.21158 119.417 8.30208C119.399 8.3142 119.385 8.32386 119.375 8.33126C119.37 8.37191 119.36 8.43107 119.331 8.50371C119.297 8.59037 119.242 8.68463 119.158 8.79618C122.212 7.80144 124.961 8.81076 127.78 10.1692L129.106 10.8084C132.21 12.3103 135.363 13.9157 138.081 16.1968L138.386 16.4568C141.524 19.1586 143.974 22.3578 145.253 26.3879L145.321 26.6106C146.016 28.9145 146.18 31.3127 146.284 33.6424L146.34 34.8564C146.466 37.5952 146.567 40.3793 146.125 43.1386L146.073 43.4451C145.786 45.0798 145.395 46.7043 145.011 48.4599C145.825 48.2353 146.471 48.0852 147.096 47.8342L147.316 47.7442C151.922 45.8378 155.484 42.6165 158.54 38.691L158.637 38.5653C160.617 35.9656 161.387 33.1656 160.659 29.9829L160.623 29.8287C160.509 29.3572 160.485 28.8781 160.651 28.3784L160.746 28.087C161.693 25.129 162.03 22.3308 159.921 19.7723L159.816 19.6468C159.644 19.4468 159.538 19.184 159.482 18.9447L159.462 18.844C159.153 17.1115 158.12 15.8228 156.956 14.5361L156.45 13.9834C154.384 11.7348 152.085 8.49632 150.687 6.68899L150.42 6.34737C149.641 5.36395 148.638 4.58711 147.776 4.24654L147.693 4.21494C146.316 3.71081 145.536 3.56604 144.11 3.59424Z" fill="#E2F9FB"/>
<path d="M106.925 51.303C106.826 51.2943 106.727 51.3084 106.607 51.4092L106.554 51.4579C105.136 52.8841 103.754 54.2925 102.69 55.9782C103.348 56.2474 103.869 56.459 104.284 56.6377C104.761 56.8436 105.115 57.014 105.384 57.191C105.661 57.3731 105.853 57.5642 106.006 57.8093C106.152 58.0445 106.257 58.3207 106.375 58.6517L106.483 58.9496C106.738 59.6436 107.021 60.3331 107.298 61.0351C107.614 61.8337 107.922 62.6443 108.165 63.4714C108.648 65.1173 108.877 66.8425 108.403 68.7135C108.406 68.7209 108.41 68.731 108.416 68.744C108.423 68.7582 108.43 68.7713 108.437 68.7854L108.44 68.7925C109.436 68.6561 110.417 68.5236 111.397 68.3864L111.549 68.364C113.113 68.1214 114.46 67.5402 115.544 66.3393L115.778 66.0826C116.327 65.4861 116.894 64.9047 117.471 64.3137L117.519 64.2649C118.138 63.6307 118.77 62.984 119.411 62.289C119.384 61.5895 119.384 60.9213 119.322 60.2507L119.308 60.109C119.249 59.5408 119.127 58.9439 118.91 58.4467C118.706 57.9788 118.43 57.6287 118.071 57.4497L117.998 57.4164C116.586 56.8222 115.433 55.8964 114.263 55.1126L114.029 54.9579C111.905 53.5779 109.887 52.1341 107.471 51.4518C107.37 51.4234 107.241 51.3794 107.163 51.3557C107.07 51.3273 106.994 51.309 106.925 51.303Z" fill="#E2F9FB"/>
<path d="M130.634 54.489C130.02 54.4952 129.433 54.5226 129.03 54.5414L129.018 54.5419L128.685 54.5564C126.921 54.6193 125.688 55.222 124.377 55.8213C123.167 56.3742 121.901 56.9165 120.155 56.9442C120.408 57.5594 120.711 58.4329 120.954 59.3094C121.107 59.8624 121.238 60.4229 121.318 60.926C121.351 61.1296 121.375 61.3284 121.389 61.5163C121.616 61.2991 121.849 61.0685 122.084 60.8353L122.175 60.7448C122.614 60.3104 123.062 59.8719 123.481 59.5201L123.497 59.5067L123.515 59.4959C123.958 59.2203 124.713 58.7861 125.483 58.3884C126.244 57.9949 127.05 57.6212 127.58 57.4844L127.688 57.4554C128.79 57.1492 129.399 56.6338 130.035 56.0363C130.549 55.5539 131.086 55.0115 131.898 54.5191C131.518 54.4919 131.078 54.4846 130.634 54.489Z" fill="#FEE2D6"/>
<path d="M104.229 43.2237C104.361 44.2585 104.502 45.3681 104.527 46.4256L104.534 46.5677C104.637 48.021 105.773 48.9749 107.32 49.3154L107.494 49.3547C111.138 50.1964 114.159 52.1427 116.994 54.4092L117.056 54.4557C117.382 54.6826 117.906 54.8185 118.565 54.8723C119.256 54.9287 120.044 54.8915 120.795 54.8144C121.545 54.7375 122.247 54.6222 122.763 54.5257C123.021 54.4775 123.231 54.434 123.377 54.4028C123.45 54.3872 123.507 54.3748 123.545 54.3662C123.563 54.3622 123.576 54.3587 123.586 54.3565L123.587 54.3563L123.635 54.3396C123.676 54.325 123.738 54.3037 123.816 54.2764C123.974 54.222 124.201 54.1441 124.483 54.05C125.047 53.8619 125.829 53.6089 126.701 53.3494C128.436 52.8332 130.556 52.2819 132.018 52.178L132.182 52.1684C132.59 52.1481 133.181 52.1395 133.782 52.0738C134.118 52.0371 134.433 51.9843 134.686 51.9073C134.951 51.8266 135.096 51.7348 135.154 51.6571L135.181 51.6216L135.217 51.5955C136.136 50.9345 137.152 50.5939 138.022 50.3819C138.456 50.276 138.86 50.201 139.194 50.136C139.538 50.069 139.791 50.0157 139.955 49.9539L140.058 49.9144C140.562 49.7168 140.895 49.517 141.158 49.2897C141.441 49.0454 141.658 48.7572 141.921 48.3654L142.018 48.2184C142.495 47.4807 142.862 46.6976 143.139 45.8334L143.189 45.6732C144.223 42.31 143.845 38.8757 143.866 35.3586L143.867 34.8825C143.853 30.0521 143.139 25.5361 139.917 21.575L139.757 21.3806C137.458 18.6377 134.629 16.789 131.64 15.0392L131.04 14.6904C130.476 14.3639 129.872 14.1044 129.245 13.8134C128.665 13.544 128.074 13.2508 127.527 12.8642L127.419 12.7857C125.678 11.4989 123.591 11.3572 121.473 11.2404C119.377 11.1248 117.403 11.4285 116.174 13.4204L116.012 13.6824L115.759 13.5069C115.555 13.3656 115.376 13.1956 115.217 13.043L115.184 13.0114C115.033 12.8663 114.902 12.7405 114.767 12.6402C114.625 12.5352 114.496 12.4727 114.365 12.4526C114.254 12.4356 114.119 12.4458 113.947 12.5156L113.872 12.5494C113.366 12.7916 112.902 12.9717 112.459 13.2282C112.057 13.4608 111.709 13.7385 111.446 14.1353L111.395 14.2162C110.876 15.0698 110.112 15.5262 109.137 15.67L109.042 15.683C108.335 15.7714 107.812 16.0427 107.415 16.4511C107.057 16.8192 106.789 17.3119 106.591 17.9163C106.773 18.0171 106.938 18.1271 107.077 18.2474C107.269 18.4144 107.426 18.6139 107.497 18.8482C107.643 19.3292 107.391 19.7766 106.891 20.1611L106.788 20.2372C106.042 20.7642 105.435 21.4147 104.869 22.1211C104.586 22.4745 104.314 22.8392 104.04 23.2091L104.008 23.2516C103.814 23.5142 103.617 23.7792 103.415 24.0413L103.2 24.3162C101.245 26.7773 101.115 29.5904 101.779 32.7626C101.846 32.8798 101.921 33.0501 102 33.2464C102.093 33.4794 102.2 33.7706 102.314 34.0999C102.541 34.7589 102.8 35.5796 103.045 36.412C103.289 37.2443 103.52 38.0917 103.689 38.804C103.856 39.5029 103.973 40.1069 103.973 40.4316C103.973 41.2158 104.094 42.169 104.227 43.2058L104.229 43.2237Z" fill="#FEE2D6"/>
<path d="M119.833 27.0285C118.097 25.2548 117.971 23.0556 117.808 20.8777C117.779 20.4876 117.926 20.0662 118.419 20.024C118.843 19.9878 118.989 20.3663 119.095 20.6775C119.266 21.1799 119.43 21.6965 119.498 22.22C119.75 24.1471 120.512 25.7024 122.26 26.7526C123.318 27.388 123.969 28.3674 123.713 30.113C122.279 28.9763 121.095 28.038 119.833 27.0285Z" fill="black"/>
<path d="M129.137 45.1355C129.683 45.7571 130.203 46.2627 130.666 46.8158C130.922 47.1215 131.035 47.5372 130.716 47.8742C130.43 48.1765 130.073 48.0152 129.783 47.8378C128.744 47.2014 127.721 46.5454 127.391 45.2464C127.059 43.9371 126.679 42.6386 126.39 41.32C126.29 40.8632 126.343 40.3492 126.431 39.8816C126.522 39.4073 126.725 38.8894 127.357 38.9763C127.936 39.0559 127.92 39.568 127.91 40.0024C127.87 41.7843 128.395 43.4306 129.137 45.1355Z" fill="black"/>
<path d="M132.423 40.1381C131.729 39.2242 130.52 39.1914 129.902 38.3345C130.689 37.4854 131.922 37.6632 133.1 38.755C135.054 40.5656 135.818 43.5476 134.528 44.9961C133.844 43.3485 133.697 41.5354 132.423 40.1381Z" fill="black"/>
<path d="M127.91 25.1403C127.685 25.9289 128.28 27.6215 126.912 27.9132C127.311 24.6735 123.847 21.1998 122.26 18.2809C123.901 18.8975 127.934 21.5902 127.91 25.1403Z" fill="black"/>
<path d="M118.421 38.9277C120.128 39.8763 120.342 40.437 119.568 41.739C116.597 39.9559 115.516 37.2558 116.927 35.0704C117.794 35.4031 117.734 36.1678 117.753 36.8763C117.772 37.5947 117.635 38.3471 118.421 38.9277Z" fill="black"/>
<path d="M109.41 34.3193C109.313 35.2922 109.322 37.3257 110.14 37.676C111.161 38.1138 113.204 41.6165 113.35 42.0543C113.496 42.4921 113.496 42.4921 113.642 43.8056C113.788 45.1191 115.236 47.4697 116.55 47.6157C114.944 47.1778 114.956 43.0759 115.248 42.4921C115.539 41.9083 113.788 38.2598 112.329 37.0922C110.811 36.8587 109.459 35.3409 109.41 34.3193Z" fill="black"/>
<path d="M109.418 34.0274C109.57 34.0314 109.694 34.1527 109.702 34.3054C109.721 34.7133 110.016 35.2835 110.525 35.7954C110.996 36.2685 111.609 36.6485 112.246 36.7806L112.373 36.8036L112.41 36.812C112.447 36.8226 112.481 36.8403 112.511 36.8642L112.584 36.9245C113.342 37.5661 114.135 38.7741 114.704 39.8771C115.001 40.4519 115.245 41.0138 115.397 41.4748C115.473 41.7046 115.529 41.9174 115.555 42.0986C115.579 42.2623 115.589 42.4629 115.509 42.6225C115.494 42.6512 115.467 42.7398 115.443 42.9049C115.42 43.0604 115.402 43.259 115.394 43.4879C115.377 43.9457 115.398 44.5097 115.476 45.0681C115.555 45.6292 115.689 46.1683 115.891 46.5855C116.095 47.0074 116.343 47.2568 116.626 47.3341C116.773 47.3742 116.865 47.5206 116.836 47.6702C116.81 47.8106 116.686 47.9095 116.546 47.9074L116.517 47.9057C116.112 47.8606 115.724 47.6505 115.378 47.3703C115.029 47.0878 114.703 46.7174 114.42 46.3169C113.859 45.5232 113.433 44.5605 113.352 43.8378C113.279 43.1762 113.243 42.8584 113.208 42.6495C113.176 42.4544 113.145 42.363 113.073 42.1466C113.063 42.1167 113.026 42.0333 112.953 41.8928C112.884 41.759 112.79 41.5884 112.678 41.3925C112.453 41.0009 112.155 40.5137 111.831 40.0269C111.506 39.5393 111.157 39.0571 110.829 38.6723C110.666 38.4799 110.511 38.3158 110.37 38.1887C110.244 38.0753 110.139 38.0011 110.058 37.9599L110.025 37.9443C109.725 37.8157 109.529 37.5468 109.401 37.26C109.271 36.9696 109.191 36.6218 109.143 36.2709C109.046 35.5678 109.069 34.7919 109.12 34.2903L109.124 34.2622C109.151 34.1243 109.274 34.0237 109.418 34.0274ZM109.674 35.6938C109.683 35.8614 109.699 36.0291 109.721 36.1915C109.765 36.5143 109.835 36.8013 109.934 37.0211C110.034 37.2443 110.146 37.3612 110.255 37.4076L110.319 37.4375C110.468 37.5127 110.617 37.626 110.76 37.755C110.927 37.905 111.1 38.0897 111.274 38.2941C111.622 38.7028 111.985 39.2057 112.316 39.7031C112.648 40.2014 112.953 40.6997 113.184 41.1016C113.299 41.3025 113.397 41.4808 113.472 41.624C113.542 41.7606 113.601 41.8824 113.627 41.9619C113.701 42.1833 113.744 42.311 113.784 42.5536C113.822 42.7826 113.86 43.1216 113.932 43.7733C113.998 44.3641 114.369 45.2336 114.896 45.9799C114.981 46.1 115.07 46.2153 115.16 46.3248C115.038 45.9524 114.954 45.5477 114.898 45.149C114.815 44.5543 114.793 43.956 114.81 43.4668C114.819 43.2223 114.838 43.0012 114.865 42.8189C114.891 42.6463 114.928 42.4789 114.987 42.3617C114.98 42.3752 114.999 42.3338 114.977 42.182C114.958 42.0474 114.913 41.8704 114.843 41.6578C114.703 41.234 114.473 40.7012 114.186 40.145C113.622 39.0528 112.869 37.9283 112.204 37.3671C111.399 37.2211 110.659 36.7569 110.112 36.2073C109.951 36.046 109.804 35.8728 109.674 35.6938Z" fill="black"/>
</svg>
