<svg width="24" height="24" viewBox="0 0 24 24" fill="none" xmlns="http://www.w3.org/2000/svg">
<path fill-rule="evenodd" clip-rule="evenodd" d="M8.136 1.603C8.24131 1.77157 8.2754 1.97506 8.23077 2.16875C8.18615 2.36244 8.06646 2.53049 7.898 2.63599L3.898 5.136C3.72932 5.24155 3.52562 5.27578 3.33171 5.23114C3.1378 5.18651 2.96956 5.06667 2.864 4.89799C2.75844 4.72932 2.72422 4.52562 2.76885 4.3317C2.81349 4.13779 2.93332 3.96955 3.102 3.864L7.102 1.36399C7.18557 1.31174 7.27862 1.27647 7.37583 1.2602C7.47304 1.24393 7.57251 1.24698 7.66854 1.26917C7.76457 1.29137 7.85528 1.33228 7.93549 1.38956C8.01571 1.44684 8.08384 1.51937 8.136 1.603ZM15.864 1.603C15.9162 1.51937 15.9843 1.44684 16.0645 1.38956C16.1447 1.33228 16.2354 1.29137 16.3315 1.26917C16.4275 1.24698 16.527 1.24393 16.6242 1.2602C16.7214 1.27647 16.8144 1.31174 16.898 1.36399L20.898 3.864C21.0667 3.96955 21.1865 4.13779 21.2311 4.3317C21.2758 4.52562 21.2416 4.72932 21.136 4.89799C21.0304 5.06667 20.8622 5.18651 20.6683 5.23114C20.4744 5.27578 20.2707 5.24155 20.102 5.136L16.102 2.63599C15.9335 2.53049 15.8139 2.36244 15.7692 2.16875C15.7246 1.97506 15.7587 1.77157 15.864 1.603ZM12 4.74999C9.81196 4.74999 7.71354 5.61919 6.16637 7.16636C4.61919 8.71354 3.75 10.812 3.75 13C3.75 15.188 4.61919 17.2865 6.16637 18.8336C7.71354 20.3808 9.81196 21.25 12 21.25C14.188 21.25 16.2865 20.3808 17.8336 18.8336C19.3808 17.2865 20.25 15.188 20.25 13C20.25 10.812 19.3808 8.71354 17.8336 7.16636C16.2865 5.61919 14.188 4.74999 12 4.74999ZM2.25 13C2.25 7.615 6.615 3.24999 12 3.24999C17.385 3.24999 21.75 7.615 21.75 13C21.75 18.385 17.385 22.75 12 22.75C6.615 22.75 2.25 18.385 2.25 13ZM9 10.75C8.80109 10.75 8.61032 10.671 8.46967 10.5303C8.32902 10.3897 8.25 10.1989 8.25 10C8.25 9.80108 8.32902 9.61032 8.46967 9.46967C8.61032 9.32901 8.80109 9.25 9 9.25H15C15.1482 9.25013 15.2931 9.29418 15.4163 9.3766C15.5395 9.45902 15.6356 9.57611 15.6923 9.71307C15.749 9.85003 15.7638 10.0007 15.735 10.1461C15.7061 10.2915 15.6348 10.4251 15.53 10.53L10.81 15.25H15C15.1989 15.25 15.3897 15.329 15.5303 15.4697C15.671 15.6103 15.75 15.8011 15.75 16C15.75 16.1989 15.671 16.3897 15.5303 16.5303C15.3897 16.671 15.1989 16.75 15 16.75H9C8.85176 16.7499 8.70688 16.7058 8.58367 16.6234C8.46045 16.541 8.36442 16.4239 8.30771 16.2869C8.251 16.15 8.23615 15.9993 8.26503 15.8539C8.29392 15.7085 8.36524 15.5749 8.47 15.47L13.19 10.75H9Z" fill="black"/>
</svg>
