<svg width="80" height="24" viewBox="0 0 80 24" fill="none" xmlns="http://www.w3.org/2000/svg">
<g clip-path="url(#clip0_109_198)">
<mask id="path-1-inside-1_109_198" fill="white">
<path d="M0 0H80V24H0V0Z"/>
</mask>
<path d="M0 0H80V24H0V0Z" fill="white"/>
<path fill-rule="evenodd" clip-rule="evenodd" d="M36.136 1.103C36.2413 1.27157 36.2754 1.47506 36.2308 1.66875C36.1861 1.86244 36.0665 2.03049 35.898 2.13599L31.898 4.636C31.7293 4.74155 31.5256 4.77578 31.3317 4.73114C31.1378 4.68651 30.9696 4.56667 30.864 4.39799C30.7584 4.22932 30.7242 4.02562 30.7689 3.8317C30.8135 3.63779 30.9333 3.46955 31.102 3.364L35.102 0.863995C35.1856 0.811739 35.2786 0.776467 35.3758 0.760197C35.473 0.743927 35.5725 0.746978 35.6685 0.769175C35.7646 0.791371 35.8553 0.832279 35.9355 0.889558C36.0157 0.946838 36.0838 1.01937 36.136 1.103ZM43.864 1.103C43.9162 1.01937 43.9843 0.946838 44.0645 0.889558C44.1447 0.832279 44.2354 0.791371 44.3315 0.769175C44.4275 0.746978 44.527 0.743927 44.6242 0.760197C44.7214 0.776467 44.8144 0.811739 44.898 0.863995L48.898 3.364C49.0667 3.46955 49.1865 3.63779 49.2311 3.8317C49.2758 4.02562 49.2416 4.22932 49.136 4.39799C49.0304 4.56667 48.8622 4.68651 48.6683 4.73114C48.4744 4.77578 48.2707 4.74155 48.102 4.636L44.102 2.13599C43.9335 2.03049 43.8139 1.86244 43.7692 1.66875C43.7246 1.47506 43.7587 1.27157 43.864 1.103ZM40 4.24999C37.812 4.24999 35.7135 5.11919 34.1664 6.66636C32.6192 8.21354 31.75 10.312 31.75 12.5C31.75 14.688 32.6192 16.7865 34.1664 18.3336C35.7135 19.8808 37.812 20.75 40 20.75C42.188 20.75 44.2865 19.8808 45.8336 18.3336C47.3808 16.7865 48.25 14.688 48.25 12.5C48.25 10.312 47.3808 8.21354 45.8336 6.66636C44.2865 5.11919 42.188 4.24999 40 4.24999ZM30.25 12.5C30.25 7.115 34.615 2.74999 40 2.74999C45.385 2.74999 49.75 7.115 49.75 12.5C49.75 17.885 45.385 22.25 40 22.25C34.615 22.25 30.25 17.885 30.25 12.5ZM37 10.25C36.8011 10.25 36.6103 10.171 36.4697 10.0303C36.329 9.88967 36.25 9.69891 36.25 9.5C36.25 9.30108 36.329 9.11032 36.4697 8.96967C36.6103 8.82901 36.8011 8.75 37 8.75H43C43.1482 8.75013 43.2931 8.79418 43.4163 8.8766C43.5395 8.95902 43.6356 9.07611 43.6923 9.21307C43.749 9.35003 43.7638 9.50073 43.735 9.64613C43.7061 9.79153 43.6348 9.92511 43.53 10.03L38.81 14.75H43C43.1989 14.75 43.3897 14.829 43.5303 14.9697C43.671 15.1103 43.75 15.3011 43.75 15.5C43.75 15.6989 43.671 15.8897 43.5303 16.0303C43.3897 16.171 43.1989 16.25 43 16.25H37C36.8518 16.2499 36.7069 16.2058 36.5837 16.1234C36.4605 16.041 36.3644 15.9239 36.3077 15.7869C36.251 15.65 36.2362 15.4993 36.265 15.3539C36.2939 15.2085 36.3652 15.0749 36.47 14.97L41.19 10.25H37Z" fill="#ADADAD"/>
</g>
<path d="M80 24V23H0V24V25H80V24Z" fill="#ADADAD" mask="url(#path-1-inside-1_109_198)"/>
<defs>
<clipPath id="clip0_109_198">
<path d="M0 0H80V24H0V0Z" fill="white"/>
</clipPath>
</defs>
</svg>
