<svg width="38" height="38" viewBox="0 0 38 38" fill="none" xmlns="http://www.w3.org/2000/svg">
<path d="M16.3068 18.9153C18.3989 18.9153 20.0949 17.2193 20.0949 15.1272C20.0949 13.035 18.3989 11.339 16.3068 11.339C14.2147 11.339 12.5187 13.035 12.5187 15.1272C12.5187 17.2193 14.2147 18.9153 16.3068 18.9153Z" stroke="#FFC760" stroke-width="2.2" stroke-linecap="round" stroke-linejoin="round"/>
<path d="M6.45758 15.1272C6.45758 12.5152 7.49517 10.0103 9.34209 8.16335C11.189 6.31643 13.694 5.27884 16.3059 5.27884C18.9179 5.27884 21.4228 6.31643 23.2697 8.16335C25.1167 10.0103 26.1542 12.5152 26.1542 15.1272C26.1542 18.0801 25.0507 20.98 22.7976 22.534C16.7207 26.7243 17.1475 33.6458 11.5915 33.6458C6.44966 33.6458 6.45679 29.0162 6.45679 29.0162M27.4922 25.4719C30.1658 22.5809 31.6162 18.767 31.5393 14.83C31.4624 10.8929 29.8642 7.13858 27.0797 4.35417" stroke="#FFC760" stroke-width="2.2" stroke-linecap="round" stroke-linejoin="round"/>
</svg>
