<svg width="80" height="24" viewBox="0 0 80 24" fill="none" xmlns="http://www.w3.org/2000/svg">
<mask id="path-1-inside-1_109_211" fill="white">
<path d="M0 0H80V24H0V0Z"/>
</mask>
<path d="M0 0H80V24H0V0Z" fill="white"/>
<path d="M80 24V23H0V24V25H80V24Z" fill="#ADADAD" mask="url(#path-1-inside-1_109_211)"/>
<path d="M38.9408 11.4509C40.152 11.4509 41.1339 10.4691 41.1339 9.25782C41.1339 8.04659 40.152 7.0647 38.9408 7.0647C37.7296 7.0647 36.7477 8.04659 36.7477 9.25782C36.7477 10.4691 37.7296 11.4509 38.9408 11.4509Z" stroke="#ADADAD" stroke-linecap="round" stroke-linejoin="round"/>
<path d="M33.2386 9.25784C33.2386 7.74567 33.8393 6.29543 34.9086 5.22616C35.9779 4.15689 37.4281 3.55618 38.9403 3.55618C40.4525 3.55618 41.9027 4.15689 42.972 5.22616C44.0412 6.29543 44.642 7.74567 44.642 9.25784C44.642 10.9674 44.003 12.6463 42.6986 13.546C39.1805 15.972 39.4275 19.9792 36.2109 19.9792C33.234 19.9792 33.2382 17.2988 33.2382 17.2988M45.4165 15.2469C46.9644 13.5731 47.8041 11.3651 47.7596 9.08577C47.7151 6.80644 46.7898 4.63287 45.1777 3.02084" stroke="#ADADAD" stroke-width="1.2" stroke-linecap="round" stroke-linejoin="round"/>
</svg>
