<svg width="22" height="22" viewBox="0 0 22 22" fill="none" xmlns="http://www.w3.org/2000/svg">
<path d="M9.44081 10.9509C10.652 10.9509 11.6339 9.96905 11.6339 8.75782C11.6339 7.54659 10.652 6.5647 9.44081 6.5647C8.22958 6.5647 7.24768 7.54659 7.24768 8.75782C7.24768 9.96905 8.22958 10.9509 9.44081 10.9509Z" stroke="black" stroke-linecap="round" stroke-linejoin="round"/>
<path d="M3.73862 8.75784C3.73862 7.24567 4.33933 5.79543 5.4086 4.72616C6.47787 3.65689 7.92811 3.05618 9.44028 3.05618C10.9525 3.05618 12.4027 3.65689 13.472 4.72616C14.5412 5.79543 15.142 7.24567 15.142 8.75784C15.142 10.4674 14.503 12.1463 13.1986 13.046C9.68045 15.472 9.92749 19.4792 6.71091 19.4792C3.73403 19.4792 3.73816 16.7988 3.73816 16.7988M15.9165 14.7469C17.4644 13.0731 18.3041 10.8651 18.2596 8.58577C18.2151 6.30644 17.2898 4.13287 15.6777 2.52084" stroke="black" stroke-width="1.2" stroke-linecap="round" stroke-linejoin="round"/>
</svg>
