<?xml version="1.0" encoding="UTF-8"?>
<!DOCTYPE svg PUBLIC "-//W3C//DTD SVG 1.1//EN" "http://www.w3.org/Graphics/SVG/1.1/DTD/svg11.dtd">
<!-- Creator: CorelDRAW -->
<svg xmlns="http://www.w3.org/2000/svg" xml:space="preserve" width="2048px" height="2048px" style="shape-rendering:geometricPrecision; text-rendering:geometricPrecision; image-rendering:optimizeQuality; fill-rule:evenodd; clip-rule:evenodd"
viewBox="0 0 2048 2048"
 xmlns:xlink="http://www.w3.org/1999/xlink">
 <defs>
  <style type="text/css">
   <![CDATA[
    .fil0 {fill:#3F51B5}
    .fil1 {fill:#FFFFFE}
   ]]>
  </style>
 </defs>
 <g id="Layer_x0020_1">
  <metadata id="CorelCorpID_0Corel-Layer"/>
  <circle class="fil0" cx="1024" cy="1024" r="1024"/>
  <g id="_294333768">
   <path id="_294335016" class="fil1" d="M532.571 1515.43l1017.14 0c18.9307,0 34.2851,15.3543 34.2851,34.2862 0,18.9307 -15.3543,34.2851 -34.2851,34.2851l-1051.43 0c-18.9307,0 -34.2851,-15.3543 -34.2851,-34.2851l0 -1051.43c0,-18.9307 15.3543,-34.2851 34.2851,-34.2851 18.9319,0 34.2862,15.3543 34.2862,34.2851l0 1017.14z"/>
   <g>
    <path id="_294334992" class="fil1" d="M809.436 986.85l-0.0531496 -0.0366142 5.85827 -8.52166c9.68741,-14.0906 28.9937,-17.6658 43.0866,-7.97953 3.27756,2.25355 5.85,5.08465 8.1756,8.28308l132.826 182.634 118.826 -271.602 -0.0555119 -0.0236221 4.14095 -9.46182c0.258662,-0.591733 0.533859,-1.17165 0.825591,-1.73977l3.35079 -7.65945 1.56614 0.682678c8.73072,-9.30119 22.7575,-12.6331 35.0622,-7.25197 1.11614,0.488977 2.05512,1.08071 3.11575,1.61102l131.678 65.8382 112.66 -337.98c5.38819,-16.1669 22.8295,-24.965 39.0225,-19.611 16.2,5.35512 25.0276,22.8555 19.6288,39.0555l-123.337 370.009c-0.693308,2.07638 -1.22126,3.95788 -2.21693,5.94922 -7.65001,15.3 -26.2713,21.5067 -41.5713,13.8567l-9.27284 -4.63701 0.0389764 -0.0779528 -126.867 -63.4347 -130.934 299.277c-2.44016,5.57835 -5.75434,10.4764 -10.7362,14.1 -10.9228,7.9441 -25.304,7.70906 -35.8264,0.45l-1.39016 1.00748 -5.24528 -7.21182c-0.279921,-0.351969 -0.553937,-0.711024 -0.820867,-1.07953l-6.0756 -8.35158 0.0248032 -0.0177165 -133.458 -183.506 -202.459 294.486c-9.67796,14.0764 -28.976,17.5925 -43.024,7.89213 -14.0398,-9.6945 -17.5465,-28.9441 -7.88623,-42.9945l221.342 -321.955z"/>
    <path id="_294335496" class="fil1" d="M1437.72 608.11l-44.8548 25.7622c-14.7697,8.48386 -33.691,3.37441 -42.1784,-11.3941 -8.48741,-14.7697 -3.37677,-33.6981 11.3953,-42.1819l69.9426 -40.1729c0.562205,-0.354331 1.08307,-0.725197 1.66772,-1.06181 14.8146,-8.50631 33.7925,-3.37677 42.3,11.4378l5.16615 8.9941 -0.0779528 0.0448819 35.9847 62.6504c8.48386,14.7697 3.37441,33.6922 -11.3941,42.1796 -14.7697,8.48741 -33.6981,3.37677 -42.1819,-11.3953l-25.7693 -44.863z"/>
   </g>
   <polygon id="_294334272" class="fil1" points="1520.19,978.285 1520.19,1504 1454.48,1504 1454.48,978.285 "/>
   <polygon id="_294334632" class="fil1" points="1410.67,1175.43 1410.67,1504 1344.95,1504 1344.95,1175.43 "/>
   <polygon id="_294334920" class="fil1" points="1301.14,1109.72 1301.14,1504 1235.42,1504 1235.42,1109.72 "/>
   <polygon id="_294334728" class="fil1" points="1191.61,1153.52 1191.61,1504 1125.9,1504 1125.9,1153.52 "/>
   <polygon id="_294334176" class="fil1" points="1082.08,1328.76 1082.08,1504 1016.37,1504 1016.37,1328.76 "/>
   <polygon id="_294333552" class="fil1" points="972.556,1328.76 972.556,1504 906.84,1504 906.84,1328.76 "/>
   <polygon id="_294334104" class="fil1" points="863.027,1197.33 863.027,1504 797.313,1504 797.313,1197.33 "/>
   <polygon id="_294333864" class="fil1" points="753.5,1328.76 753.5,1504 687.786,1504 687.786,1328.76 "/>
  </g>
 </g>
</svg>
