<svg width="31" height="38" viewBox="0 0 31 38" fill="none" xmlns="http://www.w3.org/2000/svg">
<path d="M15 4.75H5.50004V19C4.17078 19.9969 3.1889 21.3868 2.69348 22.9728C2.19805 24.5588 2.2142 26.2605 2.73963 27.8368C3.26507 29.4131 4.27315 30.7841 5.62108 31.7557C6.96902 32.7272 8.58847 33.25 10.25 33.25C11.9116 33.25 13.5311 32.7272 14.879 31.7557C16.2269 30.7841 17.235 29.4131 17.7604 27.8368C18.2859 26.2605 18.302 24.5588 17.8066 22.9728C17.3112 21.3868 16.3293 19.9969 15 19V4.75ZM15 4.75H18.1667M15 9.5H18.1667M15 14.25H18.1667M26.0834 11.0833C26.9232 11.0833 27.7287 10.7497 28.3225 10.1558C28.9164 9.56197 29.25 8.75652 29.25 7.91667C29.25 7.07681 28.9164 6.27136 28.3225 5.6775C27.7287 5.08363 26.9232 4.75 26.0834 4.75C25.2435 4.75 24.4381 5.08363 23.8442 5.6775C23.2503 6.27136 22.9167 7.07681 22.9167 7.91667C22.9167 8.75652 23.2503 9.56197 23.8442 10.1558C24.4381 10.7497 25.2435 11.0833 26.0834 11.0833Z" stroke="#F2B077" stroke-width="2.6875" stroke-linecap="round" stroke-linejoin="round"/>
<path d="M10.25 22.1667C9.41019 22.1667 8.60473 22.5003 8.01087 23.0942C7.417 23.688 7.08337 24.4935 7.08337 25.3333C7.08337 26.1732 7.417 26.9786 8.01087 27.5725C8.60473 28.1664 9.41019 28.5 10.25 28.5C11.0899 28.5 11.8953 28.1664 12.4892 27.5725C13.0831 26.9786 13.4167 26.1732 13.4167 25.3333C13.4167 24.4935 13.0831 23.688 12.4892 23.0942C11.8953 22.5003 11.0899 22.1667 10.25 22.1667ZM10.25 22.1667V17.4167" stroke="#F2B077" stroke-width="2.6875" stroke-linecap="round" stroke-linejoin="round"/>
</svg>
