<svg width="283" height="39" viewBox="0 0 283 39" fill="none" xmlns="http://www.w3.org/2000/svg">
<path d="M282.183 16.3265L281.86 17.2728L281.926 17.2954L281.994 17.3086L282.183 16.3265ZM280.3 15.6837L280.623 14.7374L280.3 15.6837ZM277.382 15.0763L277.416 16.0757L277.382 15.0763ZM276.347 15.1116L276.313 14.1122L276.347 15.1116ZM275.312 15.1469L275.278 14.1475L275.312 15.1469ZM273.305 14.8885L273.015 15.8457L273.305 14.8885ZM271.361 14.3009L271.65 13.3437L271.361 14.3009ZM269.409 13.7507L269.663 12.7833L269.409 13.7507ZM268.43 13.4942L268.683 12.5269L268.43 13.4942ZM267.451 13.2378L267.198 14.2052L267.451 13.2378ZM265.463 12.8799L265.363 13.8749L265.463 12.8799ZM264.454 12.7784L264.354 13.7734L264.454 12.7784ZM263.445 12.6769L263.545 11.682L263.445 12.6769ZM261.441 12.4027L261.27 13.388L261.441 12.4027ZM259.45 12.0572L259.621 11.0719L259.45 12.0572ZM257.832 11.0878L258.619 10.4718L257.832 11.0878ZM257.209 10.2913L256.421 10.9074L257.209 10.2913ZM256.586 9.49472L257.373 8.87864L256.586 9.49472ZM255.379 7.87013L254.562 8.44602L255.379 7.87013ZM254.213 6.21409L255.03 5.6382L254.213 6.21409ZM253.001 4.59542L253.784 3.97303L253.001 4.59542ZM252.372 3.80477L251.589 4.42716L252.372 3.80477ZM250.484 1.92937L250.061 2.8357L250.484 1.92937ZM249.853 1.63528L250.276 0.72895L249.853 1.63528ZM249.222 1.34118L248.8 2.2475L249.222 1.34118ZM246.393 5.6063L247.344 5.91566L246.393 5.6063ZM245.766 7.53145L244.815 7.22208L245.766 7.53145ZM244.922 9.36939L244.067 8.85083L244.922 9.36939ZM244.391 10.2448L243.536 9.7262L244.391 10.2448ZM243.86 11.1201L244.716 11.6387L243.86 11.1201ZM242.981 12.9438L242.042 12.5986L242.981 12.9438ZM242.283 14.8404L243.222 15.1856L242.283 14.8404ZM241.572 16.7314L240.638 16.3723L241.572 16.7314ZM240.846 18.6168L241.779 18.9759L240.846 18.6168ZM240.133 20.5071L241.071 20.8542L240.133 20.5071ZM239.431 22.4022L238.494 22.0551L239.431 22.4022ZM238.435 22.9148L237.876 23.744L238.435 22.9148ZM237.145 22.0448L237.703 21.2156L237.145 22.0448ZM235.729 20.951L235.079 21.7107L235.729 20.951ZM234.959 20.292L234.309 21.0518L234.959 20.292ZM234.189 19.6331L234.839 18.8733L234.189 19.6331ZM232.931 18.5825L233.556 17.8023L232.931 18.5825ZM232.442 18.1908L233.068 17.4107L232.442 18.1908ZM231.954 17.7992L231.328 18.5794L231.954 17.7992ZM230.801 18.1684L231.555 18.8261L230.801 18.1684ZM229.473 19.6902L230.226 20.3478L229.473 19.6902ZM228.048 21.1284L228.712 21.8754L228.048 21.1284ZM226.525 22.483L225.861 21.7359L226.525 22.483ZM225.062 23.8887L224.342 23.1949L225.062 23.8887ZM224.361 24.6172L225.081 25.311L224.361 24.6172ZM223.659 25.3457L222.939 24.6519L223.659 25.3457ZM222.432 26.9555L223.292 27.467L222.432 26.9555ZM221.383 28.7181L222.242 29.2296L221.383 28.7181ZM220.041 30.2224L219.435 29.427L220.041 30.2224ZM218.406 31.4683L219.012 32.2637L218.406 31.4683ZM216.826 31.4191L217.488 30.6691L216.826 31.4191ZM215.302 30.075L215.963 29.3249L215.302 30.075ZM212.097 27.6092L211.505 28.4152L212.097 27.6092ZM210.453 26.4348L211.024 25.6136L210.453 26.4348ZM209.624 25.8583L210.194 25.0372L209.624 25.8583ZM208.794 25.2819L208.224 26.103L208.794 25.2819ZM207.088 24.8564L207.258 25.8419L207.088 24.8564ZM205.334 25.1581L205.165 24.1726L205.334 25.1581ZM203.431 25.46L203.577 26.4493L203.431 25.46ZM202.405 25.6109L202.55 26.6002L202.405 25.6109ZM201.379 25.7618L201.233 24.7724L201.379 25.7618ZM199.503 26.511L200.078 27.3286L199.503 26.511ZM197.803 27.7076L197.228 26.8899L197.803 27.7076ZM195.962 28.5458L196.198 29.5177L195.962 28.5458ZM193.98 29.0257L193.744 28.0537L193.98 29.0257ZM191.052 29.8493L191.341 30.8067L191.052 29.8493ZM190.084 30.1411L190.373 31.0985L190.084 30.1411ZM188.155 30.7436L187.847 29.792L188.155 30.7436ZM187.193 31.0542L186.886 30.1027L187.193 31.0542ZM186.232 31.3649L185.924 30.4133L186.232 31.3649ZM184.325 31.5016L184.144 32.4851L184.325 31.5016ZM183.38 31.3277L183.561 30.3442L183.38 31.3277ZM182.435 31.1537L182.254 32.1372L182.435 31.1537ZM180.508 30.7398L180.746 29.7684L180.508 30.7398ZM178.546 30.2598L178.308 31.2312L178.546 30.2598ZM176.558 29.8869L176.689 28.8955L176.558 29.8869ZM175.551 29.754L175.42 30.7454L175.551 29.754ZM174.544 29.621L174.413 30.6124L174.544 29.621ZM172.525 29.2569L172.748 28.282L172.525 29.2569ZM170.502 28.7946L170.279 29.7694L170.502 28.7946ZM168.687 27.9338L169.304 27.1469L168.687 27.9338ZM167.884 27.3043L168.501 26.5174L167.884 27.3043ZM167.081 26.6747L166.464 27.4617L167.081 26.6747ZM165.346 25.641L164.948 26.5585L165.346 25.641ZM163.48 24.8325L163.878 23.915L163.48 24.8325ZM161.716 23.848L162.288 23.028L161.716 23.848ZM160.885 23.2678L160.312 24.0878L160.885 23.2678ZM160.054 22.6875L159.481 23.5075L160.054 22.6875ZM158.496 21.4825L157.844 22.2407L158.496 21.4825ZM157.769 20.8578L158.421 20.0996L157.769 20.8578ZM157.043 20.233L156.391 20.9912L157.043 20.233ZM155.619 18.8508L154.883 19.5284L155.619 18.8508ZM154.223 17.336L154.958 16.6584L154.223 17.336ZM153.081 15.6666L153.979 15.2284L153.081 15.6666ZM152.191 13.8428L151.293 14.281L152.191 13.8428ZM151.283 12.0306L150.394 12.4884L151.283 12.0306ZM150.356 10.23L151.245 9.77228L150.356 10.23ZM149.358 9.13545L149.699 8.19545L149.358 9.13545ZM148.287 8.74692L147.946 9.68693L148.287 8.74692ZM147.152 9.37L147.958 9.96185L147.152 9.37ZM146.552 10.1873L147.358 10.7792L146.552 10.1873ZM145.951 11.0047L145.145 10.4128L145.951 11.0047ZM144.833 12.6891L143.975 12.1762L144.833 12.6891ZM144.315 13.5561L143.457 13.0432L144.315 13.5561ZM143.797 14.4232L142.939 13.9102L143.797 14.4232ZM142.552 15.1554L142.735 14.1722L142.552 15.1554ZM141.098 14.8858L140.916 15.8691L141.098 14.8858ZM139.689 13.9852L138.943 14.6504L139.689 13.9852ZM138.325 12.4536L137.578 13.1188L138.325 12.4536ZM136.75 11.1887L136.262 12.0615L136.75 11.1887ZM134.964 10.1903L135.453 9.31746L134.964 10.1903ZM133.231 9.08654L133.815 8.27461L133.231 9.08654ZM129.089 4.69334L129.936 4.16171L129.089 4.69334ZM127.907 3.0537L127.135 3.68956L127.907 3.0537ZM125.286 1.16603L124.74 0.328223L125.286 1.16603ZM123.9 2.06961L124.446 2.90741L123.9 2.06961ZM122.68 3.39172L121.824 2.87421L122.68 3.39172ZM121.627 5.13234L122.483 5.64985L121.627 5.13234ZM120.523 6.83242L119.702 6.2606L120.523 6.83242ZM119.366 8.49196L120.186 9.06378L119.366 8.49196ZM118.165 10.1465L118.963 10.749L118.165 10.1465ZM117.542 10.9713L116.744 10.3687L117.542 10.9713ZM116.92 11.796L117.718 12.3986L116.92 11.796ZM115.429 13.1488L115.949 14.003L115.429 13.1488ZM113.695 14.2046L113.175 13.3504L113.695 14.2046ZM111.966 15.2683L112.494 16.1175L111.966 15.2683ZM110.243 16.3399L109.715 15.4907L110.243 16.3399ZM108.549 17.4493L107.981 16.6258L108.549 17.4493ZM106.883 18.5966L107.451 19.4201L106.883 18.5966ZM102.058 22.3274L102.744 23.055L102.058 22.3274ZM101.29 23.0513L100.604 22.3237L101.29 23.0513ZM98.7442 24.3221L98.5716 25.3071L98.7442 24.3221ZM96.7242 23.9681L96.8969 22.9831L96.7242 23.9681ZM94.7042 23.8508L94.7633 24.8491L94.7042 23.8508ZM92.6842 23.9703L92.6252 22.9721L92.6842 23.9703ZM90.6642 23.8918L90.5286 24.8826L90.6642 23.8918ZM88.6442 23.6153L88.7798 22.6245L88.6442 23.6153ZM86.7721 23.8302L87.1511 24.7556L86.7721 23.8302ZM85.9099 24.1833L86.2889 25.1087L85.9099 24.1833ZM85.0478 24.5364L84.6687 23.611L85.0478 24.5364ZM83.4124 25.563L82.7557 24.8089L83.4124 25.563ZM81.8661 26.9098L82.5229 27.6639L81.8661 26.9098ZM80.6475 28.5223L79.7439 28.0937L80.6475 28.5223ZM79.7566 30.4004L80.6601 30.829L79.7566 30.4004ZM78.5299 32.0064L79.1792 32.767L78.5299 32.0064ZM77.7487 32.6733L77.0994 31.9127L77.7487 32.6733ZM76.9674 33.3401L76.3182 32.5795L76.9674 33.3401ZM75.3737 34.0216L75.3916 35.0214L75.3737 34.0216ZM71.9595 33.7989L71.6962 34.7636L71.9595 33.7989ZM70.0065 33.2659L70.2698 32.3011L70.0065 33.2659ZM68.1001 32.598L67.7038 33.5161L68.1001 32.598ZM67.1702 32.1966L67.5665 31.2785L67.1702 32.1966ZM66.2403 31.7953L65.844 32.7134L66.2403 31.7953ZM64.3311 31.1352L64.5866 30.1684L64.3311 31.1352ZM63.352 30.8765L63.6074 29.9097L63.352 30.8765ZM62.3728 30.6178L62.1173 31.5846L62.3728 30.6178ZM60.4393 30.0282L60.1117 30.973L60.4393 30.0282ZM58.5308 29.3664L58.8585 28.4216L58.5308 29.3664ZM56.0241 27.7593L55.3891 28.5318L56.0241 27.7593ZM55.2479 27.1212L55.8829 26.3487L55.2479 27.1212ZM53.8639 25.6762L54.6627 25.0746L53.8639 25.6762ZM52.6484 24.0624L51.8496 24.664L52.6484 24.0624ZM51.5431 22.3621L50.6694 22.8485L51.5431 22.3621ZM50.5482 20.5752L51.4219 20.0887L50.5482 20.5752ZM49.4095 18.9011L48.6368 19.5359L49.4095 18.9011ZM48.1269 17.3399L48.8996 16.7051L48.1269 17.3399ZM46.9997 17.324L46.1557 16.7876L46.9997 17.324ZM46.5138 18.0887L45.6698 17.5524L46.5138 18.0887ZM46.0278 18.8534L46.8718 19.3898L46.0278 18.8534ZM44.9617 20.4498L44.1416 19.8777L44.9617 20.4498ZM43.8014 22.1132L44.6216 22.6853L43.8014 22.1132ZM42.8118 23.8742L43.7269 24.2774L42.8118 23.8742ZM42.4023 24.8036L41.4872 24.4004L42.4023 24.8036ZM41.9928 25.733L42.9079 26.1362L41.9928 25.733ZM40.9206 27.4468L41.6845 28.0921L40.9206 27.4468ZM40.2579 28.2312L39.494 27.5858L40.2579 28.2312ZM39.5951 29.0156L38.8313 28.3702L39.5951 29.0156ZM38.5244 30.7302L37.6086 30.3285L38.5244 30.7302ZM37.7084 32.5906L38.6241 32.9923L37.7084 32.5906ZM36.8058 34.4015L35.9339 33.9118L36.8058 34.4015ZM36.3112 35.2821L37.1831 35.7718L36.3112 35.2821ZM35.8166 36.1628L34.9447 35.6731L35.8166 36.1628ZM34.7492 37.2528L35.0925 38.192L34.7492 37.2528ZM34.1764 37.4621L33.8332 36.5228L34.1764 37.4621ZM33.6036 37.6714L33.9468 38.6106L33.6036 37.6714ZM32.5659 36.984L33.4537 36.5237L32.5659 36.984ZM32.101 36.0874L31.2132 36.5477L32.101 36.0874ZM31.6361 35.1908L32.5239 34.7305L31.6361 35.1908ZM30.8219 33.3375L29.8825 33.6805L30.8219 33.3375ZM30.4725 32.3809L31.4118 32.0379L30.4725 32.3809ZM30.1232 31.4243L29.1839 31.7673L30.1232 31.4243ZM29.0013 30.0629L29.4655 29.1771L29.0013 30.0629ZM28.2288 29.6582L28.693 28.7724L28.2288 29.6582ZM27.4564 29.2534L26.9922 30.1392L27.4564 29.2534ZM22.7336 32.1504L23.1262 33.0701L22.7336 32.1504ZM20.8671 32.9473L20.4744 32.0277L20.8671 32.9473ZM18.9165 33.8598L19.3675 34.7524L18.9165 33.8598ZM17.8993 34.3738L17.4483 33.4813L17.8993 34.3738ZM16.882 34.8878L16.431 33.9953L16.882 34.8878ZM15.2655 34.5877L16.0709 33.9949L15.2655 34.5877ZM14.0673 32.9595L13.2619 33.5522L14.0673 32.9595ZM12.9501 31.2664L12.0886 31.7742L12.9501 31.2664ZM11.914 29.5085L11.0525 30.0163L11.914 29.5085ZM9.72738 26.0842L8.89106 26.6325L9.72738 26.0842ZM8.45887 24.5122L9.17151 23.8106L8.45887 24.5122ZM7.74654 23.7886L7.0339 24.4901L7.74654 23.7886ZM7.03422 23.065L7.74686 22.3634L7.03422 23.065ZM5.64805 21.587L4.90226 22.2532L5.64805 21.587ZM4.97421 20.8326L4.22842 21.4988L4.97421 20.8326ZM4.30036 20.0782L5.04616 19.4121L4.30036 20.0782ZM3.08681 18.4622L3.93428 17.9314L3.08681 18.4622ZM2.00739 16.739L2.85486 16.2081L2.00739 16.739ZM1.29601 15.8174L1.62574 14.8733L1.29601 15.8174ZM1.12434 15.7574L1.45407 14.8134L1.36495 14.7822L1.27158 14.7683L1.12434 15.7574ZM0.843455 15.7156L0.0624245 16.3401L0.307716 16.6469L0.696221 16.7047L0.843455 15.7156ZM282.281 16.3453L282.469 15.3632L282.371 15.3444L282.183 16.3265L281.994 17.3086L282.093 17.3274L282.281 16.3453ZM282.183 16.3265L282.506 15.3801L280.623 14.7374L280.3 15.6837L279.977 16.6301L281.86 17.2728L282.183 16.3265ZM280.3 15.6837L280.623 14.7374C279.339 14.299 278.226 14.047 277.348 14.0769L277.382 15.0763L277.416 16.0757C277.919 16.0586 278.751 16.2116 279.977 16.6301L280.3 15.6837ZM277.382 15.0763L277.348 14.0769L276.313 14.1122L276.347 15.1116L276.381 16.1111L277.416 16.0757L277.382 15.0763ZM276.347 15.1116L276.313 14.1122L275.278 14.1475L275.312 15.1469L275.346 16.1464L276.381 16.1111L276.347 15.1116ZM275.312 15.1469L275.278 14.1475C274.695 14.1674 274.135 14.0948 273.594 13.9312L273.305 14.8885L273.015 15.8457C273.77 16.0739 274.549 16.1736 275.346 16.1464L275.312 15.1469ZM273.305 14.8885L273.594 13.9312L272.622 13.6375L272.333 14.5947L272.043 15.5519L273.015 15.8457L273.305 14.8885ZM272.333 14.5947L272.622 13.6375L271.65 13.3437L271.361 14.3009L271.071 15.2582L272.043 15.5519L272.333 14.5947ZM271.361 14.3009L271.65 13.3437C270.99 13.1442 270.328 12.9574 269.663 12.7833L269.409 13.7507L269.156 14.7181C269.797 14.8859 270.435 15.0659 271.071 15.2582L271.361 14.3009ZM269.409 13.7507L269.663 12.7833L268.683 12.5269L268.43 13.4942L268.177 14.4616L269.156 14.7181L269.409 13.7507ZM268.43 13.4942L268.683 12.5269L267.704 12.2704L267.451 13.2378L267.198 14.2052L268.177 14.4616L268.43 13.4942ZM267.451 13.2378L267.704 12.2704C267.001 12.0863 266.287 11.9577 265.563 11.8849L265.463 12.8799L265.363 13.8749C265.984 13.9373 266.595 14.0474 267.198 14.2052L267.451 13.2378ZM265.463 12.8799L265.563 11.8849L264.554 11.7834L264.454 12.7784L264.354 13.7734L265.363 13.8749L265.463 12.8799ZM264.454 12.7784L264.554 11.7834L263.545 11.682L263.445 12.6769L263.345 13.6719L264.354 13.7734L264.454 12.7784ZM263.445 12.6769L263.545 11.682C262.896 11.6167 262.252 11.5285 261.612 11.4174L261.441 12.4027L261.27 13.388C261.957 13.5072 262.648 13.6019 263.345 13.6719L263.445 12.6769ZM261.441 12.4027L261.612 11.4174L260.616 11.2447L260.445 12.2299L260.274 13.2152L261.27 13.388L261.441 12.4027ZM260.445 12.2299L260.616 11.2447L259.621 11.0719L259.45 12.0572L259.279 13.0424L260.274 13.2152L260.445 12.2299ZM259.45 12.0572L259.621 11.0719C259.202 10.9992 258.882 10.8078 258.619 10.4718L257.832 11.0878L257.044 11.7039C257.612 12.43 258.371 12.8848 259.279 13.0424L259.45 12.0572ZM257.832 11.0878L258.619 10.4718L257.996 9.67521L257.209 10.2913L256.421 10.9074L257.044 11.7039L257.832 11.0878ZM257.209 10.2913L257.996 9.67521L257.373 8.87864L256.586 9.49472L255.798 10.1108L256.421 10.9074L257.209 10.2913ZM256.586 9.49472L257.373 8.87864C256.968 8.36077 256.576 7.83264 256.197 7.29425L255.379 7.87013L254.562 8.44602C254.96 9.01166 255.372 9.56659 255.798 10.1108L256.586 9.49472ZM255.379 7.87013L256.197 7.29425L255.614 6.46622L254.796 7.04211L253.979 7.618L254.562 8.44602L255.379 7.87013ZM254.796 7.04211L255.614 6.46622L255.03 5.6382L254.213 6.21409L253.395 6.78997L253.979 7.618L254.796 7.04211ZM254.213 6.21409L255.03 5.6382C254.63 5.07039 254.215 4.51533 253.784 3.97303L253.001 4.59542L252.218 5.2178C252.625 5.7297 253.018 6.25375 253.395 6.78997L254.213 6.21409ZM253.001 4.59542L253.784 3.97303L253.155 3.18238L252.372 3.80477L251.589 4.42716L252.218 5.2178L253.001 4.59542ZM252.372 3.80477L253.155 3.18238L252.526 2.39173L251.743 3.01412L250.961 3.63651L251.589 4.42716L252.372 3.80477ZM251.743 3.01412L252.526 2.39173C252.051 1.79411 251.516 1.30736 250.907 1.02305L250.484 1.92937L250.061 2.8357C250.293 2.94352 250.598 3.17993 250.961 3.63651L251.743 3.01412ZM250.484 1.92937L250.907 1.02305L250.276 0.72895L249.853 1.63528L249.431 2.5416L250.061 2.8357L250.484 1.92937ZM249.853 1.63528L250.276 0.72895L249.645 0.434851L249.222 1.34118L248.8 2.2475L249.431 2.5416L249.853 1.63528ZM249.222 1.34118L249.645 0.434851C249.182 0.218836 248.646 0.196574 248.15 0.468784C247.718 0.706111 247.432 1.10543 247.235 1.48185L248.12 1.94624L249.006 2.41063C249.059 2.30875 249.102 2.24962 249.127 2.21932C249.153 2.1891 249.151 2.20114 249.113 2.22201C249.069 2.24612 249.002 2.26813 248.924 2.26868C248.85 2.26921 248.806 2.25015 248.8 2.2475L249.222 1.34118ZM248.12 1.94624L247.235 1.48185L246.763 2.38101L247.649 2.8454L248.534 3.30979L249.006 2.41063L248.12 1.94624ZM247.649 2.8454L246.763 2.38101L246.292 3.28017L247.177 3.74456L248.063 4.20895L248.534 3.30979L247.649 2.8454ZM247.177 3.74456L246.292 3.28017C245.951 3.92921 245.668 4.60164 245.442 5.29693L246.393 5.6063L247.344 5.91566C247.535 5.32752 247.775 4.75879 248.063 4.20895L247.177 3.74456ZM246.393 5.6063L245.442 5.29693L245.129 6.25951L246.079 6.56887L247.03 6.87824L247.344 5.91566L246.393 5.6063ZM246.079 6.56887L245.129 6.25951L244.815 7.22208L245.766 7.53145L246.717 7.84081L247.03 6.87824L246.079 6.56887ZM245.766 7.53145L244.815 7.22208C244.631 7.78977 244.382 8.3323 244.067 8.85083L244.922 9.36939L245.777 9.88795C246.171 9.23932 246.484 8.55655 246.717 7.84081L245.766 7.53145ZM244.922 9.36939L244.067 8.85083L243.536 9.7262L244.391 10.2448L245.246 10.7633L245.777 9.88795L244.922 9.36939ZM244.391 10.2448L243.536 9.7262L243.005 10.6016L243.86 11.1201L244.716 11.6387L245.246 10.7633L244.391 10.2448ZM243.86 11.1201L243.005 10.6016C242.619 11.2394 242.297 11.9053 242.042 12.5986L242.981 12.9438L243.919 13.289C244.129 12.7179 244.394 12.168 244.716 11.6387L243.86 11.1201ZM242.981 12.9438L242.042 12.5986L241.693 13.5469L242.632 13.8921L243.571 14.2373L243.919 13.289L242.981 12.9438ZM242.632 13.8921L241.693 13.5469L241.345 14.4952L242.283 14.8404L243.222 15.1856L243.571 14.2373L242.632 13.8921ZM242.283 14.8404L241.345 14.4952C241.114 15.1227 240.878 15.7484 240.638 16.3723L241.572 16.7314L242.505 17.0905C242.749 16.4574 242.987 15.8224 243.222 15.1856L242.283 14.8404ZM241.572 16.7314L240.638 16.3723L240.276 17.315L241.209 17.6741L242.142 18.0332L242.505 17.0905L241.572 16.7314ZM241.209 17.6741L240.276 17.315L239.913 18.2577L240.846 18.6168L241.779 18.9759L242.142 18.0332L241.209 17.6741ZM240.846 18.6168L239.913 18.2577C239.67 18.8902 239.43 19.5243 239.195 20.16L240.133 20.5071L241.071 20.8542C241.303 20.2265 241.539 19.6004 241.779 18.9759L240.846 18.6168ZM240.133 20.5071L239.195 20.16L238.844 21.1075L239.782 21.4546L240.72 21.8017L241.071 20.8542L240.133 20.5071ZM239.782 21.4546L238.844 21.1075L238.494 22.0551L239.431 22.4022L240.369 22.7493L240.72 21.8017L239.782 21.4546ZM239.431 22.4022L238.494 22.0551C238.455 22.1596 238.427 22.2046 238.42 22.2133C238.414 22.2218 238.451 22.1655 238.549 22.1149C238.661 22.0573 238.787 22.0412 238.894 22.0578C238.984 22.072 239.02 22.1029 238.994 22.0855L238.435 22.9148L237.876 23.744C238.261 24.003 238.853 24.2081 239.465 23.8933C239.973 23.6314 240.228 23.1298 240.369 22.7493L239.431 22.4022ZM238.435 22.9148L238.994 22.0855L238.349 21.6505L237.79 22.4798L237.231 23.3091L237.876 23.744L238.435 22.9148ZM237.79 22.4798L238.349 21.6505L237.703 21.2156L237.145 22.0448L236.586 22.8741L237.231 23.3091L237.79 22.4798ZM237.145 22.0448L237.703 21.2156C237.313 20.9523 236.872 20.6126 236.379 20.1912L235.729 20.951L235.079 21.7107C235.613 22.1679 236.116 22.5575 236.586 22.8741L237.145 22.0448ZM235.729 20.951L236.379 20.1912L235.609 19.5323L234.959 20.292L234.309 21.0518L235.079 21.7107L235.729 20.951ZM234.959 20.292L235.609 19.5323L234.839 18.8733L234.189 19.6331L233.539 20.3928L234.309 21.0518L234.959 20.292ZM234.189 19.6331L234.839 18.8733C234.322 18.4308 233.894 18.0729 233.556 17.8023L232.931 18.5825L232.305 19.3627C232.619 19.6143 233.03 19.9568 233.539 20.3928L234.189 19.6331ZM232.931 18.5825L233.556 17.8023L233.068 17.4107L232.442 18.1908L231.817 18.971L232.305 19.3627L232.931 18.5825ZM232.442 18.1908L233.068 17.4107L232.58 17.019L231.954 17.7992L231.328 18.5794L231.817 18.971L232.442 18.1908ZM231.954 17.7992L232.58 17.019C232.166 16.6873 231.641 16.5753 231.117 16.7433C230.671 16.8862 230.318 17.2016 230.048 17.5108L230.801 18.1684L231.555 18.8261C231.633 18.736 231.692 18.6834 231.729 18.6554C231.766 18.6267 231.765 18.6356 231.727 18.648C231.681 18.6625 231.603 18.6755 231.508 18.657C231.415 18.6389 231.354 18.5997 231.328 18.5794L231.954 17.7992ZM230.801 18.1684L230.048 17.5108L229.384 18.2717L230.137 18.9293L230.89 19.587L231.555 18.8261L230.801 18.1684ZM230.137 18.9293L229.384 18.2717L228.72 19.0326L229.473 19.6902L230.226 20.3478L230.89 19.587L230.137 18.9293ZM229.473 19.6902L228.72 19.0326C228.305 19.5079 227.859 19.9575 227.383 20.3813L228.048 21.1284L228.712 21.8754C229.251 21.3962 229.756 20.887 230.226 20.3478L229.473 19.6902ZM228.048 21.1284L227.383 20.3813L226.622 21.0586L227.286 21.8057L227.951 22.5527L228.712 21.8754L228.048 21.1284ZM227.286 21.8057L226.622 21.0586L225.861 21.7359L226.525 22.483L227.19 23.23L227.951 22.5527L227.286 21.8057ZM226.525 22.483L225.861 21.7359C225.334 22.2044 224.828 22.6907 224.342 23.1949L225.062 23.8887L225.783 24.5825C226.233 24.1155 226.702 23.6646 227.19 23.23L226.525 22.483ZM225.062 23.8887L224.342 23.1949L223.641 23.9234L224.361 24.6172L225.081 25.311L225.783 24.5825L225.062 23.8887ZM224.361 24.6172L223.641 23.9234L222.939 24.6519L223.659 25.3457L224.379 26.0395L225.081 25.311L224.361 24.6172ZM223.659 25.3457L222.939 24.6519C222.417 25.1935 221.962 25.7914 221.573 26.4439L222.432 26.9555L223.292 27.467C223.603 26.9444 223.965 26.4691 224.379 26.0395L223.659 25.3457ZM222.432 26.9555L221.573 26.4439L221.049 27.3252L221.908 27.8368L222.767 28.3483L223.292 27.467L222.432 26.9555ZM221.908 27.8368L221.049 27.3252L220.524 28.2066L221.383 28.7181L222.242 29.2296L222.767 28.3483L221.908 27.8368ZM221.383 28.7181L220.524 28.2066C220.24 28.6839 219.878 29.089 219.435 29.427L220.041 30.2224L220.647 31.0178C221.294 30.5251 221.827 29.9273 222.242 29.2296L221.383 28.7181ZM220.041 30.2224L219.435 29.427L218.617 30.0499L219.223 30.8453L219.83 31.6407L220.647 31.0178L220.041 30.2224ZM219.223 30.8453L218.617 30.0499L217.8 30.6729L218.406 31.4683L219.012 32.2637L219.83 31.6407L219.223 30.8453ZM218.406 31.4683L217.8 30.6729C217.654 30.7837 217.606 30.7671 217.633 30.7679C217.663 30.7688 217.618 30.7839 217.488 30.6691L216.826 31.4191L216.165 32.1692C216.543 32.5024 217.015 32.7497 217.571 32.767C218.125 32.7842 218.612 32.5681 219.012 32.2637L218.406 31.4683ZM216.826 31.4191L217.488 30.6691L216.725 29.997L216.064 30.7471L215.403 31.4971L216.165 32.1692L216.826 31.4191ZM216.064 30.7471L216.725 29.997L215.963 29.3249L215.302 30.075L214.64 30.8251L215.403 31.4971L216.064 30.7471ZM215.302 30.075L215.963 29.3249C215.433 28.8573 214.884 28.4153 214.317 27.999L213.725 28.805L213.133 29.611C213.652 29.9919 214.154 30.3966 214.64 30.8251L215.302 30.075ZM213.725 28.805L214.317 27.999L213.503 27.401L212.911 28.2071L212.319 29.0131L213.133 29.611L213.725 28.805ZM212.911 28.2071L213.503 27.401L212.689 26.8031L212.097 27.6092L211.505 28.4152L212.319 29.0131L212.911 28.2071ZM212.097 27.6092L212.689 26.8031C212.139 26.3994 211.584 26.0029 211.024 25.6136L210.453 26.4348L209.882 27.2559C210.428 27.6353 210.969 28.0217 211.505 28.4152L212.097 27.6092ZM210.453 26.4348L211.024 25.6136L210.194 25.0372L209.624 25.8583L209.053 26.6795L209.882 27.2559L210.453 26.4348ZM209.624 25.8583L210.194 25.0372L209.365 24.4608L208.794 25.2819L208.224 26.103L209.053 26.6795L209.624 25.8583ZM208.794 25.2819L209.365 24.4608C208.628 23.9486 207.798 23.7196 206.919 23.8708L207.088 24.8564L207.258 25.8419C207.548 25.7919 207.855 25.8466 208.224 26.103L208.794 25.2819ZM207.088 24.8564L206.919 23.8708L206.042 24.0217L206.211 25.0072L206.381 25.9928L207.258 25.8419L207.088 24.8564ZM206.211 25.0072L206.042 24.0217L205.165 24.1726L205.334 25.1581L205.504 26.1437L206.381 25.9928L206.211 25.0072ZM205.334 25.1581L205.165 24.1726C204.589 24.2716 203.963 24.371 203.286 24.4706L203.431 25.46L203.577 26.4493C204.268 26.3477 204.91 26.2458 205.504 26.1437L205.334 25.1581ZM203.431 25.46L203.286 24.4706L202.259 24.6215L202.405 25.6109L202.55 26.6002L203.577 26.4493L203.431 25.46ZM202.405 25.6109L202.259 24.6215L201.233 24.7724L201.379 25.7618L201.524 26.7512L202.55 26.6002L202.405 25.6109ZM201.379 25.7618L201.233 24.7724C200.394 24.8959 199.621 25.2046 198.927 25.6934L199.503 26.511L200.078 27.3286C200.517 27.0198 200.995 26.829 201.524 26.7512L201.379 25.7618ZM199.503 26.511L198.927 25.6934L198.077 26.2917L198.653 27.1093L199.229 27.9269L200.078 27.3286L199.503 26.511ZM198.653 27.1093L198.077 26.2917L197.228 26.8899L197.803 27.7076L198.379 28.5252L199.229 27.9269L198.653 27.1093ZM197.803 27.7076L197.228 26.8899C196.762 27.2178 196.264 27.444 195.727 27.5738L195.962 28.5458L196.198 29.5177C196.983 29.3276 197.712 28.995 198.379 28.5252L197.803 27.7076ZM195.962 28.5458L195.727 27.5738L194.736 27.8138L194.971 28.7857L195.206 29.7577L196.198 29.5177L195.962 28.5458ZM194.971 28.7857L194.736 27.8138L193.744 28.0537L193.98 29.0257L194.215 29.9976L195.206 29.7577L194.971 28.7857ZM193.98 29.0257L193.744 28.0537C193.066 28.218 192.395 28.4001 191.732 28.6L192.02 29.5574L192.309 30.5149C192.936 30.3257 193.572 30.1533 194.215 29.9976L193.98 29.0257ZM192.02 29.5574L191.732 28.6L190.764 28.8918L191.052 29.8493L191.341 30.8067L192.309 30.5149L192.02 29.5574ZM191.052 29.8493L190.764 28.8918L189.795 29.1837L190.084 30.1411L190.373 31.0985L191.341 30.8067L191.052 29.8493ZM190.084 30.1411L189.795 29.1837C189.144 29.3801 188.494 29.5829 187.847 29.792L188.155 30.7436L188.462 31.6951C189.097 31.4901 189.734 31.2912 190.373 31.0985L190.084 30.1411ZM188.155 30.7436L187.847 29.792L186.886 30.1027L187.193 31.0542L187.501 32.0058L188.462 31.6951L188.155 30.7436ZM187.193 31.0542L186.886 30.1027L185.924 30.4133L186.232 31.3649L186.539 32.3165L187.501 32.0058L187.193 31.0542ZM186.232 31.3649L185.924 30.4133C185.433 30.5722 184.965 30.6025 184.506 30.5181L184.325 31.5016L184.144 32.4851C184.946 32.6326 185.749 32.5718 186.539 32.3165L186.232 31.3649ZM184.325 31.5016L184.506 30.5181L183.561 30.3442L183.38 31.3277L183.199 32.3111L184.144 32.4851L184.325 31.5016ZM183.38 31.3277L183.561 30.3442L182.616 30.1702L182.435 31.1537L182.254 32.1372L183.199 32.3111L183.38 31.3277ZM182.435 31.1537L182.616 30.1702C182.005 30.0579 181.382 29.924 180.746 29.7684L180.508 30.7398L180.271 31.7111C180.942 31.8755 181.603 32.0176 182.254 32.1372L182.435 31.1537ZM180.508 30.7398L180.746 29.7684L179.765 29.5284L179.527 30.4998L179.29 31.4712L180.271 31.7111L180.508 30.7398ZM179.527 30.4998L179.765 29.5284L178.784 29.2885L178.546 30.2598L178.308 31.2312L179.29 31.4712L179.527 30.4998ZM178.546 30.2598L178.784 29.2885C178.094 29.1198 177.396 28.9889 176.689 28.8955L176.558 29.8869L176.427 30.8783C177.063 30.9622 177.69 31.0799 178.308 31.2312L178.546 30.2598ZM176.558 29.8869L176.689 28.8955L175.682 28.7626L175.551 29.754L175.42 30.7454L176.427 30.8783L176.558 29.8869ZM175.551 29.754L175.682 28.7626L174.674 28.6296L174.544 29.621L174.413 30.6124L175.42 30.7454L175.551 29.754ZM174.544 29.621L174.674 28.6296C174.034 28.5452 173.392 28.4294 172.748 28.282L172.525 29.2569L172.302 30.2318C173.006 30.3927 173.71 30.5196 174.413 30.6124L174.544 29.621ZM172.525 29.2569L172.748 28.282L171.736 28.0509L171.513 29.0257L171.29 30.0006L172.302 30.2318L172.525 29.2569ZM171.513 29.0257L171.736 28.0509L170.724 27.8197L170.502 28.7946L170.279 29.7694L171.29 30.0006L171.513 29.0257ZM170.502 28.7946L170.724 27.8197C170.191 27.6978 169.721 27.4741 169.304 27.1469L168.687 27.9338L168.07 28.7208C168.723 29.233 169.463 29.5831 170.279 29.7694L170.502 28.7946ZM168.687 27.9338L169.304 27.1469L168.501 26.5174L167.884 27.3043L167.267 28.0912L168.07 28.7208L168.687 27.9338ZM167.884 27.3043L168.501 26.5174L167.699 25.8878L167.081 26.6747L166.464 27.4617L167.267 28.0912L167.884 27.3043ZM167.081 26.6747L167.699 25.8878C167.096 25.4156 166.444 25.027 165.743 24.7234L165.346 25.641L164.948 26.5585C165.491 26.7939 165.996 27.0945 166.464 27.4617L167.081 26.6747ZM165.346 25.641L165.743 24.7234L164.811 24.3192L164.413 25.2367L164.015 26.1543L164.948 26.5585L165.346 25.641ZM164.413 25.2367L164.811 24.3192L163.878 23.915L163.48 24.8325L163.083 25.7501L164.015 26.1543L164.413 25.2367ZM163.48 24.8325L163.878 23.915C163.317 23.672 162.788 23.3765 162.288 23.028L161.716 23.848L161.144 24.668C161.753 25.0932 162.399 25.4541 163.083 25.7501L163.48 24.8325ZM161.716 23.848L162.288 23.028L161.457 22.4478L160.885 23.2678L160.312 24.0878L161.144 24.668L161.716 23.848ZM160.885 23.2678L161.457 22.4478L160.626 21.8675L160.054 22.6875L159.481 23.5075L160.312 24.0878L160.885 23.2678ZM160.054 22.6875L160.626 21.8675C160.098 21.4988 159.605 21.1177 159.148 20.7243L158.496 21.4825L157.844 22.2407C158.355 22.6804 158.901 23.1025 159.481 23.5075L160.054 22.6875ZM158.496 21.4825L159.148 20.7243L158.421 20.0996L157.769 20.8578L157.117 21.616L157.844 22.2407L158.496 21.4825ZM157.769 20.8578L158.421 20.0996L157.695 19.4749L157.043 20.233L156.391 20.9912L157.117 21.616L157.769 20.8578ZM157.043 20.233L157.695 19.4749C157.242 19.0854 156.795 18.6519 156.354 18.1733L155.619 18.8508L154.883 19.5284C155.373 20.0598 155.875 20.5477 156.391 20.9912L157.043 20.233ZM155.619 18.8508L156.354 18.1733L155.656 17.4158L154.921 18.0934L154.185 18.771L154.883 19.5284L155.619 18.8508ZM154.921 18.0934L155.656 17.4158L154.958 16.6584L154.223 17.336L153.488 18.0135L154.185 18.771L154.921 18.0934ZM154.223 17.336L154.958 16.6584C154.558 16.2237 154.233 15.7477 153.979 15.2284L153.081 15.6666L152.182 16.1048C152.521 16.8014 152.957 17.4382 153.488 18.0135L154.223 17.336ZM153.081 15.6666L153.979 15.2284L153.535 14.3165L152.636 14.7547L151.737 15.1929L152.182 16.1048L153.081 15.6666ZM152.636 14.7547L153.535 14.3165L153.09 13.4047L152.191 13.8428L151.293 14.281L151.737 15.1929L152.636 14.7547ZM152.191 13.8428L153.09 13.4047C152.791 12.7902 152.485 12.1796 152.173 11.5729L151.283 12.0306L150.394 12.4884C150.7 13.0821 150.999 13.6797 151.293 14.281L152.191 13.8428ZM151.283 12.0306L152.173 11.5729L151.709 10.6726L150.82 11.1303L149.931 11.5881L150.394 12.4884L151.283 12.0306ZM150.82 11.1303L151.709 10.6726L151.245 9.77228L150.356 10.23L149.467 10.6878L149.931 11.5881L150.82 11.1303ZM150.356 10.23L151.245 9.77228C150.903 9.10643 150.419 8.45681 149.699 8.19545L149.358 9.13545L149.016 10.0755C149.004 10.0709 149.047 10.0825 149.136 10.1803C149.226 10.2787 149.34 10.4396 149.467 10.6878L150.356 10.23ZM149.358 9.13545L149.699 8.19545L149.163 8.00118L148.822 8.94119L148.481 9.88119L149.016 10.0755L149.358 9.13545ZM148.822 8.94119L149.163 8.00118L148.628 7.80692L148.287 8.74692L147.946 9.68693L148.481 9.88119L148.822 8.94119ZM148.287 8.74692L148.628 7.80692C148.141 7.62997 147.657 7.70775 147.255 7.92889C146.886 8.13135 146.588 8.44779 146.346 8.77816L147.152 9.37L147.958 9.96185C148.032 9.8604 148.094 9.79022 148.143 9.74355C148.191 9.69639 148.217 9.68212 148.217 9.68223C148.214 9.68347 148.181 9.70104 148.121 9.70741C148.058 9.71415 147.996 9.70498 147.946 9.68693L148.287 8.74692ZM147.152 9.37L146.346 8.77816L145.745 9.5955L146.552 10.1873L147.358 10.7792L147.958 9.96185L147.152 9.37ZM146.552 10.1873L145.745 9.5955L145.145 10.4128L145.951 11.0047L146.757 11.5965L147.358 10.7792L146.552 10.1873ZM145.951 11.0047L145.145 10.4128C144.727 10.9831 144.336 11.5709 143.975 12.1762L144.833 12.6891L145.692 13.202C146.021 12.6512 146.376 12.1161 146.757 11.5965L145.951 11.0047ZM144.833 12.6891L143.975 12.1762L143.457 13.0432L144.315 13.5561L145.174 14.069L145.692 13.202L144.833 12.6891ZM144.315 13.5561L143.457 13.0432L142.939 13.9102L143.797 14.4232L144.656 14.9361L145.174 14.069L144.315 13.5561ZM143.797 14.4232L142.939 13.9102C142.82 14.1096 142.737 14.1679 142.72 14.1778C142.715 14.1809 142.72 14.1768 142.734 14.1746C142.746 14.1724 142.749 14.1748 142.735 14.1722L142.552 15.1554L142.37 16.1386C142.843 16.2264 143.313 16.149 143.734 15.9017C144.132 15.6675 144.429 15.3147 144.656 14.9361L143.797 14.4232ZM142.552 15.1554L142.735 14.1722L142.008 14.0374L141.825 15.0206L141.643 16.0038L142.37 16.1386L142.552 15.1554ZM141.825 15.0206L142.008 14.0374L141.281 13.9026L141.098 14.8858L140.916 15.8691L141.643 16.0038L141.825 15.0206ZM141.098 14.8858L141.281 13.9026C141.085 13.8663 140.799 13.728 140.436 13.3201L139.689 13.9852L138.943 14.6504C139.489 15.2635 140.143 15.7256 140.916 15.8691L141.098 14.8858ZM139.689 13.9852L140.436 13.3201L139.754 12.5543L139.007 13.2194L138.26 13.8846L138.943 14.6504L139.689 13.9852ZM139.007 13.2194L139.754 12.5543L139.072 11.7885L138.325 12.4536L137.578 13.1188L138.26 13.8846L139.007 13.2194ZM138.325 12.4536L139.072 11.7885C138.543 11.195 137.931 10.7031 137.238 10.3158L136.75 11.1887L136.262 12.0615C136.76 12.3398 137.197 12.6912 137.578 13.1188L138.325 12.4536ZM136.75 11.1887L137.238 10.3158L136.345 9.81664L135.857 10.6895L135.369 11.5623L136.262 12.0615L136.75 11.1887ZM135.857 10.6895L136.345 9.81664L135.453 9.31746L134.964 10.1903L134.476 11.0631L135.369 11.5623L135.857 10.6895ZM134.964 10.1903L135.453 9.31746C134.891 9.00338 134.345 8.65584 133.815 8.27461L133.231 9.08654L132.647 9.89846C133.238 10.3233 133.848 10.7116 134.476 11.0631L134.964 10.1903ZM133.231 9.08654L133.815 8.27461L132.974 7.67003L132.39 8.48196L131.806 9.29388L132.647 9.89846L133.231 9.08654ZM132.39 8.48196L132.974 7.67003L132.133 7.06545L131.549 7.87738L130.965 8.6893L131.806 9.29388L132.39 8.48196ZM131.549 7.87738L132.133 7.06545C131.675 6.73636 131.305 6.34274 131.015 5.88135L130.168 6.41298L129.321 6.94461C129.751 7.62965 130.302 8.21229 130.965 8.6893L131.549 7.87738ZM130.168 6.41298L131.015 5.88135L130.476 5.02153L129.629 5.55316L128.782 6.0848L129.321 6.94461L130.168 6.41298ZM129.629 5.55316L130.476 5.02153L129.936 4.16171L129.089 4.69334L128.242 5.22498L128.782 6.0848L129.629 5.55316ZM129.089 4.69334L129.936 4.16171C129.554 3.55235 129.134 2.97098 128.679 2.41784L127.907 3.0537L127.135 3.68956C127.536 4.17619 127.905 4.68791 128.242 5.22498L129.089 4.69334ZM127.907 3.0537L128.679 2.41784L128.036 1.63802L127.264 2.27388L126.493 2.90974L127.135 3.68956L127.907 3.0537ZM127.264 2.27388L128.036 1.63802L127.394 0.858198L126.622 1.49406L125.85 2.12991L126.493 2.90974L127.264 2.27388ZM126.622 1.49406L127.394 0.858198C127.104 0.506673 126.715 0.176136 126.205 0.0509919C125.66 -0.0828771 125.152 0.0597577 124.74 0.328223L125.286 1.16603L125.832 2.00383C125.864 1.98342 125.864 1.98959 125.837 1.99548C125.823 1.99841 125.805 2.00057 125.784 2.00027C125.763 1.99996 125.744 1.99723 125.728 1.99328C125.695 1.98521 125.69 1.97598 125.713 1.99254C125.738 2.01024 125.785 2.05044 125.85 2.12991L126.622 1.49406ZM125.286 1.16603L124.74 0.328223L124.047 0.780016L124.593 1.61782L125.139 2.45562L125.832 2.00383L125.286 1.16603ZM124.593 1.61782L124.047 0.780016L123.354 1.23181L123.9 2.06961L124.446 2.90741L125.139 2.45562L124.593 1.61782ZM123.9 2.06961L123.354 1.23181C122.74 1.63175 122.236 2.1942 121.824 2.87421L122.68 3.39172L123.536 3.90922C123.826 3.42882 124.135 3.10986 124.446 2.90741L123.9 2.06961ZM122.68 3.39172L121.824 2.87421L121.298 3.74452L122.154 4.26203L123.009 4.77953L123.536 3.90922L122.68 3.39172ZM122.154 4.26203L121.298 3.74452L120.772 4.61483L121.627 5.13234L122.483 5.64985L123.009 4.77953L122.154 4.26203ZM121.627 5.13234L120.772 4.61483C120.432 5.17666 120.075 5.72524 119.702 6.2606L120.523 6.83242L121.343 7.40424C121.741 6.83324 122.121 6.24843 122.483 5.64985L121.627 5.13234ZM120.523 6.83242L119.702 6.2606L119.124 7.09037L119.944 7.66219L120.765 8.23401L121.343 7.40424L120.523 6.83242ZM119.944 7.66219L119.124 7.09037L118.546 7.92014L119.366 8.49196L120.186 9.06378L120.765 8.23401L119.944 7.66219ZM119.366 8.49196L118.546 7.92014C118.167 8.46272 117.774 9.004 117.367 9.54397L118.165 10.1465L118.963 10.749C119.386 10.1893 119.793 9.62755 120.186 9.06378L119.366 8.49196ZM118.165 10.1465L117.367 9.54397L116.744 10.3687L117.542 10.9713L118.34 11.5738L118.963 10.749L118.165 10.1465ZM117.542 10.9713L116.744 10.3687L116.121 11.1935L116.92 11.796L117.718 12.3986L118.34 11.5738L117.542 10.9713ZM116.92 11.796L116.121 11.1935C115.781 11.6445 115.378 12.0093 114.91 12.2945L115.429 13.1488L115.949 14.003C116.637 13.5843 117.228 13.0473 117.718 12.3986L116.92 11.796ZM115.429 13.1488L114.91 12.2945L114.042 12.8225L114.562 13.6767L115.082 14.5309L115.949 14.003L115.429 13.1488ZM114.562 13.6767L114.042 12.8225L113.175 13.3504L113.695 14.2046L114.214 15.0589L115.082 14.5309L114.562 13.6767ZM113.695 14.2046L113.175 13.3504C112.594 13.704 112.015 14.0603 111.438 14.4192L111.966 15.2683L112.494 16.1175C113.065 15.762 113.639 15.4091 114.214 15.0589L113.695 14.2046ZM111.966 15.2683L111.438 14.4192L110.576 14.955L111.104 15.8041L111.632 16.6533L112.494 16.1175L111.966 15.2683ZM111.104 15.8041L110.576 14.955L109.715 15.4907L110.243 16.3399L110.771 17.1891L111.632 16.6533L111.104 15.8041ZM110.243 16.3399L109.715 15.4907C109.127 15.8561 108.549 16.2345 107.981 16.6258L108.549 17.4493L109.116 18.2728C109.658 17.8993 110.21 17.538 110.771 17.1891L110.243 16.3399ZM108.549 17.4493L107.981 16.6258L107.149 17.1994L107.716 18.0229L108.283 18.8464L109.116 18.2728L108.549 17.4493ZM107.716 18.0229L107.149 17.1994L106.316 17.7731L106.883 18.5966L107.451 19.4201L108.283 18.8464L107.716 18.0229ZM106.883 18.5966L106.316 17.7731C105.749 18.1636 105.191 18.566 104.642 18.9802L105.244 19.7785L105.847 20.5768C106.373 20.1799 106.907 19.7943 107.451 19.4201L106.883 18.5966ZM105.244 19.7785L104.642 18.9802L103.836 19.5886L104.438 20.3868L105.04 21.1851L105.847 20.5768L105.244 19.7785ZM104.438 20.3868L103.836 19.5886L103.029 20.1969L103.632 20.9951L104.234 21.7934L105.04 21.1851L104.438 20.3868ZM103.632 20.9951L103.029 20.1969C102.462 20.6254 101.909 21.0932 101.372 21.5998L102.058 22.3274L102.744 23.055C103.23 22.5963 103.727 22.176 104.234 21.7934L103.632 20.9951ZM102.058 22.3274L101.372 21.5998L100.604 22.3237L101.29 23.0513L101.976 23.7789L102.744 23.055L102.058 22.3274ZM101.29 23.0513L100.604 22.3237L99.836 23.0476L100.522 23.7752L101.208 24.5028L101.976 23.7789L101.29 23.0513ZM100.522 23.7752L99.836 23.0476C99.5459 23.3212 99.2689 23.3988 98.9168 23.3372L98.7442 24.3221L98.5716 25.3071C99.5662 25.4814 100.474 25.1945 101.208 24.5028L100.522 23.7752ZM98.7442 24.3221L98.9168 23.3372L97.9069 23.1601L97.7342 24.1451L97.5616 25.1301L98.5716 25.3071L98.7442 24.3221ZM97.7342 24.1451L97.9069 23.1601L96.8969 22.9831L96.7242 23.9681L96.5516 24.9531L97.5616 25.1301L97.7342 24.1451ZM96.7242 23.9681L96.8969 22.9831C96.1481 22.8519 95.397 22.8081 94.6452 22.8526L94.7042 23.8508L94.7633 24.8491C95.3581 24.8139 95.9537 24.8483 96.5516 24.9531L96.7242 23.9681ZM94.7042 23.8508L94.6452 22.8526L93.6352 22.9123L93.6942 23.9106L93.7533 24.9088L94.7633 24.8491L94.7042 23.8508ZM93.6942 23.9106L93.6352 22.9123L92.6252 22.9721L92.6842 23.9703L92.7433 24.9686L93.7533 24.9088L93.6942 23.9106ZM92.6842 23.9703L92.6252 22.9721C92.0173 23.008 91.4092 22.9845 90.7999 22.9011L90.6642 23.8918L90.5286 24.8826C91.2659 24.9835 92.0045 25.0123 92.7433 24.9686L92.6842 23.9703ZM90.6642 23.8918L90.7999 22.9011L89.7898 22.7628L89.6542 23.7536L89.5186 24.7443L90.5286 24.8826L90.6642 23.8918ZM89.6542 23.7536L89.7898 22.7628L88.7798 22.6245L88.6442 23.6153L88.5086 24.6061L89.5186 24.7443L89.6542 23.7536ZM88.6442 23.6153L88.7798 22.6245C87.9491 22.5108 87.1457 22.5965 86.393 22.9048L86.7721 23.8302L87.1511 24.7556C87.548 24.593 87.9927 24.5354 88.5086 24.6061L88.6442 23.6153ZM86.7721 23.8302L86.393 22.9048L85.5309 23.2579L85.9099 24.1833L86.2889 25.1087L87.1511 24.7556L86.7721 23.8302ZM85.9099 24.1833L85.5309 23.2579L84.6687 23.611L85.0478 24.5364L85.4268 25.4618L86.2889 25.1087L85.9099 24.1833ZM85.0478 24.5364L84.6687 23.611C83.983 23.8919 83.3454 24.2952 82.7557 24.8089L83.4124 25.563L84.0692 26.3171C84.5103 25.9328 84.963 25.6518 85.4268 25.4618L85.0478 24.5364ZM83.4124 25.563L82.7557 24.8089L81.9825 25.4823L82.6393 26.2364L83.296 26.9905L84.0692 26.3171L83.4124 25.563ZM82.6393 26.2364L81.9825 25.4823L81.2093 26.1557L81.8661 26.9098L82.5229 27.6639L83.296 26.9905L82.6393 26.2364ZM81.8661 26.9098L81.2093 26.1557C80.5886 26.6963 80.099 27.3451 79.7439 28.0937L80.6475 28.5223L81.551 28.9508C81.7898 28.4474 82.1126 28.0212 82.5229 27.6639L81.8661 26.9098ZM80.6475 28.5223L79.7439 28.0937L79.2985 29.0328L80.202 29.4614L81.1055 29.8899L81.551 28.9508L80.6475 28.5223ZM80.202 29.4614L79.2985 29.0328L78.8531 29.9719L79.7566 30.4004L80.6601 30.829L81.1055 29.8899L80.202 29.4614ZM79.7566 30.4004L78.8531 29.9719C78.6158 30.4721 78.293 30.8938 77.8807 31.2458L78.5299 32.0064L79.1792 32.767C79.8085 32.2297 80.3035 31.5808 80.6601 30.829L79.7566 30.4004ZM78.5299 32.0064L77.8807 31.2458L77.0994 31.9127L77.7487 32.6733L78.3979 33.4338L79.1792 32.767L78.5299 32.0064ZM77.7487 32.6733L77.0994 31.9127L76.3182 32.5795L76.9674 33.3401L77.6167 34.1007L78.3979 33.4338L77.7487 32.6733ZM76.9674 33.3401L76.3182 32.5795C75.9261 32.9143 75.6099 33.0172 75.3557 33.0218L75.3737 34.0216L75.3916 35.0214C76.2208 35.0065 76.9671 34.6552 77.6167 34.1007L76.9674 33.3401ZM75.3737 34.0216L75.3557 33.0218L74.5432 33.0363L74.5611 34.0362L74.5791 35.036L75.3916 35.0214L75.3737 34.0216ZM74.5611 34.0362L74.5432 33.0363L73.7306 33.0509L73.7486 34.0508L73.7665 35.0506L74.5791 35.036L74.5611 34.0362ZM73.7486 34.0508L73.7306 33.0509C73.3038 33.0586 72.8036 32.9927 72.2228 32.8341L71.9595 33.7989L71.6962 34.7636C72.4174 34.9604 73.11 35.0624 73.7665 35.0506L73.7486 34.0508ZM71.9595 33.7989L72.2228 32.8341L71.2463 32.5676L70.983 33.5324L70.7197 34.4971L71.6962 34.7636L71.9595 33.7989ZM70.983 33.5324L71.2463 32.5676L70.2698 32.3011L70.0065 33.2659L69.7432 34.2306L70.7197 34.4971L70.983 33.5324ZM70.0065 33.2659L70.2698 32.3011C69.6642 32.1359 69.0732 31.9288 68.4964 31.6799L68.1001 32.598L67.7038 33.5161C68.3669 33.8023 69.0469 34.0405 69.7432 34.2306L70.0065 33.2659ZM68.1001 32.598L68.4964 31.6799L67.5665 31.2785L67.1702 32.1966L66.7739 33.1148L67.7038 33.5161L68.1001 32.598ZM67.1702 32.1966L67.5665 31.2785L66.6365 30.8771L66.2403 31.7953L65.844 32.7134L66.7739 33.1148L67.1702 32.1966ZM66.2403 31.7953L66.6365 30.8771C65.9709 30.5898 65.2875 30.3535 64.5866 30.1684L64.3311 31.1352L64.0757 32.102C64.6804 32.2618 65.2697 32.4655 65.844 32.7134L66.2403 31.7953ZM64.3311 31.1352L64.5866 30.1684L63.6074 29.9097L63.352 30.8765L63.0965 31.8433L64.0757 32.102L64.3311 31.1352ZM63.352 30.8765L63.6074 29.9097L62.6282 29.651L62.3728 30.6178L62.1173 31.5846L63.0965 31.8433L63.352 30.8765ZM62.3728 30.6178L62.6282 29.651C61.9997 29.4849 61.3793 29.2957 60.767 29.0834L60.4393 30.0282L60.1117 30.973C60.7717 31.2019 61.4403 31.4058 62.1173 31.5846L62.3728 30.6178ZM60.4393 30.0282L60.767 29.0834L59.8127 28.7525L59.4851 29.6973L59.1574 30.6421L60.1117 30.973L60.4393 30.0282ZM59.4851 29.6973L59.8127 28.7525L58.8585 28.4216L58.5308 29.3664L58.2032 30.3112L59.1574 30.6421L59.4851 29.6973ZM58.5308 29.3664L58.8585 28.4216C58.3335 28.2395 57.8609 27.9747 57.4353 27.6249L56.8003 28.3974L56.1653 29.1699C56.7747 29.6708 57.4557 30.052 58.2032 30.3112L58.5308 29.3664ZM56.8003 28.3974L57.4353 27.6249L56.6591 26.9868L56.0241 27.7593L55.3891 28.5318L56.1653 29.1699L56.8003 28.3974ZM56.0241 27.7593L56.6591 26.9868L55.8829 26.3487L55.2479 27.1212L54.6129 27.8937L55.3891 28.5318L56.0241 27.7593ZM55.2479 27.1212L55.8829 26.3487C55.4269 25.9739 55.0205 25.5497 54.6627 25.0746L53.8639 25.6762L53.0651 26.2779C53.5177 26.8787 54.0339 27.4178 54.6129 27.8937L55.2479 27.1212ZM53.8639 25.6762L54.6627 25.0746L54.0549 24.2677L53.2561 24.8693L52.4573 25.471L53.0651 26.2779L53.8639 25.6762ZM53.2561 24.8693L54.0549 24.2677L53.4471 23.4608L52.6484 24.0624L51.8496 24.664L52.4573 25.471L53.2561 24.8693ZM52.6484 24.0624L53.4471 23.4608C53.0699 22.9599 52.7264 22.4316 52.4168 21.8756L51.5431 22.3621L50.6694 22.8485C51.0231 23.4837 51.4165 24.089 51.8496 24.664L52.6484 24.0624ZM51.5431 22.3621L52.4168 21.8756L51.9194 20.9822L51.0457 21.4686L50.172 21.9551L50.6694 22.8485L51.5431 22.3621ZM51.0457 21.4686L51.9194 20.9822L51.4219 20.0887L50.5482 20.5752L49.6745 21.0617L50.172 21.9551L51.0457 21.4686ZM50.5482 20.5752L51.4219 20.0887C51.0615 19.4414 50.6482 18.8337 50.1822 18.2664L49.4095 18.9011L48.6368 19.5359C49.0258 20.0094 49.3717 20.5178 49.6745 21.0617L50.5482 20.5752ZM49.4095 18.9011L50.1822 18.2664L49.5409 17.4857L48.7682 18.1205L47.9955 18.7553L48.6368 19.5359L49.4095 18.9011ZM48.7682 18.1205L49.5409 17.4857L48.8996 16.7051L48.1269 17.3399L47.3542 17.9746L47.9955 18.7553L48.7682 18.1205ZM48.1269 17.3399L48.8996 16.7051C48.6381 16.3867 48.1855 15.9548 47.5386 15.9457C46.8294 15.9357 46.3859 16.4254 46.1557 16.7876L46.9997 17.324L47.8437 17.8603C47.8819 17.8003 47.8852 17.8147 47.8373 17.8493C47.7773 17.8925 47.662 17.9476 47.5104 17.9455C47.3685 17.9435 47.2832 17.8925 47.2684 17.8829C47.2574 17.8757 47.2879 17.8939 47.3542 17.9746L48.1269 17.3399ZM46.9997 17.324L46.1557 16.7876L45.6698 17.5524L46.5138 18.0887L47.3578 18.625L47.8437 17.8603L46.9997 17.324ZM46.5138 18.0887L45.6698 17.5524L45.1838 18.3171L46.0278 18.8534L46.8718 19.3898L47.3578 18.625L46.5138 18.0887ZM46.0278 18.8534L45.1838 18.3171C44.8684 18.8135 44.5211 19.3337 44.1416 19.8777L44.9617 20.4498L45.7819 21.022C46.1759 20.4571 46.5393 19.913 46.8718 19.3898L46.0278 18.8534ZM44.9617 20.4498L44.1416 19.8777L43.5614 20.7094L44.3816 21.2815L45.2017 21.8536L45.7819 21.022L44.9617 20.4498ZM44.3816 21.2815L43.5614 20.7094L42.9813 21.5411L43.8014 22.1132L44.6216 22.6853L45.2017 21.8536L44.3816 21.2815ZM43.8014 22.1132L42.9813 21.5411C42.5574 22.1487 42.1957 22.7923 41.8967 23.4711L42.8118 23.8742L43.7269 24.2774C43.9738 23.717 44.2719 23.1866 44.6216 22.6853L43.8014 22.1132ZM42.8118 23.8742L41.8967 23.4711L41.4872 24.4004L42.4023 24.8036L43.3174 25.2068L43.7269 24.2774L42.8118 23.8742ZM42.4023 24.8036L41.4872 24.4004L41.0777 25.3298L41.9928 25.733L42.9079 26.1362L43.3174 25.2068L42.4023 24.8036ZM41.9928 25.733L41.0777 25.3298C40.8437 25.8608 40.5375 26.3507 40.1568 26.8014L40.9206 27.4468L41.6845 28.0921C42.1873 27.497 42.596 26.8443 42.9079 26.1362L41.9928 25.733ZM40.9206 27.4468L40.1568 26.8014L39.494 27.5858L40.2579 28.2312L41.0217 28.8765L41.6845 28.0921L40.9206 27.4468ZM40.2579 28.2312L39.494 27.5858L38.8313 28.3702L39.5951 29.0156L40.359 29.661L41.0217 28.8765L40.2579 28.2312ZM39.5951 29.0156L38.8313 28.3702C38.3281 28.9658 37.9197 29.6193 37.6086 30.3285L38.5244 30.7302L39.4402 31.1319C39.6731 30.6008 39.9786 30.1112 40.359 29.661L39.5951 29.0156ZM38.5244 30.7302L37.6086 30.3285L37.2006 31.2587L38.1164 31.6604L39.0322 32.0621L39.4402 31.1319L38.5244 30.7302ZM38.1164 31.6604L37.2006 31.2587L36.7926 32.1889L37.7084 32.5906L38.6241 32.9923L39.0322 32.0621L38.1164 31.6604ZM37.7084 32.5906L36.7926 32.1889C36.5337 32.7792 36.2474 33.3535 35.9339 33.9118L36.8058 34.4015L37.6777 34.8911C38.0235 34.2753 38.339 33.6423 38.6241 32.9923L37.7084 32.5906ZM36.8058 34.4015L35.9339 33.9118L35.4393 34.7925L36.3112 35.2821L37.1831 35.7718L37.6777 34.8911L36.8058 34.4015ZM36.3112 35.2821L35.4393 34.7925L34.9447 35.6731L35.8166 36.1628L36.6885 36.6525L37.1831 35.7718L36.3112 35.2821ZM35.8166 36.1628L34.9447 35.6731C34.6607 36.1788 34.4571 36.2948 34.406 36.3135L34.7492 37.2528L35.0925 38.192C35.8051 37.9316 36.3131 37.321 36.6885 36.6525L35.8166 36.1628ZM34.7492 37.2528L34.406 36.3135L33.8332 36.5228L34.1764 37.4621L34.5196 38.4013L35.0925 38.192L34.7492 37.2528ZM34.1764 37.4621L33.8332 36.5228L33.2604 36.7321L33.6036 37.6714L33.9468 38.6106L34.5196 38.4013L34.1764 37.4621ZM33.6036 37.6714L33.2604 36.7321C33.2972 36.7187 33.3635 36.7042 33.4461 36.7144C33.528 36.7245 33.5845 36.7536 33.61 36.7705C33.6314 36.7847 33.622 36.784 33.5886 36.7418C33.5556 36.7002 33.5093 36.631 33.4537 36.5237L32.5659 36.984L31.6782 37.4443C31.8678 37.8101 32.1286 38.1882 32.5056 38.4379C32.9369 38.7236 33.4505 38.792 33.9468 38.6106L33.6036 37.6714ZM32.5659 36.984L33.4537 36.5237L32.9888 35.6271L32.101 36.0874L31.2132 36.5477L31.6782 37.4443L32.5659 36.984ZM32.101 36.0874L32.9888 35.6271L32.5239 34.7305L31.6361 35.1908L30.7483 35.6511L31.2132 36.5477L32.101 36.0874ZM31.6361 35.1908L32.5239 34.7305C32.2338 34.171 31.9795 33.5924 31.7612 32.9945L30.8219 33.3375L29.8825 33.6805C30.13 34.3581 30.4186 35.015 30.7483 35.6511L31.6361 35.1908ZM30.8219 33.3375L31.7612 32.9945L31.4118 32.0379L30.4725 32.3809L29.5332 32.7239L29.8825 33.6805L30.8219 33.3375ZM30.4725 32.3809L31.4118 32.0379L31.0625 31.0813L30.1232 31.4243L29.1839 31.7673L29.5332 32.7239L30.4725 32.3809ZM30.1232 31.4243L31.0625 31.0813C30.7595 30.2515 30.2373 29.5815 29.4655 29.1771L29.0013 30.0629L28.5372 30.9487C28.7954 31.084 29.0211 31.3216 29.1839 31.7673L30.1232 31.4243ZM29.0013 30.0629L29.4655 29.1771L28.693 28.7724L28.2288 29.6582L27.7647 30.5439L28.5372 30.9487L29.0013 30.0629ZM28.2288 29.6582L28.693 28.7724L27.9205 28.3676L27.4564 29.2534L26.9922 30.1392L27.7647 30.5439L28.2288 29.6582ZM27.4564 29.2534L27.9205 28.3676C27.483 28.1384 26.9914 28.0457 26.4826 28.1527C25.992 28.2559 25.5779 28.5251 25.2362 28.8539L25.9296 29.5745L26.623 30.295C26.7842 30.1399 26.8759 30.1137 26.8942 30.1099C26.9025 30.1082 26.9071 30.1082 26.9142 30.1093C26.9228 30.1107 26.9481 30.116 26.9922 30.1392L27.4564 29.2534ZM25.9296 29.5745L25.2362 28.8539L24.4819 29.5797L25.1753 30.3003L25.8687 31.0209L26.623 30.295L25.9296 29.5745ZM25.1753 30.3003L24.4819 29.5797L23.7277 30.3056L24.4211 31.0261L25.1145 31.7467L25.8687 31.0209L25.1753 30.3003ZM24.4211 31.0261L23.7277 30.3056C23.3094 30.7081 22.848 31.0142 22.3409 31.2307L22.7336 32.1504L23.1262 33.0701C23.8634 32.7553 24.5271 32.3119 25.1145 31.7467L24.4211 31.0261ZM22.7336 32.1504L22.3409 31.2307L21.4076 31.6292L21.8003 32.5489L22.193 33.4686L23.1262 33.0701L22.7336 32.1504ZM21.8003 32.5489L21.4076 31.6292L20.4744 32.0277L20.8671 32.9473L21.2598 33.867L22.193 33.4686L21.8003 32.5489ZM20.8671 32.9473L20.4744 32.0277C19.8303 32.3027 19.1606 32.6161 18.4656 32.9673L18.9165 33.8598L19.3675 34.7524C20.0289 34.4182 20.6595 34.1233 21.2598 33.867L20.8671 32.9473ZM18.9165 33.8598L18.4656 32.9673L17.4483 33.4813L17.8993 34.3738L18.3502 35.2663L19.3675 34.7524L18.9165 33.8598ZM17.8993 34.3738L17.4483 33.4813L16.431 33.9953L16.882 34.8878L17.3329 35.7803L18.3502 35.2663L17.8993 34.3738ZM16.882 34.8878L16.431 33.9953C16.2133 34.1053 16.1363 34.0837 16.1518 34.0866C16.1594 34.088 16.163 34.0913 16.1564 34.0868C16.147 34.0803 16.1163 34.0566 16.0709 33.9949L15.2655 34.5877L14.4601 35.1804C14.774 35.6069 15.2132 35.9465 15.7867 36.053C16.3409 36.1559 16.8725 36.013 17.3329 35.7803L16.882 34.8878ZM15.2655 34.5877L16.0709 33.9949L15.4718 33.1808L14.6664 33.7736L13.861 34.3663L14.4601 35.1804L15.2655 34.5877ZM14.6664 33.7736L15.4718 33.1808L14.8727 32.3667L14.0673 32.9595L13.2619 33.5522L13.861 34.3663L14.6664 33.7736ZM14.0673 32.9595L14.8727 32.3667C14.4936 31.8516 14.1399 31.3156 13.8116 30.7587L12.9501 31.2664L12.0886 31.7742C12.451 32.3891 12.8421 32.9819 13.2619 33.5522L14.0673 32.9595ZM12.9501 31.2664L13.8116 30.7587L13.2935 29.8797L12.432 30.3875L11.5705 30.8952L12.0886 31.7742L12.9501 31.2664ZM12.432 30.3875L13.2935 29.8797L12.7755 29.0008L11.914 29.5085L11.0525 30.0163L11.5705 30.8952L12.432 30.3875ZM11.914 29.5085L12.7755 29.0008C12.4221 28.4012 12.0556 27.8119 11.6761 27.2329L10.8398 27.7811L10.0034 28.3294C10.3655 28.8816 10.7152 29.4439 11.0525 30.0163L11.914 29.5085ZM10.8398 27.7811L11.6761 27.2329L11.1199 26.3844L10.2836 26.9327L9.44725 27.4809L10.0034 28.3294L10.8398 27.7811ZM10.2836 26.9327L11.1199 26.3844L10.5637 25.536L9.72738 26.0842L8.89106 26.6325L9.44725 27.4809L10.2836 26.9327ZM9.72738 26.0842L10.5637 25.536C10.1568 24.9153 9.69252 24.3399 9.17151 23.8106L8.45887 24.5122L7.74623 25.2137C8.17498 25.6492 8.55638 26.1219 8.89106 26.6325L9.72738 26.0842ZM8.45887 24.5122L9.17151 23.8106L8.45918 23.087L7.74654 23.7886L7.0339 24.4901L7.74623 25.2137L8.45887 24.5122ZM7.74654 23.7886L8.45918 23.087L7.74686 22.3634L7.03422 23.065L6.32158 23.7665L7.0339 24.4901L7.74654 23.7886ZM7.03422 23.065L7.74686 22.3634C7.28327 21.8925 6.83227 21.4116 6.39384 20.9208L5.64805 21.587L4.90226 22.2532C5.36229 22.7682 5.83541 23.2726 6.32158 23.7665L7.03422 23.065ZM5.64805 21.587L6.39384 20.9208L5.72 20.1664L4.97421 20.8326L4.22842 21.4988L4.90226 22.2532L5.64805 21.587ZM4.97421 20.8326L5.72 20.1664L5.04616 19.4121L4.30036 20.0782L3.55457 20.7444L4.22842 21.4988L4.97421 20.8326ZM4.30036 20.0782L5.04616 19.4121C4.63478 18.9515 4.26423 18.4581 3.93428 17.9314L3.08681 18.4622L2.23934 18.9931C2.629 19.6151 3.06749 20.1991 3.55457 20.7444L4.30036 20.0782ZM3.08681 18.4622L3.93428 17.9314L3.39457 17.0698L2.5471 17.6006L1.69963 18.1315L2.23934 18.9931L3.08681 18.4622ZM2.5471 17.6006L3.39457 17.0698L2.85486 16.2081L2.00739 16.739L1.15992 17.2698L1.69963 18.1315L2.5471 17.6006ZM2.00739 16.739L2.85486 16.2081C2.66836 15.9104 2.49915 15.6583 2.35129 15.4667C2.27819 15.372 2.19593 15.2733 2.10748 15.1859C2.04536 15.1246 1.87647 14.9609 1.62574 14.8733L1.29601 15.8174L0.966284 16.7615C0.852792 16.7218 0.779109 16.6703 0.752024 16.6504C0.720024 16.6268 0.702949 16.6098 0.702217 16.609C0.701668 16.6085 0.722636 16.6299 0.768095 16.6888C0.857364 16.8045 0.986619 16.9932 1.15992 17.2698L2.00739 16.739ZM1.29601 15.8174L1.62574 14.8733L1.45407 14.8134L1.12434 15.7574L0.794614 16.7015L0.966284 16.7615L1.29601 15.8174ZM1.12434 15.7574L1.27158 14.7683L0.99069 14.7265L0.843455 15.7156L0.696221 16.7047L0.97711 16.7465L1.12434 15.7574ZM0.843455 15.7156L1.62449 15.0911L1.56204 15.013L0.781006 15.6375L-2.47955e-05 16.262L0.0624245 16.3401L0.843455 15.7156Z" fill="#FFC760"/>
</svg>
