<svg width="465" height="213" viewBox="0 0 465 213" fill="none" xmlns="http://www.w3.org/2000/svg">
<path d="M392.667 73.3033C392.667 95.4807 357.969 113.459 315.167 113.459C272.365 113.459 237.667 95.4807 237.667 73.3033C237.667 51.1259 272.365 33.1475 315.167 33.1475C357.969 33.1475 392.667 51.1259 392.667 73.3033Z" fill="white"/>
<path d="M191.167 131.557C191.167 165.292 148.373 192.639 95.5833 192.639C42.7941 192.639 0 165.292 0 131.557C0 97.8227 42.7941 70.4754 95.5833 70.4754C148.373 70.4754 191.167 97.8227 191.167 131.557Z" fill="white"/>
<path d="M296.222 68.7787C296.222 103.45 247.645 131.557 187.722 131.557C127.799 131.557 66.7518 107.975 66.7518 73.3033C66.7518 38.6316 110.077 0 170 0C229.923 0 296.222 34.107 296.222 68.7787Z" fill="white"/>
<path d="M465 141.738C465 181.095 378.641 213 272.111 213C165.582 213 79.2222 181.095 79.2222 141.738C79.2222 102.381 165.582 70.4754 272.111 70.4754C378.641 70.4754 465 102.381 465 141.738Z" fill="white"/>
</svg>
