<svg width="151" height="70" viewBox="0 0 151 70" fill="none" xmlns="http://www.w3.org/2000/svg">
<path d="M127.511 22.7596C127.511 30.2592 116.244 36.3388 102.344 36.3388C88.4453 36.3388 77.1778 30.2592 77.1778 22.7596C77.1778 15.26 88.4453 9.18033 102.344 9.18033C116.244 9.18033 127.511 15.26 127.511 22.7596Z" fill="#E2F9FB"/>
<path d="M62.0778 42.459C62.0778 53.8669 48.1812 63.1148 31.0389 63.1148C13.8966 63.1148 0 53.8669 0 42.459C0 31.0512 13.8966 21.8033 31.0389 21.8033C48.1812 21.8033 62.0778 31.0512 62.0778 42.459Z" fill="#E2F9FB"/>
<path d="M96.1926 21.2295C96.1926 32.9542 80.4181 42.459 60.9593 42.459C41.5004 42.459 25.7259 32.9542 25.7259 21.2295C25.7259 9.50478 41.5004 0 60.9593 0C80.4181 0 96.1926 9.50478 96.1926 21.2295Z" fill="#E2F9FB"/>
<path d="M151 45.9016C151 59.2108 122.956 70 88.363 70C53.7695 70 25.7259 59.2108 25.7259 45.9016C25.7259 32.5925 53.7695 21.8033 88.363 21.8033C122.956 21.8033 151 32.5925 151 45.9016Z" fill="#E2F9FB"/>
</svg>
