<svg width="336" height="175" viewBox="0 0 336 175" fill="none" xmlns="http://www.w3.org/2000/svg">
<path d="M283.733 56.8989C283.733 75.6479 258.661 90.847 227.733 90.847C196.805 90.847 171.733 75.6479 171.733 56.8989C171.733 38.1499 196.805 22.9508 227.733 22.9508C258.661 22.9508 283.733 38.1499 283.733 56.8989Z" fill="#E2F9FB"/>
<path d="M138.133 106.148C138.133 134.667 107.211 157.787 69.0667 157.787C30.9222 157.787 0 134.667 0 106.148C0 77.6279 30.9222 54.5082 69.0667 54.5082C107.211 54.5082 138.133 77.6279 138.133 106.148Z" fill="#E2F9FB"/>
<path d="M214.044 53.0738C214.044 82.3856 178.944 106.148 135.644 106.148C92.3453 106.148 57.2444 82.3856 57.2444 53.0738C57.2444 23.7619 92.3453 0 135.644 0C178.944 0 214.044 23.7619 214.044 53.0738Z" fill="#E2F9FB"/>
<path d="M336 114.754C336 148.027 273.598 175 196.622 175C119.646 175 57.2444 148.027 57.2444 114.754C57.2444 81.4812 119.646 54.5082 196.622 54.5082C273.598 54.5082 336 81.4812 336 114.754Z" fill="#E2F9FB"/>
</svg>
